<?xml version="1.0" encoding="UTF-8" standalone="no"?>
<svg
   xmlns:dc="http://purl.org/dc/elements/1.1/"
   xmlns:cc="http://creativecommons.org/ns#"
   xmlns:rdf="http://www.w3.org/1999/02/22-rdf-syntax-ns#"
   xmlns:svg="http://www.w3.org/2000/svg"
   xmlns="http://www.w3.org/2000/svg"
   xmlns:sodipodi="http://sodipodi.sourceforge.net/DTD/sodipodi-0.dtd"
   xmlns:inkscape="http://www.inkscape.org/namespaces/inkscape"
   height="439.35mm"
   viewBox="0.0 0.0 413.25 439.35"
   width="413.25mm"
   version="1.1"
   id="svg29"
   sodipodi:docname="ar3_base_box2.svg"
   inkscape:version="0.92.4 (5da689c313, 2019-01-14)">
  <defs
     id="defs33" />
  <sodipodi:namedview
     pagecolor="#ffffff"
     bordercolor="#666666"
     borderopacity="1"
     objecttolerance="10"
     gridtolerance="10"
     guidetolerance="10"
     inkscape:pageopacity="0"
     inkscape:pageshadow="2"
     inkscape:window-width="2999"
     inkscape:window-height="1927"
     id="namedview31"
     showgrid="false"
     inkscape:zoom="2.5368743"
     inkscape:cx="439.47584"
     inkscape:cy="410.66005"
     inkscape:window-x="1"
     inkscape:window-y="37"
     inkscape:window-maximized="1"
     inkscape:current-layer="svg29" />
  <!--
ClosedBox - Fully closed box

Created with Boxes.py (https://festi.info/boxes.py)
Creation date: 2020-12-24 20:03:51
Command line (remove spaces between dashes): boxes ClosedBox - -FingerJoint_angle=90.0 - -FingerJoint_style=rectangular - -FingerJoint_surroundingspaces=2.0 - -FingerJoint_edge_width=1.0 - -FingerJoint_finger=2.0 - -FingerJoint_play=0.0 - -FingerJoint_space=2.0 - -FingerJoint_width=1.0 - -x=150 - -y=240 - -h=80 - -outside=0 - -outside=1 - -thickness=5.7 - -format=svg - -tabs=0.0 - -debug=0 - -reference=100 - -burn=0.1
Url: http://www.festi.info/ClosedBox?FingerJoint_angle=90.0&FingerJoint_style=rectangular&FingerJoint_surroundingspaces=2.0&FingerJoint_edge_width=1.0&FingerJoint_finger=2.0&FingerJoint_play=0.0&FingerJoint_space=2.0&FingerJoint_width=1.0&x=150&y=240&h=80&outside=0&outside=1&thickness=5.7&format=svg&tabs=0.0&debug=0&reference=100&burn=0.1&render=1
SettingsUrl: http://www.festi.info/ClosedBox?FingerJoint_angle=90.0&FingerJoint_style=rectangular&FingerJoint_surroundingspaces=2.0&FingerJoint_edge_width=1.0&FingerJoint_finger=2.0&FingerJoint_play=0.0&FingerJoint_space=2.0&FingerJoint_width=1.0&x=150&y=240&h=80&outside=0&outside=1&thickness=5.7&format=svg&tabs=0.0&debug=0&reference=100&burn=0.1
-->
  <title
     id="title2">ClosedBox</title>
  <metadata
     id="metadata4">
    <rdf:RDF>
      <cc:Work>
        <dc:title>Box - ClosedBox</dc:title>
        <dc:date>2020-12-24 20:03:51</dc:date>
        <dc:source>http://www.festi.info/ClosedBox?FingerJoint_angle=90.0&amp;FingerJoint_style=rectangular&amp;FingerJoint_surroundingspaces=2.0&amp;FingerJoint_edge_width=1.0&amp;FingerJoint_finger=2.0&amp;FingerJoint_play=0.0&amp;FingerJoint_space=2.0&amp;FingerJoint_width=1.0&amp;x=150&amp;y=240&amp;h=80&amp;outside=0&amp;outside=1&amp;thickness=5.7&amp;format=svg&amp;tabs=0.0&amp;debug=0&amp;reference=100&amp;burn=0.1&amp;render=1</dc:source>
        <dc:description>Fully closed box

Created with Boxes.py (https://festi.info/boxes.py)
Command line: boxes ClosedBox --FingerJoint_angle=90.0 --FingerJoint_style=rectangular --FingerJoint_surroundingspaces=2.0 --FingerJoint_edge_width=1.0 --FingerJoint_finger=2.0 --FingerJoint_play=0.0 --FingerJoint_space=2.0 --FingerJoint_width=1.0 --x=150 --y=240 --h=80 --outside=0 --outside=1 --thickness=5.7 --format=svg --tabs=0.0 --debug=0 --reference=100 --burn=0.1
Url: http://www.festi.info/ClosedBox?FingerJoint_angle=90.0&amp;FingerJoint_style=rectangular&amp;FingerJoint_surroundingspaces=2.0&amp;FingerJoint_edge_width=1.0&amp;FingerJoint_finger=2.0&amp;FingerJoint_play=0.0&amp;FingerJoint_space=2.0&amp;FingerJoint_width=1.0&amp;x=150&amp;y=240&amp;h=80&amp;outside=0&amp;outside=1&amp;thickness=5.7&amp;format=svg&amp;tabs=0.0&amp;debug=0&amp;reference=100&amp;burn=0.1&amp;render=1
SettingsUrl: http://www.festi.info/ClosedBox?FingerJoint_angle=90.0&amp;FingerJoint_style=rectangular&amp;FingerJoint_surroundingspaces=2.0&amp;FingerJoint_edge_width=1.0&amp;FingerJoint_finger=2.0&amp;FingerJoint_play=0.0&amp;FingerJoint_space=2.0&amp;FingerJoint_width=1.0&amp;x=150&amp;y=240&amp;h=80&amp;outside=0&amp;outside=1&amp;thickness=5.7&amp;format=svg&amp;tabs=0.0&amp;debug=0&amp;reference=100&amp;burn=0.1
</dc:description>
        <dc:format>image/svg+xml</dc:format>
        <dc:type
           rdf:resource="http://purl.org/dc/dcmitype/StillImage" />
      </cc:Work>
    </rdf:RDF>
  </metadata>
  <g
     id="p-1"
     style="fill:none;stroke-linecap:round;stroke-linejoin:round;">
    <path
       d="M 15.800 416.300 H 33.800 C 33.855 416.300 33.900 416.255 33.900 416.200 V 410.600 C 33.900 410.500 33.800 410.600 33.900 410.600 H 45.100 C 45.200 410.600 45.100 410.500 45.100 410.600 V 416.200 C 45.100 416.255 45.145 416.300 45.200 416.300 H 56.600 C 56.655 416.300 56.700 416.255 56.700 416.200 V 410.600 C 56.700 410.500 56.600 410.600 56.700 410.600 H 67.900 C 68.000 410.600 67.900 410.500 67.900 410.600 V 416.200 C 67.900 416.255 67.945 416.300 68.000 416.300 H 79.400 C 79.455 416.300 79.500 416.255 79.500 416.200 V 410.600 C 79.500 410.500 79.400 410.600 79.500 410.600 H 90.700 C 90.800 410.600 90.700 410.500 90.700 410.600 V 416.200 C 90.700 416.255 90.745 416.300 90.800 416.300 H 102.200 C 102.255 416.300 102.300 416.255 102.300 416.200 V 410.600 C 102.300 410.500 102.200 410.600 102.300 410.600 H 113.500 C 113.600 410.600 113.500 410.500 113.500 410.600 V 416.200 C 113.500 416.255 113.545 416.300 113.600 416.300 H 125.000 C 125.055 416.300 125.100 416.255 125.100 416.200 V 410.600 C 125.100 410.500 125.000 410.600 125.100 410.600 H 136.300 C 136.400 410.600 136.300 410.500 136.300 410.600 V 416.200 C 136.300 416.255 136.345 416.300 136.400 416.300 H 154.400 H 160.100 C 160.155 416.300 160.200 416.255 160.200 416.200 V 410.500 V 393.300 C 160.200 393.245 160.155 393.200 160.100 393.200 H 154.500 C 154.400 393.200 154.500 393.300 154.500 393.200 V 382.000 C 154.500 381.900 154.400 382.000 154.500 382.000 H 160.100 C 160.155 382.000 160.200 381.955 160.200 381.900 V 370.500 C 160.200 370.445 160.155 370.400 160.100 370.400 H 154.500 C 154.400 370.400 154.500 370.500 154.500 370.400 V 359.200 C 154.500 359.100 154.400 359.200 154.500 359.200 H 160.100 C 160.155 359.200 160.200 359.155 160.200 359.100 V 341.900 V 336.200 C 160.200 336.145 160.155 336.100 160.100 336.100 H 154.400 H 136.400 C 136.345 336.100 136.300 336.145 136.300 336.200 V 341.800 C 136.300 341.900 136.400 341.800 136.300 341.800 H 125.100 C 125.000 341.800 125.100 341.900 125.100 341.800 V 336.200 C 125.100 336.145 125.055 336.100 125.000 336.100 H 113.600 C 113.545 336.100 113.500 336.145 113.500 336.200 V 341.800 C 113.500 341.900 113.600 341.800 113.500 341.800 H 102.300 C 102.200 341.800 102.300 341.900 102.300 341.800 V 336.200 C 102.300 336.145 102.255 336.100 102.200 336.100 H 90.800 C 90.745 336.100 90.700 336.145 90.700 336.200 V 341.800 C 90.700 341.900 90.800 341.800 90.700 341.800 H 79.500 C 79.400 341.800 79.500 341.900 79.500 341.800 V 336.200 C 79.500 336.145 79.455 336.100 79.400 336.100 H 68.000 C 67.945 336.100 67.900 336.145 67.900 336.200 V 341.800 C 67.900 341.900 68.000 341.800 67.900 341.800 H 56.700 C 56.600 341.800 56.700 341.900 56.700 341.800 V 336.200 C 56.700 336.145 56.655 336.100 56.600 336.100 H 45.200 C 45.145 336.100 45.100 336.145 45.100 336.200 V 341.800 C 45.100 341.900 45.200 341.800 45.100 341.800 H 33.900 C 33.800 341.800 33.900 341.900 33.900 341.800 V 336.200 C 33.900 336.145 33.855 336.100 33.800 336.100 H 15.800 H 10.100 C 10.045 336.100 10.000 336.145 10.000 336.200 V 341.900 V 359.100 C 10.000 359.155 10.045 359.200 10.100 359.200 H 15.700 C 15.800 359.200 15.700 359.100 15.700 359.200 V 370.400 C 15.700 370.500 15.800 370.400 15.700 370.400 H 10.100 C 10.045 370.400 10.000 370.445 10.000 370.500 V 381.900 C 10.000 381.955 10.045 382.000 10.100 382.000 H 15.700 C 15.800 382.000 15.700 381.900 15.700 382.000 V 393.200 C 15.700 393.300 15.800 393.200 15.700 393.200 H 10.100 C 10.045 393.200 10.000 393.245 10.000 393.300 V 410.500 V 416.200 C 10.000 416.255 10.045 416.300 10.100 416.300 H 15.800 Z"
       stroke="rgb(0,0,0)"
       stroke-width="0.20"
       id="path11" />
  </g>
  <g
     id="p-2"
     style="fill:none;stroke-linecap:round;stroke-linejoin:round;">
    <path
       d="M 168.850 416.300 H 186.250 C 186.305 416.300 186.350 416.255 186.350 416.200 V 410.600 C 186.350 410.500 186.250 410.600 186.350 410.600 H 197.550 C 197.650 410.600 197.550 410.500 197.550 410.600 V 416.200 C 197.550 416.255 197.595 416.300 197.650 416.300 H 209.050 C 209.105 416.300 209.150 416.255 209.150 416.200 V 410.600 C 209.150 410.500 209.050 410.600 209.150 410.600 H 220.350 C 220.450 410.600 220.350 410.500 220.350 410.600 V 416.200 C 220.350 416.255 220.395 416.300 220.450 416.300 H 231.850 C 231.905 416.300 231.950 416.255 231.950 416.200 V 410.600 C 231.950 410.500 231.850 410.600 231.950 410.600 H 243.150 C 243.250 410.600 243.150 410.500 243.150 410.600 V 416.200 C 243.150 416.255 243.195 416.300 243.250 416.300 H 254.650 C 254.705 416.300 254.750 416.255 254.750 416.200 V 410.600 C 254.750 410.500 254.650 410.600 254.750 410.600 H 265.950 C 266.050 410.600 265.950 410.500 265.950 410.600 V 416.200 C 265.950 416.255 265.995 416.300 266.050 416.300 H 277.450 C 277.505 416.300 277.550 416.255 277.550 416.200 V 410.600 C 277.550 410.500 277.450 410.600 277.550 410.600 H 288.750 C 288.850 410.600 288.750 410.500 288.750 410.600 V 416.200 C 288.750 416.255 288.795 416.300 288.850 416.300 H 300.250 C 300.305 416.300 300.350 416.255 300.350 416.200 V 410.600 C 300.350 410.500 300.250 410.600 300.350 410.600 H 311.550 C 311.650 410.600 311.550 410.500 311.550 410.600 V 416.200 C 311.550 416.255 311.595 416.300 311.650 416.300 H 323.050 C 323.105 416.300 323.150 416.255 323.150 416.200 V 410.600 C 323.150 410.500 323.050 410.600 323.150 410.600 H 334.350 C 334.450 410.600 334.350 410.500 334.350 410.600 V 416.200 C 334.350 416.255 334.395 416.300 334.450 416.300 H 345.850 C 345.905 416.300 345.950 416.255 345.950 416.200 V 410.600 C 345.950 410.500 345.850 410.600 345.950 410.600 H 357.150 C 357.250 410.600 357.150 410.500 357.150 410.600 V 416.200 C 357.150 416.255 357.195 416.300 357.250 416.300 H 368.650 C 368.705 416.300 368.750 416.255 368.750 416.200 V 410.600 C 368.750 410.500 368.650 410.600 368.750 410.600 H 379.950 C 380.050 410.600 379.950 410.500 379.950 410.600 V 416.200 C 379.950 416.255 379.995 416.300 380.050 416.300 H 397.450 C 397.505 416.300 397.550 416.255 397.550 416.200 V 410.500 V 393.400 C 397.550 393.300 397.450 393.400 397.550 393.400 H 403.150 C 403.205 393.400 403.250 393.355 403.250 393.300 V 381.900 C 403.250 381.845 403.205 381.800 403.150 381.800 H 397.550 C 397.450 381.800 397.550 381.900 397.550 381.800 V 370.600 C 397.550 370.500 397.450 370.600 397.550 370.600 H 403.150 C 403.205 370.600 403.250 370.555 403.250 370.500 V 359.100 C 403.250 359.045 403.205 359.000 403.150 359.000 H 397.550 C 397.450 359.000 397.550 359.100 397.550 359.000 V 341.900 V 336.200 C 397.550 336.145 397.505 336.100 397.450 336.100 H 380.050 C 379.995 336.100 379.950 336.145 379.950 336.200 V 341.800 C 379.950 341.900 380.050 341.800 379.950 341.800 H 368.750 C 368.650 341.800 368.750 341.900 368.750 341.800 V 336.200 C 368.750 336.145 368.705 336.100 368.650 336.100 H 357.250 C 357.195 336.100 357.150 336.145 357.150 336.200 V 341.800 C 357.150 341.900 357.250 341.800 357.150 341.800 H 345.950 C 345.850 341.800 345.950 341.900 345.950 341.800 V 336.200 C 345.950 336.145 345.905 336.100 345.850 336.100 H 334.450 C 334.395 336.100 334.350 336.145 334.350 336.200 V 341.800 C 334.350 341.900 334.450 341.800 334.350 341.800 H 323.150 C 323.050 341.800 323.150 341.900 323.150 341.800 V 336.200 C 323.150 336.145 323.105 336.100 323.050 336.100 H 311.650 C 311.595 336.100 311.550 336.145 311.550 336.200 V 341.800 C 311.550 341.900 311.650 341.800 311.550 341.800 H 300.350 C 300.250 341.800 300.350 341.900 300.350 341.800 V 336.200 C 300.350 336.145 300.305 336.100 300.250 336.100 H 288.850 C 288.795 336.100 288.750 336.145 288.750 336.200 V 341.800 C 288.750 341.900 288.850 341.800 288.750 341.800 H 277.550 C 277.450 341.800 277.550 341.900 277.550 341.800 V 336.200 C 277.550 336.145 277.505 336.100 277.450 336.100 H 266.050 C 265.995 336.100 265.950 336.145 265.950 336.200 V 341.800 C 265.950 341.900 266.050 341.800 265.950 341.800 H 254.750 C 254.650 341.800 254.750 341.900 254.750 341.800 V 336.200 C 254.750 336.145 254.705 336.100 254.650 336.100 H 243.250 C 243.195 336.100 243.150 336.145 243.150 336.200 V 341.800 C 243.150 341.900 243.250 341.800 243.150 341.800 H 231.950 C 231.850 341.800 231.950 341.900 231.950 341.800 V 336.200 C 231.950 336.145 231.905 336.100 231.850 336.100 H 220.450 C 220.395 336.100 220.350 336.145 220.350 336.200 V 341.800 C 220.350 341.900 220.450 341.800 220.350 341.800 H 209.150 C 209.050 341.800 209.150 341.900 209.150 341.800 V 336.200 C 209.150 336.145 209.105 336.100 209.050 336.100 H 197.650 C 197.595 336.100 197.550 336.145 197.550 336.200 V 341.800 C 197.550 341.900 197.650 341.800 197.550 341.800 H 186.350 C 186.250 341.800 186.350 341.900 186.350 341.800 V 336.200 C 186.350 336.145 186.305 336.100 186.250 336.100 H 168.850 C 168.795 336.100 168.750 336.145 168.750 336.200 V 341.900 V 359.000 C 168.750 359.100 168.850 359.000 168.750 359.000 H 163.150 C 163.095 359.000 163.050 359.045 163.050 359.100 V 370.500 C 163.050 370.555 163.095 370.600 163.150 370.600 H 168.750 C 168.850 370.600 168.750 370.500 168.750 370.600 V 381.800 C 168.750 381.900 168.850 381.800 168.750 381.800 H 163.150 C 163.095 381.800 163.050 381.845 163.050 381.900 V 393.300 C 163.050 393.355 163.095 393.400 163.150 393.400 H 168.750 C 168.850 393.400 168.750 393.300 168.750 393.400 V 410.500 V 416.200 C 168.750 416.255 168.795 416.300 168.850 416.300 Z"
       stroke="rgb(0,0,0)"
       stroke-width="0.20"
       id="path14" />
  </g>
  <g
     id="p-3"
     style="fill:none;stroke-linecap:round;stroke-linejoin:round;">
    <path
       d="M 168.850 333.250 H 186.250 C 186.305 333.250 186.350 333.205 186.350 333.150 V 327.550 C 186.350 327.450 186.250 327.550 186.350 327.550 H 197.550 C 197.650 327.550 197.550 327.450 197.550 327.550 V 333.150 C 197.550 333.205 197.595 333.250 197.650 333.250 H 209.050 C 209.105 333.250 209.150 333.205 209.150 333.150 V 327.550 C 209.150 327.450 209.050 327.550 209.150 327.550 H 220.350 C 220.450 327.550 220.350 327.450 220.350 327.550 V 333.150 C 220.350 333.205 220.395 333.250 220.450 333.250 H 231.850 C 231.905 333.250 231.950 333.205 231.950 333.150 V 327.550 C 231.950 327.450 231.850 327.550 231.950 327.550 H 243.150 C 243.250 327.550 243.150 327.450 243.150 327.550 V 333.150 C 243.150 333.205 243.195 333.250 243.250 333.250 H 254.650 C 254.705 333.250 254.750 333.205 254.750 333.150 V 327.550 C 254.750 327.450 254.650 327.550 254.750 327.550 H 265.950 C 266.050 327.550 265.950 327.450 265.950 327.550 V 333.150 C 265.950 333.205 265.995 333.250 266.050 333.250 H 277.450 C 277.505 333.250 277.550 333.205 277.550 333.150 V 327.550 C 277.550 327.450 277.450 327.550 277.550 327.550 H 288.750 C 288.850 327.550 288.750 327.450 288.750 327.550 V 333.150 C 288.750 333.205 288.795 333.250 288.850 333.250 H 300.250 C 300.305 333.250 300.350 333.205 300.350 333.150 V 327.550 C 300.350 327.450 300.250 327.550 300.350 327.550 H 311.550 C 311.650 327.550 311.550 327.450 311.550 327.550 V 333.150 C 311.550 333.205 311.595 333.250 311.650 333.250 H 323.050 C 323.105 333.250 323.150 333.205 323.150 333.150 V 327.550 C 323.150 327.450 323.050 327.550 323.150 327.550 H 334.350 C 334.450 327.550 334.350 327.450 334.350 327.550 V 333.150 C 334.350 333.205 334.395 333.250 334.450 333.250 H 345.850 C 345.905 333.250 345.950 333.205 345.950 333.150 V 327.550 C 345.950 327.450 345.850 327.550 345.950 327.550 H 357.150 C 357.250 327.550 357.150 327.450 357.150 327.550 V 333.150 C 357.150 333.205 357.195 333.250 357.250 333.250 H 368.650 C 368.705 333.250 368.750 333.205 368.750 333.150 V 327.550 C 368.750 327.450 368.650 327.550 368.750 327.550 H 379.950 C 380.050 327.550 379.950 327.450 379.950 327.550 V 333.150 C 379.950 333.205 379.995 333.250 380.050 333.250 H 397.450 C 397.505 333.250 397.550 333.205 397.550 333.150 V 327.450 V 310.350 C 397.550 310.250 397.450 310.350 397.550 310.350 H 403.150 C 403.205 310.350 403.250 310.305 403.250 310.250 V 298.850 C 403.250 298.795 403.205 298.750 403.150 298.750 H 397.550 C 397.450 298.750 397.550 298.850 397.550 298.750 V 287.550 C 397.550 287.450 397.450 287.550 397.550 287.550 H 403.150 C 403.205 287.550 403.250 287.505 403.250 287.450 V 276.050 C 403.250 275.995 403.205 275.950 403.150 275.950 H 397.550 C 397.450 275.950 397.550 276.050 397.550 275.950 V 258.850 V 253.150 C 397.550 253.095 397.505 253.050 397.450 253.050 H 380.050 C 379.995 253.050 379.950 253.095 379.950 253.150 V 258.750 C 379.950 258.850 380.050 258.750 379.950 258.750 H 368.750 C 368.650 258.750 368.750 258.850 368.750 258.750 V 253.150 C 368.750 253.095 368.705 253.050 368.650 253.050 H 357.250 C 357.195 253.050 357.150 253.095 357.150 253.150 V 258.750 C 357.150 258.850 357.250 258.750 357.150 258.750 H 345.950 C 345.850 258.750 345.950 258.850 345.950 258.750 V 253.150 C 345.950 253.095 345.905 253.050 345.850 253.050 H 334.450 C 334.395 253.050 334.350 253.095 334.350 253.150 V 258.750 C 334.350 258.850 334.450 258.750 334.350 258.750 H 323.150 C 323.050 258.750 323.150 258.850 323.150 258.750 V 253.150 C 323.150 253.095 323.105 253.050 323.050 253.050 H 311.650 C 311.595 253.050 311.550 253.095 311.550 253.150 V 258.750 C 311.550 258.850 311.650 258.750 311.550 258.750 H 300.350 C 300.250 258.750 300.350 258.850 300.350 258.750 V 253.150 C 300.350 253.095 300.305 253.050 300.250 253.050 H 288.850 C 288.795 253.050 288.750 253.095 288.750 253.150 V 258.750 C 288.750 258.850 288.850 258.750 288.750 258.750 H 277.550 C 277.450 258.750 277.550 258.850 277.550 258.750 V 253.150 C 277.550 253.095 277.505 253.050 277.450 253.050 H 266.050 C 265.995 253.050 265.950 253.095 265.950 253.150 V 258.750 C 265.950 258.850 266.050 258.750 265.950 258.750 H 254.750 C 254.650 258.750 254.750 258.850 254.750 258.750 V 253.150 C 254.750 253.095 254.705 253.050 254.650 253.050 H 243.250 C 243.195 253.050 243.150 253.095 243.150 253.150 V 258.750 C 243.150 258.850 243.250 258.750 243.150 258.750 H 231.950 C 231.850 258.750 231.950 258.850 231.950 258.750 V 253.150 C 231.950 253.095 231.905 253.050 231.850 253.050 H 220.450 C 220.395 253.050 220.350 253.095 220.350 253.150 V 258.750 C 220.350 258.850 220.450 258.750 220.350 258.750 H 209.150 C 209.050 258.750 209.150 258.850 209.150 258.750 V 253.150 C 209.150 253.095 209.105 253.050 209.050 253.050 H 197.650 C 197.595 253.050 197.550 253.095 197.550 253.150 V 258.750 C 197.550 258.850 197.650 258.750 197.550 258.750 H 186.350 C 186.250 258.750 186.350 258.850 186.350 258.750 V 253.150 C 186.350 253.095 186.305 253.050 186.250 253.050 H 168.850 C 168.795 253.050 168.750 253.095 168.750 253.150 V 258.850 V 275.950 C 168.750 276.050 168.850 275.950 168.750 275.950 H 163.150 C 163.095 275.950 163.050 275.995 163.050 276.050 V 287.450 C 163.050 287.505 163.095 287.550 163.150 287.550 H 168.750 C 168.850 287.550 168.750 287.450 168.750 287.550 V 298.750 C 168.750 298.850 168.850 298.750 168.750 298.750 H 163.150 C 163.095 298.750 163.050 298.795 163.050 298.850 V 310.250 C 163.050 310.305 163.095 310.350 163.150 310.350 H 168.750 C 168.850 310.350 168.750 310.250 168.750 310.350 V 327.450 V 333.150 C 168.750 333.205 168.795 333.250 168.850 333.250 Z"
       stroke="rgb(0,0,0)"
       stroke-width="0.20"
       id="path17" />
  </g>
  <g
     id="p-4"
     style="fill:none;stroke-linecap:round;stroke-linejoin:round;">
    <path
       d="M 15.800 333.250 H 33.800 C 33.855 333.250 33.900 333.205 33.900 333.150 V 327.550 C 33.900 327.450 33.800 327.550 33.900 327.550 H 45.100 C 45.200 327.550 45.100 327.450 45.100 327.550 V 333.150 C 45.100 333.205 45.145 333.250 45.200 333.250 H 56.600 C 56.655 333.250 56.700 333.205 56.700 333.150 V 327.550 C 56.700 327.450 56.600 327.550 56.700 327.550 H 67.900 C 68.000 327.550 67.900 327.450 67.900 327.550 V 333.150 C 67.900 333.205 67.945 333.250 68.000 333.250 H 79.400 C 79.455 333.250 79.500 333.205 79.500 333.150 V 327.550 C 79.500 327.450 79.400 327.550 79.500 327.550 H 90.700 C 90.800 327.550 90.700 327.450 90.700 327.550 V 333.150 C 90.700 333.205 90.745 333.250 90.800 333.250 H 102.200 C 102.255 333.250 102.300 333.205 102.300 333.150 V 327.550 C 102.300 327.450 102.200 327.550 102.300 327.550 H 113.500 C 113.600 327.550 113.500 327.450 113.500 327.550 V 333.150 C 113.500 333.205 113.545 333.250 113.600 333.250 H 125.000 C 125.055 333.250 125.100 333.205 125.100 333.150 V 327.550 C 125.100 327.450 125.000 327.550 125.100 327.550 H 136.300 C 136.400 327.550 136.300 327.450 136.300 327.550 V 333.150 C 136.300 333.205 136.345 333.250 136.400 333.250 H 154.400 H 160.100 C 160.155 333.250 160.200 333.205 160.200 333.150 V 327.450 V 310.250 C 160.200 310.195 160.155 310.150 160.100 310.150 H 154.500 C 154.400 310.150 154.500 310.250 154.500 310.150 V 298.950 C 154.500 298.850 154.400 298.950 154.500 298.950 H 160.100 C 160.155 298.950 160.200 298.905 160.200 298.850 V 287.450 C 160.200 287.395 160.155 287.350 160.100 287.350 H 154.500 C 154.400 287.350 154.500 287.450 154.500 287.350 V 276.150 C 154.500 276.050 154.400 276.150 154.500 276.150 H 160.100 C 160.155 276.150 160.200 276.105 160.200 276.050 V 258.850 V 253.150 C 160.200 253.095 160.155 253.050 160.100 253.050 H 154.400 H 136.400 C 136.345 253.050 136.300 253.095 136.300 253.150 V 258.750 C 136.300 258.850 136.400 258.750 136.300 258.750 H 125.100 C 125.000 258.750 125.100 258.850 125.100 258.750 V 253.150 C 125.100 253.095 125.055 253.050 125.000 253.050 H 113.600 C 113.545 253.050 113.500 253.095 113.500 253.150 V 258.750 C 113.500 258.850 113.600 258.750 113.500 258.750 H 102.300 C 102.200 258.750 102.300 258.850 102.300 258.750 V 253.150 C 102.300 253.095 102.255 253.050 102.200 253.050 H 90.800 C 90.745 253.050 90.700 253.095 90.700 253.150 V 258.750 C 90.700 258.850 90.800 258.750 90.700 258.750 H 79.500 C 79.400 258.750 79.500 258.850 79.500 258.750 V 253.150 C 79.500 253.095 79.455 253.050 79.400 253.050 H 68.000 C 67.945 253.050 67.900 253.095 67.900 253.150 V 258.750 C 67.900 258.850 68.000 258.750 67.900 258.750 H 56.700 C 56.600 258.750 56.700 258.850 56.700 258.750 V 253.150 C 56.700 253.095 56.655 253.050 56.600 253.050 H 45.200 C 45.145 253.050 45.100 253.095 45.100 253.150 V 258.750 C 45.100 258.850 45.200 258.750 45.100 258.750 H 33.900 C 33.800 258.750 33.900 258.850 33.900 258.750 V 253.150 C 33.900 253.095 33.855 253.050 33.800 253.050 H 15.800 H 10.100 C 10.045 253.050 10.000 253.095 10.000 253.150 V 258.850 V 276.050 C 10.000 276.105 10.045 276.150 10.100 276.150 H 15.700 C 15.800 276.150 15.700 276.050 15.700 276.150 V 287.350 C 15.700 287.450 15.800 287.350 15.700 287.350 H 10.100 C 10.045 287.350 10.000 287.395 10.000 287.450 V 298.850 C 10.000 298.905 10.045 298.950 10.100 298.950 H 15.700 C 15.800 298.950 15.700 298.850 15.700 298.950 V 310.150 C 15.700 310.250 15.800 310.150 15.700 310.150 H 10.100 C 10.045 310.150 10.000 310.195 10.000 310.250 V 327.450 V 333.150 C 10.000 333.205 10.045 333.250 10.100 333.250 H 15.800 Z"
       stroke="rgb(0,0,0)"
       stroke-width="0.20"
       id="path20" />
  </g>
  <g
     id="p-5"
     style="fill:none;stroke-linecap:round;stroke-linejoin:round;">
    <path
       d="M 15.800 244.500 H 33.700 C 33.800 244.500 33.700 244.400 33.700 244.500 V 250.100 C 33.700 250.155 33.745 250.200 33.800 250.200 H 45.200 C 45.255 250.200 45.300 250.155 45.300 250.100 V 244.500 C 45.300 244.400 45.200 244.500 45.300 244.500 H 56.500 C 56.600 244.500 56.500 244.400 56.500 244.500 V 250.100 C 56.500 250.155 56.545 250.200 56.600 250.200 H 68.000 C 68.055 250.200 68.100 250.155 68.100 250.100 V 244.500 C 68.100 244.400 68.000 244.500 68.100 244.500 H 79.300 C 79.400 244.500 79.300 244.400 79.300 244.500 V 250.100 C 79.300 250.155 79.345 250.200 79.400 250.200 H 90.800 C 90.855 250.200 90.900 250.155 90.900 250.100 V 244.500 C 90.900 244.400 90.800 244.500 90.900 244.500 H 102.100 C 102.200 244.500 102.100 244.400 102.100 244.500 V 250.100 C 102.100 250.155 102.145 250.200 102.200 250.200 H 113.600 C 113.655 250.200 113.700 250.155 113.700 250.100 V 244.500 C 113.700 244.400 113.600 244.500 113.700 244.500 H 124.900 C 125.000 244.500 124.900 244.400 124.900 244.500 V 250.100 C 124.900 250.155 124.945 250.200 125.000 250.200 H 136.400 C 136.455 250.200 136.500 250.155 136.500 250.100 V 244.500 C 136.500 244.400 136.400 244.500 136.500 244.500 H 154.400 C 154.455 244.500 154.500 244.455 154.500 244.400 V 227.100 C 154.500 227.000 154.400 227.100 154.500 227.100 H 160.100 C 160.155 227.100 160.200 227.055 160.200 227.000 V 215.600 C 160.200 215.545 160.155 215.500 160.100 215.500 H 154.500 C 154.400 215.500 154.500 215.600 154.500 215.500 V 204.300 C 154.500 204.200 154.400 204.300 154.500 204.300 H 160.100 C 160.155 204.300 160.200 204.255 160.200 204.200 V 192.800 C 160.200 192.745 160.155 192.700 160.100 192.700 H 154.500 C 154.400 192.700 154.500 192.800 154.500 192.700 V 181.500 C 154.500 181.400 154.400 181.500 154.500 181.500 H 160.100 C 160.155 181.500 160.200 181.455 160.200 181.400 V 170.000 C 160.200 169.945 160.155 169.900 160.100 169.900 H 154.500 C 154.400 169.900 154.500 170.000 154.500 169.900 V 158.700 C 154.500 158.600 154.400 158.700 154.500 158.700 H 160.100 C 160.155 158.700 160.200 158.655 160.200 158.600 V 147.200 C 160.200 147.145 160.155 147.100 160.100 147.100 H 154.500 C 154.400 147.100 154.500 147.200 154.500 147.100 V 135.900 C 154.500 135.800 154.400 135.900 154.500 135.900 H 160.100 C 160.155 135.900 160.200 135.855 160.200 135.800 V 124.400 C 160.200 124.345 160.155 124.300 160.100 124.300 H 154.500 C 154.400 124.300 154.500 124.400 154.500 124.300 V 113.100 C 154.500 113.000 154.400 113.100 154.500 113.100 H 160.100 C 160.155 113.100 160.200 113.055 160.200 113.000 V 101.600 C 160.200 101.545 160.155 101.500 160.100 101.500 H 154.500 C 154.400 101.500 154.500 101.600 154.500 101.500 V 90.300 C 154.500 90.200 154.400 90.300 154.500 90.300 H 160.100 C 160.155 90.300 160.200 90.255 160.200 90.200 V 78.800 C 160.200 78.745 160.155 78.700 160.100 78.700 H 154.500 C 154.400 78.700 154.500 78.800 154.500 78.700 V 67.500 C 154.500 67.400 154.400 67.500 154.500 67.500 H 160.100 C 160.155 67.500 160.200 67.455 160.200 67.400 V 56.000 C 160.200 55.945 160.155 55.900 160.100 55.900 H 154.500 C 154.400 55.900 154.500 56.000 154.500 55.900 V 44.700 C 154.500 44.600 154.400 44.700 154.500 44.700 H 160.100 C 160.155 44.700 160.200 44.655 160.200 44.600 V 33.200 C 160.200 33.145 160.155 33.100 160.100 33.100 H 154.500 C 154.400 33.100 154.500 33.200 154.500 33.100 V 15.800 C 154.500 15.745 154.455 15.700 154.400 15.700 H 136.500 C 136.400 15.700 136.500 15.800 136.500 15.700 V 10.100 C 136.500 10.045 136.455 10.000 136.400 10.000 H 125.000 C 124.945 10.000 124.900 10.045 124.900 10.100 V 15.700 C 124.900 15.800 125.000 15.700 124.900 15.700 H 113.700 C 113.600 15.700 113.700 15.800 113.700 15.700 V 10.100 C 113.700 10.045 113.655 10.000 113.600 10.000 H 102.200 C 102.145 10.000 102.100 10.045 102.100 10.100 V 15.700 C 102.100 15.800 102.200 15.700 102.100 15.700 H 90.900 C 90.800 15.700 90.900 15.800 90.900 15.700 V 10.100 C 90.900 10.045 90.855 10.000 90.800 10.000 H 79.400 C 79.345 10.000 79.300 10.045 79.300 10.100 V 15.700 C 79.300 15.800 79.400 15.700 79.300 15.700 H 68.100 C 68.000 15.700 68.100 15.800 68.100 15.700 V 10.100 C 68.100 10.045 68.055 10.000 68.000 10.000 H 56.600 C 56.545 10.000 56.500 10.045 56.500 10.100 V 15.700 C 56.500 15.800 56.600 15.700 56.500 15.700 H 45.300 C 45.200 15.700 45.300 15.800 45.300 15.700 V 10.100 C 45.300 10.045 45.255 10.000 45.200 10.000 H 33.800 C 33.745 10.000 33.700 10.045 33.700 10.100 V 15.700 C 33.700 15.800 33.800 15.700 33.700 15.700 H 15.800 C 15.745 15.700 15.700 15.745 15.700 15.800 V 33.100 C 15.700 33.200 15.800 33.100 15.700 33.100 H 10.100 C 10.045 33.100 10.000 33.145 10.000 33.200 V 44.600 C 10.000 44.655 10.045 44.700 10.100 44.700 H 15.700 C 15.800 44.700 15.700 44.600 15.700 44.700 V 55.900 C 15.700 56.000 15.800 55.900 15.700 55.900 H 10.100 C 10.045 55.900 10.000 55.945 10.000 56.000 V 67.400 C 10.000 67.455 10.045 67.500 10.100 67.500 H 15.700 C 15.800 67.500 15.700 67.400 15.700 67.500 V 78.700 C 15.700 78.800 15.800 78.700 15.700 78.700 H 10.100 C 10.045 78.700 10.000 78.745 10.000 78.800 V 90.200 C 10.000 90.255 10.045 90.300 10.100 90.300 H 15.700 C 15.800 90.300 15.700 90.200 15.700 90.300 V 101.500 C 15.700 101.600 15.800 101.500 15.700 101.500 H 10.100 C 10.045 101.500 10.000 101.545 10.000 101.600 V 113.000 C 10.000 113.055 10.045 113.100 10.100 113.100 H 15.700 C 15.800 113.100 15.700 113.000 15.700 113.100 V 124.300 C 15.700 124.400 15.800 124.300 15.700 124.300 H 10.100 C 10.045 124.300 10.000 124.345 10.000 124.400 V 135.800 C 10.000 135.855 10.045 135.900 10.100 135.900 H 15.700 C 15.800 135.900 15.700 135.800 15.700 135.900 V 147.100 C 15.700 147.200 15.800 147.100 15.700 147.100 H 10.100 C 10.045 147.100 10.000 147.145 10.000 147.200 V 158.600 C 10.000 158.655 10.045 158.700 10.100 158.700 H 15.700 C 15.800 158.700 15.700 158.600 15.700 158.700 V 169.900 C 15.700 170.000 15.800 169.900 15.700 169.900 H 10.100 C 10.045 169.900 10.000 169.945 10.000 170.000 V 181.400 C 10.000 181.455 10.045 181.500 10.100 181.500 H 15.700 C 15.800 181.500 15.700 181.400 15.700 181.500 V 192.700 C 15.700 192.800 15.800 192.700 15.700 192.700 H 10.100 C 10.045 192.700 10.000 192.745 10.000 192.800 V 204.200 C 10.000 204.255 10.045 204.300 10.100 204.300 H 15.700 C 15.800 204.300 15.700 204.200 15.700 204.300 V 215.500 C 15.700 215.600 15.800 215.500 15.700 215.500 H 10.100 C 10.045 215.500 10.000 215.545 10.000 215.600 V 227.000 C 10.000 227.055 10.045 227.100 10.100 227.100 H 15.700 C 15.800 227.100 15.700 227.000 15.700 227.100 V 244.400 C 15.700 244.455 15.745 244.500 15.800 244.500 Z"
       stroke="rgb(0,0,0)"
       stroke-width="0.20"
       id="path23" />
  </g>
  <g
     id="p-6"
     style="fill:none;stroke-linecap:round;stroke-linejoin:round;">
    <path
       d="M 168.850 244.500 H 186.750 C 186.850 244.500 186.750 244.400 186.750 244.500 V 250.100 C 186.750 250.155 186.795 250.200 186.850 250.200 H 198.250 C 198.305 250.200 198.350 250.155 198.350 250.100 V 244.500 C 198.350 244.400 198.250 244.500 198.350 244.500 H 209.550 C 209.650 244.500 209.550 244.400 209.550 244.500 V 250.100 C 209.550 250.155 209.595 250.200 209.650 250.200 H 221.050 C 221.105 250.200 221.150 250.155 221.150 250.100 V 244.500 C 221.150 244.400 221.050 244.500 221.150 244.500 H 232.350 C 232.450 244.500 232.350 244.400 232.350 244.500 V 250.100 C 232.350 250.155 232.395 250.200 232.450 250.200 H 243.850 C 243.905 250.200 243.950 250.155 243.950 250.100 V 244.500 C 243.950 244.400 243.850 244.500 243.950 244.500 H 255.150 C 255.250 244.500 255.150 244.400 255.150 244.500 V 250.100 C 255.150 250.155 255.195 250.200 255.250 250.200 H 266.650 C 266.705 250.200 266.750 250.155 266.750 250.100 V 244.500 C 266.750 244.400 266.650 244.500 266.750 244.500 H 277.950 C 278.050 244.500 277.950 244.400 277.950 244.500 V 250.100 C 277.950 250.155 277.995 250.200 278.050 250.200 H 289.450 C 289.505 250.200 289.550 250.155 289.550 250.100 V 244.500 C 289.550 244.400 289.450 244.500 289.550 244.500 H 307.450 C 307.505 244.500 307.550 244.455 307.550 244.400 V 227.100 C 307.550 227.000 307.450 227.100 307.550 227.100 H 313.150 C 313.205 227.100 313.250 227.055 313.250 227.000 V 215.600 C 313.250 215.545 313.205 215.500 313.150 215.500 H 307.550 C 307.450 215.500 307.550 215.600 307.550 215.500 V 204.300 C 307.550 204.200 307.450 204.300 307.550 204.300 H 313.150 C 313.205 204.300 313.250 204.255 313.250 204.200 V 192.800 C 313.250 192.745 313.205 192.700 313.150 192.700 H 307.550 C 307.450 192.700 307.550 192.800 307.550 192.700 V 181.500 C 307.550 181.400 307.450 181.500 307.550 181.500 H 313.150 C 313.205 181.500 313.250 181.455 313.250 181.400 V 170.000 C 313.250 169.945 313.205 169.900 313.150 169.900 H 307.550 C 307.450 169.900 307.550 170.000 307.550 169.900 V 158.700 C 307.550 158.600 307.450 158.700 307.550 158.700 H 313.150 C 313.205 158.700 313.250 158.655 313.250 158.600 V 147.200 C 313.250 147.145 313.205 147.100 313.150 147.100 H 307.550 C 307.450 147.100 307.550 147.200 307.550 147.100 V 135.900 C 307.550 135.800 307.450 135.900 307.550 135.900 H 313.150 C 313.205 135.900 313.250 135.855 313.250 135.800 V 124.400 C 313.250 124.345 313.205 124.300 313.150 124.300 H 307.550 C 307.450 124.300 307.550 124.400 307.550 124.300 V 113.100 C 307.550 113.000 307.450 113.100 307.550 113.100 H 313.150 C 313.205 113.100 313.250 113.055 313.250 113.000 V 101.600 C 313.250 101.545 313.205 101.500 313.150 101.500 H 307.550 C 307.450 101.500 307.550 101.600 307.550 101.500 V 90.300 C 307.550 90.200 307.450 90.300 307.550 90.300 H 313.150 C 313.205 90.300 313.250 90.255 313.250 90.200 V 78.800 C 313.250 78.745 313.205 78.700 313.150 78.700 H 307.550 C 307.450 78.700 307.550 78.800 307.550 78.700 V 67.500 C 307.550 67.400 307.450 67.500 307.550 67.500 H 313.150 C 313.205 67.500 313.250 67.455 313.250 67.400 V 56.000 C 313.250 55.945 313.205 55.900 313.150 55.900 H 307.550 C 307.450 55.900 307.550 56.000 307.550 55.900 V 44.700 C 307.550 44.600 307.450 44.700 307.550 44.700 H 313.150 C 313.205 44.700 313.250 44.655 313.250 44.600 V 33.200 C 313.250 33.145 313.205 33.100 313.150 33.100 H 307.550 C 307.450 33.100 307.550 33.200 307.550 33.100 V 15.800 C 307.550 15.745 307.505 15.700 307.450 15.700 H 289.550 C 289.450 15.700 289.550 15.800 289.550 15.700 V 10.100 C 289.550 10.045 289.505 10.000 289.450 10.000 H 278.050 C 277.995 10.000 277.950 10.045 277.950 10.100 V 15.700 C 277.950 15.800 278.050 15.700 277.950 15.700 H 266.750 C 266.650 15.700 266.750 15.800 266.750 15.700 V 10.100 C 266.750 10.045 266.705 10.000 266.650 10.000 H 255.250 C 255.195 10.000 255.150 10.045 255.150 10.100 V 15.700 C 255.150 15.800 255.250 15.700 255.150 15.700 H 243.950 C 243.850 15.700 243.950 15.800 243.950 15.700 V 10.100 C 243.950 10.045 243.905 10.000 243.850 10.000 H 232.450 C 232.395 10.000 232.350 10.045 232.350 10.100 V 15.700 C 232.350 15.800 232.450 15.700 232.350 15.700 H 221.150 C 221.050 15.700 221.150 15.800 221.150 15.700 V 10.100 C 221.150 10.045 221.105 10.000 221.050 10.000 H 209.650 C 209.595 10.000 209.550 10.045 209.550 10.100 V 15.700 C 209.550 15.800 209.650 15.700 209.550 15.700 H 198.350 C 198.250 15.700 198.350 15.800 198.350 15.700 V 10.100 C 198.350 10.045 198.305 10.000 198.250 10.000 H 186.850 C 186.795 10.000 186.750 10.045 186.750 10.100 V 15.700 C 186.750 15.800 186.850 15.700 186.750 15.700 H 168.850 C 168.795 15.700 168.750 15.745 168.750 15.800 V 33.100 C 168.750 33.200 168.850 33.100 168.750 33.100 H 163.150 C 163.095 33.100 163.050 33.145 163.050 33.200 V 44.600 C 163.050 44.655 163.095 44.700 163.150 44.700 H 168.750 C 168.850 44.700 168.750 44.600 168.750 44.700 V 55.900 C 168.750 56.000 168.850 55.900 168.750 55.900 H 163.150 C 163.095 55.900 163.050 55.945 163.050 56.000 V 67.400 C 163.050 67.455 163.095 67.500 163.150 67.500 H 168.750 C 168.850 67.500 168.750 67.400 168.750 67.500 V 78.700 C 168.750 78.800 168.850 78.700 168.750 78.700 H 163.150 C 163.095 78.700 163.050 78.745 163.050 78.800 V 90.200 C 163.050 90.255 163.095 90.300 163.150 90.300 H 168.750 C 168.850 90.300 168.750 90.200 168.750 90.300 V 101.500 C 168.750 101.600 168.850 101.500 168.750 101.500 H 163.150 C 163.095 101.500 163.050 101.545 163.050 101.600 V 113.000 C 163.050 113.055 163.095 113.100 163.150 113.100 H 168.750 C 168.850 113.100 168.750 113.000 168.750 113.100 V 124.300 C 168.750 124.400 168.850 124.300 168.750 124.300 H 163.150 C 163.095 124.300 163.050 124.345 163.050 124.400 V 135.800 C 163.050 135.855 163.095 135.900 163.150 135.900 H 168.750 C 168.850 135.900 168.750 135.800 168.750 135.900 V 147.100 C 168.750 147.200 168.850 147.100 168.750 147.100 H 163.150 C 163.095 147.100 163.050 147.145 163.050 147.200 V 158.600 C 163.050 158.655 163.095 158.700 163.150 158.700 H 168.750 C 168.850 158.700 168.750 158.600 168.750 158.700 V 169.900 C 168.750 170.000 168.850 169.900 168.750 169.900 H 163.150 C 163.095 169.900 163.050 169.945 163.050 170.000 V 181.400 C 163.050 181.455 163.095 181.500 163.150 181.500 H 168.750 C 168.850 181.500 168.750 181.400 168.750 181.500 V 192.700 C 168.750 192.800 168.850 192.700 168.750 192.700 H 163.150 C 163.095 192.700 163.050 192.745 163.050 192.800 V 204.200 C 163.050 204.255 163.095 204.300 163.150 204.300 H 168.750 C 168.850 204.300 168.750 204.200 168.750 204.300 V 215.500 C 168.750 215.600 168.850 215.500 168.750 215.500 H 163.150 C 163.095 215.500 163.050 215.545 163.050 215.600 V 227.000 C 163.050 227.055 163.095 227.100 163.150 227.100 H 168.750 C 168.850 227.100 168.750 227.000 168.750 227.100 V 244.400 C 168.750 244.455 168.795 244.500 168.850 244.500 Z"
       stroke="rgb(0,0,0)"
       stroke-width="0.20"
       id="path26" />
  </g>
  <g
     id="g416"
     transform="translate(0,4.5868286)">
    <path
       style="fill:none;stroke:#1a1a1a;stroke-width:0.26895162"
       d="m 199.74394,303.13995 a 7.8655243,7.8655243 0 0 1 -7.86552,7.86553 7.8655243,7.8655243 0 0 1 -7.86553,-7.86553 7.8655243,7.8655243 0 0 1 7.86553,-7.86552 7.8655243,7.8655243 0 0 1 7.86552,7.86552 z"
       id="path30" />
    <path
       style="fill:none;stroke:#1a1a1a;stroke-width:0.26895162"
       d="m 229.22757,303.13995 a 7.8655243,7.8655243 0 0 1 -7.86552,7.86553 7.8655243,7.8655243 0 0 1 -7.86553,-7.86553 7.8655243,7.8655243 0 0 1 7.86553,-7.86552 7.8655243,7.8655243 0 0 1 7.86552,7.86552 z"
       id="circle41" />
    <path
       style="fill:none;stroke:#1a1a1a;stroke-width:0.26895162"
       d="m 258.71115,303.13995 a 7.8655243,7.8655243 0 0 1 -7.86552,7.86553 7.8655243,7.8655243 0 0 1 -7.86553,-7.86553 7.8655243,7.8655243 0 0 1 7.86553,-7.86552 7.8655243,7.8655243 0 0 1 7.86552,7.86552 z"
       id="circle43" />
    <path
       style="fill:none;stroke:#1a1a1a;stroke-width:0.26895162"
       d="m 199.74394,273.98639 a 7.8655243,7.8655243 0 0 1 -7.86552,7.86552 7.8655243,7.8655243 0 0 1 -7.86553,-7.86552 7.8655243,7.8655243 0 0 1 7.86553,-7.86553 7.8655243,7.8655243 0 0 1 7.86552,7.86553 z"
       id="path30-3" />
    <path
       style="fill:none;stroke:#1a1a1a;stroke-width:0.26895162"
       d="m 229.22757,273.98639 a 7.8655243,7.8655243 0 0 1 -7.86552,7.86552 7.8655243,7.8655243 0 0 1 -7.86553,-7.86552 7.8655243,7.8655243 0 0 1 7.86553,-7.86553 7.8655243,7.8655243 0 0 1 7.86552,7.86553 z"
       id="circle41-6" />
    <path
       style="fill:none;stroke:#1a1a1a;stroke-width:0.26895162"
       d="m 258.71115,273.98639 a 7.8655243,7.8655243 0 0 1 -7.86552,7.86552 7.8655243,7.8655243 0 0 1 -7.86553,-7.86552 7.8655243,7.8655243 0 0 1 7.86553,-7.86553 7.8655243,7.8655243 0 0 1 7.86552,7.86553 z"
       id="circle43-7" />
  </g>
  <g
     id="g431"
     transform="translate(-3.1288503,-17.312972)">
    <g
       aria-label="J1"
       style="font-style:normal;font-variant:normal;font-weight:normal;font-stretch:normal;font-size:10.58333302px;line-height:1.25;font-family:'Google Sans';-inkscape-font-specification:'Google Sans, Normal';font-variant-ligatures:normal;font-variant-caps:normal;font-variant-numeric:normal;font-feature-settings:normal;text-align:start;letter-spacing:0px;word-spacing:0px;writing-mode:lr-tb;text-anchor:start;fill:#000000;fill-opacity:1;stroke:none;stroke-width:0.26458335"
       id="text3826">
      <path
         d="m 180.08498,320.6524 q -0.83608,0 -1.4605,-0.45509 -0.62441,-0.46566 -0.87841,-1.30175 l 0.84666,-0.34925 q 0.381,1.24884 1.49225,1.24884 0.62442,0 0.99484,-0.43392 0.381,-0.43392 0.381,-1.143 v -5.31283 h 0.89958 v 5.23875 q 0,0.79375 -0.29633,1.36525 -0.28575,0.56091 -0.80434,0.85725 -0.508,0.28575 -1.17475,0.28575 z"
         style="font-style:normal;font-variant:normal;font-weight:normal;font-stretch:normal;font-size:10.58333302px;font-family:'Google Sans';-inkscape-font-specification:'Google Sans, Normal';font-variant-ligatures:normal;font-variant-caps:normal;font-variant-numeric:normal;font-feature-settings:normal;text-align:start;writing-mode:lr-tb;text-anchor:start;stroke-width:0.26458335"
         id="path458" />
      <path
         d="m 185.28454,314.50348 -1.27,0.91017 -0.46566,-0.68792 2.06375,-1.48167 h 0.5715 v 7.239 h -0.89959 z"
         style="font-style:normal;font-variant:normal;font-weight:normal;font-stretch:normal;font-size:10.58333302px;font-family:'Google Sans';-inkscape-font-specification:'Google Sans, Normal';font-variant-ligatures:normal;font-variant-caps:normal;font-variant-numeric:normal;font-feature-settings:normal;text-align:start;writing-mode:lr-tb;text-anchor:start;stroke-width:0.26458335"
         id="path460" />
    </g>
    <g
       aria-label="J2"
       style="font-style:normal;font-variant:normal;font-weight:normal;font-stretch:normal;font-size:10.58333302px;line-height:1.25;font-family:'Google Sans';-inkscape-font-specification:'Google Sans, Normal';font-variant-ligatures:normal;font-variant-caps:normal;font-variant-numeric:normal;font-feature-settings:normal;text-align:start;letter-spacing:0px;word-spacing:0px;writing-mode:lr-tb;text-anchor:start;fill:#000000;fill-opacity:1;stroke:none;stroke-width:0.26458335"
       id="text3826-5">
      <path
         d="m 208.66999,319.64272 q -0.83608,0 -1.4605,-0.45508 -0.62442,-0.46567 -0.87842,-1.30175 l 0.84667,-0.34925 q 0.381,1.24883 1.49225,1.24883 0.62442,0 0.99483,-0.43391 0.381,-0.43392 0.381,-1.143 v -5.31284 h 0.89959 v 5.23875 q 0,0.79375 -0.29634,1.36525 -0.28575,0.56092 -0.80433,0.85725 -0.508,0.28575 -1.17475,0.28575 z"
         style="font-style:normal;font-variant:normal;font-weight:normal;font-stretch:normal;font-size:10.58333302px;font-family:'Google Sans';-inkscape-font-specification:'Google Sans, Normal';font-variant-ligatures:normal;font-variant-caps:normal;font-variant-numeric:normal;font-feature-settings:normal;text-align:start;writing-mode:lr-tb;text-anchor:start;stroke-width:0.26458335"
         id="path463" />
      <path
         d="m 212.13388,318.57381 q 0.32809,-0.32809 1.30175,-1.31234 0.97367,-0.99483 1.35467,-1.40758 0.53975,-0.58208 0.73025,-0.91017 0.1905,-0.32808 0.1905,-0.79375 0,-0.3175 -0.16933,-0.59266 -0.15875,-0.28575 -0.47625,-0.45509 -0.30692,-0.17991 -0.74084,-0.17991 -0.5715,0 -0.92075,0.33866 -0.33866,0.32809 -0.4445,0.71967 l -0.8255,-0.32808 q 0.10584,-0.33867 0.381,-0.6985 0.27517,-0.37042 0.74084,-0.62442 0.46566,-0.26458 1.10066,-0.26458 0.66675,0 1.17475,0.28575 0.51859,0.28575 0.80434,0.762 0.28575,0.47625 0.28575,1.02658 0,1.11125 -1.16417,2.29658 l -2.16958,2.18017 h 3.41841 v 0.85725 h -4.572 z"
         style="font-style:normal;font-variant:normal;font-weight:normal;font-stretch:normal;font-size:10.58333302px;font-family:'Google Sans';-inkscape-font-specification:'Google Sans, Normal';font-variant-ligatures:normal;font-variant-caps:normal;font-variant-numeric:normal;font-feature-settings:normal;text-align:start;writing-mode:lr-tb;text-anchor:start;stroke-width:0.26458335"
         id="path465" />
    </g>
    <g
       aria-label="J3
"
       style="font-style:normal;font-variant:normal;font-weight:normal;font-stretch:normal;font-size:10.58333302px;line-height:1.25;font-family:'Google Sans';-inkscape-font-specification:'Google Sans, Normal';font-variant-ligatures:normal;font-variant-caps:normal;font-variant-numeric:normal;font-feature-settings:normal;text-align:start;letter-spacing:0px;word-spacing:0px;writing-mode:lr-tb;text-anchor:start;fill:#000000;fill-opacity:1;stroke:none;stroke-width:0.26458335"
       id="text3826-5-2">
      <path
         d="m 238.08477,319.67983 q -0.83608,0 -1.4605,-0.45508 -0.62442,-0.46567 -0.87842,-1.30175 l 0.84667,-0.34925 q 0.381,1.24883 1.49225,1.24883 0.62442,0 0.99483,-0.43392 0.381,-0.43391 0.381,-1.143 v -5.31283 h 0.89959 v 5.23875 q 0,0.79375 -0.29634,1.36525 -0.28575,0.56092 -0.80433,0.85725 -0.508,0.28575 -1.17475,0.28575 z"
         style="font-style:normal;font-variant:normal;font-weight:normal;font-stretch:normal;font-size:10.58333302px;font-family:'Google Sans';-inkscape-font-specification:'Google Sans, Normal';font-variant-ligatures:normal;font-variant-caps:normal;font-variant-numeric:normal;font-feature-settings:normal;text-align:start;writing-mode:lr-tb;text-anchor:start;stroke-width:0.26458335"
         id="path468" />
      <path
         d="m 243.83466,319.67983 q -0.45508,0 -0.93133,-0.1905 -0.47625,-0.1905 -0.86783,-0.59267 -0.381,-0.41275 -0.55034,-1.02658 l 0.81492,-0.33867 q 0.16933,0.61384 0.5715,0.9525 0.41275,0.33867 0.96308,0.33867 0.40217,0 0.75142,-0.16933 0.34925,-0.17992 0.55033,-0.48684 0.21167,-0.3175 0.21167,-0.6985 0,-0.37041 -0.21167,-0.67733 -0.20108,-0.30692 -0.56091,-0.47625 -0.34925,-0.17992 -0.77259,-0.17992 h -0.62441 v -0.83608 h 0.56091 q 0.58209,0 0.97367,-0.32808 0.39158,-0.33867 0.39158,-0.889 0,-0.508 -0.381,-0.81492 -0.381,-0.30692 -0.94191,-0.30692 -0.55034,0 -0.86784,0.28575 -0.30691,0.28575 -0.4445,0.6985 l -0.8255,-0.34925 q 0.1905,-0.5715 0.73025,-1.02658 0.55034,-0.46567 1.40759,-0.46567 0.635,0 1.143,0.254 0.508,0.254 0.79375,0.70909 0.29633,0.45508 0.29633,1.016 0,0.56091 -0.28575,0.9525 -0.28575,0.39158 -0.70908,0.61383 v 0.0423 q 0.53975,0.22225 0.889,0.68792 0.34925,0.45508 0.34925,1.0795 0,0.635 -0.32809,1.143 -0.3175,0.508 -0.87841,0.79375 -0.55034,0.28575 -1.21709,0.28575 z"
         style="font-style:normal;font-variant:normal;font-weight:normal;font-stretch:normal;font-size:10.58333302px;font-family:'Google Sans';-inkscape-font-specification:'Google Sans, Normal';font-variant-ligatures:normal;font-variant-caps:normal;font-variant-numeric:normal;font-feature-settings:normal;text-align:start;writing-mode:lr-tb;text-anchor:start;stroke-width:0.26458335"
         id="path470" />
    </g>
    <g
       aria-label="J4"
       style="font-style:normal;font-variant:normal;font-weight:normal;font-stretch:normal;font-size:10.58333302px;line-height:1.25;font-family:'Google Sans';-inkscape-font-specification:'Google Sans, Normal';font-variant-ligatures:normal;font-variant-caps:normal;font-variant-numeric:normal;font-feature-settings:normal;text-align:start;letter-spacing:0px;word-spacing:0px;writing-mode:lr-tb;text-anchor:start;fill:#000000;fill-opacity:1;stroke:none;stroke-width:0.26458335"
       id="text3874">
      <path
         d="m 178.75678,290.36187 q -0.83608,0 -1.4605,-0.45508 -0.62441,-0.46567 -0.87841,-1.30175 l 0.84666,-0.34925 q 0.381,1.24883 1.49225,1.24883 0.62442,0 0.99484,-0.43392 0.381,-0.43391 0.381,-1.143 v -5.31283 h 0.89958 v 5.23875 q 0,0.79375 -0.29633,1.36525 -0.28575,0.56092 -0.80434,0.85725 -0.508,0.28575 -1.17475,0.28575 z"
         style="font-style:normal;font-variant:normal;font-weight:normal;font-stretch:normal;font-size:10.58333302px;font-family:'Google Sans';-inkscape-font-specification:'Google Sans, Normal';font-variant-ligatures:normal;font-variant-caps:normal;font-variant-numeric:normal;font-feature-settings:normal;text-align:start;writing-mode:lr-tb;text-anchor:start;stroke-width:0.26458335"
         id="path473" />
      <path
         d="m 185.69201,288.63679 h -3.47133 v -0.67734 l 3.38666,-5.00591 h 0.97367 v 4.83658 h 0.93133 v 0.84667 h -0.93133 v 1.55575 h -0.889 z m 0,-0.84667 v -3.52425 h -0.0423 l -2.40242,3.52425 z"
         style="font-style:normal;font-variant:normal;font-weight:normal;font-stretch:normal;font-size:10.58333302px;font-family:'Google Sans';-inkscape-font-specification:'Google Sans, Normal';font-variant-ligatures:normal;font-variant-caps:normal;font-variant-numeric:normal;font-feature-settings:normal;text-align:start;writing-mode:lr-tb;text-anchor:start;stroke-width:0.26458335"
         id="path475" />
    </g>
    <g
       aria-label="J5"
       style="font-style:normal;font-variant:normal;font-weight:normal;font-stretch:normal;font-size:10.58333302px;line-height:1.25;font-family:'Google Sans';-inkscape-font-specification:'Google Sans, Normal';font-variant-ligatures:normal;font-variant-caps:normal;font-variant-numeric:normal;font-feature-settings:normal;text-align:start;letter-spacing:0px;word-spacing:0px;writing-mode:lr-tb;text-anchor:start;fill:#000000;fill-opacity:1;stroke:none;stroke-width:0.26458335"
       id="text3874-1">
      <path
         d="m 208.43089,290.38702 q -0.83609,0 -1.4605,-0.45509 -0.62442,-0.46566 -0.87842,-1.30175 l 0.84667,-0.34925 q 0.381,1.24884 1.49225,1.24884 0.62441,0 0.99483,-0.43392 0.381,-0.43392 0.381,-1.143 v -5.31283 h 0.89958 v 5.23875 q 0,0.79375 -0.29633,1.36525 -0.28575,0.56091 -0.80433,0.85725 -0.508,0.28575 -1.17475,0.28575 z"
         style="font-style:normal;font-variant:normal;font-weight:normal;font-stretch:normal;font-size:10.58333302px;font-family:'Google Sans';-inkscape-font-specification:'Google Sans, Normal';font-variant-ligatures:normal;font-variant-caps:normal;font-variant-numeric:normal;font-feature-settings:normal;text-align:start;writing-mode:lr-tb;text-anchor:start;stroke-width:0.26458335"
         id="path478" />
      <path
         d="m 214.31836,290.38702 q -0.508,0 -1.00542,-0.21167 -0.49741,-0.22225 -0.87841,-0.65617 -0.381,-0.4445 -0.53975,-1.09008 l 0.79375,-0.3175 q 0.15875,0.64558 0.58208,1.03717 0.43392,0.381 1.02658,0.381 0.70909,0 1.15359,-0.43392 0.4445,-0.43392 0.4445,-1.13242 0,-0.68791 -0.4445,-1.13241 -0.43392,-0.45509 -1.13242,-0.45509 -0.381,0 -0.71967,0.17992 -0.33866,0.16933 -0.55033,0.47625 l -0.92075,-0.40217 0.47625,-3.65125 h 3.7465 v 0.85725 h -3.00567 l -0.28575,2.19075 0.0423,0.0106 q 0.56091,-0.47625 1.37583,-0.47625 0.62442,0 1.15358,0.30691 0.53975,0.30692 0.85725,0.85725 0.3175,0.55034 0.3175,1.22767 0,0.67733 -0.32808,1.23825 -0.3175,0.55033 -0.889,0.87842 -0.5715,0.3175 -1.27,0.3175 z"
         style="font-style:normal;font-variant:normal;font-weight:normal;font-stretch:normal;font-size:10.58333302px;font-family:'Google Sans';-inkscape-font-specification:'Google Sans, Normal';font-variant-ligatures:normal;font-variant-caps:normal;font-variant-numeric:normal;font-feature-settings:normal;text-align:start;writing-mode:lr-tb;text-anchor:start;stroke-width:0.26458335"
         id="path480" />
    </g>
    <g
       aria-label="J6"
       style="font-style:normal;font-variant:normal;font-weight:normal;font-stretch:normal;font-size:10.58333302px;line-height:1.25;font-family:'Google Sans';-inkscape-font-specification:'Google Sans, Normal';font-variant-ligatures:normal;font-variant-caps:normal;font-variant-numeric:normal;font-feature-settings:normal;text-align:start;letter-spacing:0px;word-spacing:0px;writing-mode:lr-tb;text-anchor:start;fill:#000000;fill-opacity:1;stroke:none;stroke-width:0.26458335"
       id="text3874-1-7">
      <path
         d="m 237.96835,290.50033 q -0.83609,0 -1.4605,-0.45509 -0.62442,-0.46566 -0.87842,-1.30175 l 0.84667,-0.34925 q 0.381,1.24884 1.49225,1.24884 0.62441,0 0.99483,-0.43392 0.381,-0.43392 0.381,-1.143 v -5.31283 h 0.89958 v 5.23875 q 0,0.79375 -0.29633,1.36525 -0.28575,0.56091 -0.80433,0.85725 -0.508,0.28575 -1.17475,0.28575 z"
         style="font-style:normal;font-variant:normal;font-weight:normal;font-stretch:normal;font-size:10.58333302px;font-family:'Google Sans';-inkscape-font-specification:'Google Sans, Normal';font-variant-ligatures:normal;font-variant-caps:normal;font-variant-numeric:normal;font-feature-settings:normal;text-align:start;writing-mode:lr-tb;text-anchor:start;stroke-width:0.26458335"
         id="path483" />
      <path
         d="m 243.90874,290.50033 q -0.71967,0 -1.29117,-0.34925 -0.56091,-0.34925 -0.87841,-0.89959 -0.30692,-0.56091 -0.30692,-1.17475 0,-0.58208 0.23283,-1.11125 0.24342,-0.53975 0.68792,-1.19591 l 1.89441,-2.84692 0.71967,0.49742 -1.82033,2.55058 0.0212,0.0212 q 0.35983,-0.254 0.93133,-0.254 0.55033,0 1.0795,0.30691 0.52916,0.30692 0.85725,0.84667 0.33866,0.52917 0.33866,1.18533 0,0.635 -0.33866,1.19592 -0.33867,0.55033 -0.91017,0.889 -0.56092,0.33867 -1.21708,0.33867 z m 0,-0.85725 q 0.42333,0 0.78316,-0.20109 0.35984,-0.21166 0.5715,-0.56091 0.21167,-0.35984 0.21167,-0.79375 0,-0.42334 -0.21167,-0.77259 -0.21166,-0.35983 -0.5715,-0.56091 -0.35983,-0.21167 -0.78316,-0.21167 -0.42334,0 -0.79375,0.21167 -0.35983,0.20108 -0.5715,0.56091 -0.21167,0.34925 -0.21167,0.77259 0,0.43391 0.21167,0.79375 0.21167,0.34925 0.5715,0.56091 0.37041,0.20109 0.79375,0.20109 z"
         style="font-style:normal;font-variant:normal;font-weight:normal;font-stretch:normal;font-size:10.58333302px;font-family:'Google Sans';-inkscape-font-specification:'Google Sans, Normal';font-variant-ligatures:normal;font-variant-caps:normal;font-variant-numeric:normal;font-feature-settings:normal;text-align:start;writing-mode:lr-tb;text-anchor:start;stroke-width:0.26458335"
         id="path485" />
    </g>
  </g>
  <g
     id="g439">
    <path
       style="fill:none;stroke:#1a1a1a;stroke-width:0.26895162"
       d="m 288.86781,293.14999 a 7.8655243,7.8655243 0 0 1 -7.86552,7.86553 7.8655243,7.8655243 0 0 1 -7.86553,-7.86553 7.8655243,7.8655243 0 0 1 7.86553,-7.86552 7.8655243,7.8655243 0 0 1 7.86552,7.86552 z"
       id="circle41-6-3" />
    <g
       aria-label="PWR"
       style="font-style:normal;font-variant:normal;font-weight:normal;font-stretch:normal;font-size:10.58333302px;line-height:1.25;font-family:'Google Sans';-inkscape-font-specification:'Google Sans, Normal';font-variant-ligatures:normal;font-variant-caps:normal;font-variant-numeric:normal;font-feature-settings:normal;text-align:start;letter-spacing:0px;word-spacing:0px;writing-mode:lr-tb;text-anchor:start;fill:#000000;fill-opacity:1;stroke:none;stroke-width:0.26458335"
       id="text3874-1-7-9">
      <path
         d="m 270.68743,302.82944 h 2.55058 q 0.635,0 1.17475,0.28575 0.53975,0.28575 0.85725,0.80433 0.32808,0.508 0.32808,1.15358 0,0.64559 -0.32808,1.16417 -0.3175,0.508 -0.85725,0.79375 -0.53975,0.28575 -1.17475,0.28575 h -1.66158 v 3.09033 h -0.889 z m 2.57175,3.63008 q 0.42333,0 0.74083,-0.20108 0.32808,-0.20109 0.508,-0.51859 0.17992,-0.3175 0.17992,-0.66675 0,-0.34925 -0.17992,-0.66675 -0.17992,-0.3175 -0.508,-0.51858 -0.3175,-0.20108 -0.74083,-0.20108 h -1.68275 v 2.77283 z"
         style="font-style:normal;font-variant:normal;font-weight:normal;font-stretch:normal;font-size:10.58333302px;font-family:'Google Sans';-inkscape-font-specification:'Google Sans, Normal';font-variant-ligatures:normal;font-variant-caps:normal;font-variant-numeric:normal;font-feature-settings:normal;text-align:start;writing-mode:lr-tb;text-anchor:start;stroke-width:0.26458335"
         id="path489" />
      <path
         d="m 276.11849,302.82944 h 0.99484 l 1.37583,5.56683 0.127,0.51858 h 0.0423 l 0.15875,-0.51858 1.69334,-5.56683 h 0.93133 l 1.61925,5.56683 0.15875,0.51858 h 0.0423 l 1.49225,-6.08541 h 0.99484 l -2.04259,7.57766 h -0.93133 l -1.60867,-5.48216 -0.16933,-0.59267 h -0.0423 l -0.17992,0.59267 -1.67217,5.48216 h -0.93133 z"
         style="font-style:normal;font-variant:normal;font-weight:normal;font-stretch:normal;font-size:10.58333302px;font-family:'Google Sans';-inkscape-font-specification:'Google Sans, Normal';font-variant-ligatures:normal;font-variant-caps:normal;font-variant-numeric:normal;font-feature-settings:normal;text-align:start;writing-mode:lr-tb;text-anchor:start;stroke-width:0.26458335"
         id="path491" />
      <path
         d="m 286.76913,302.82944 h 2.56117 q 0.62441,0 1.16416,0.28575 0.53975,0.28575 0.85725,0.80433 0.32809,0.508 0.32809,1.15358 0,0.52917 -0.24342,0.98425 -0.23283,0.45509 -0.65617,0.762 -0.41275,0.30692 -0.92075,0.41275 l -0.0212,0.0317 2.13783,3.10092 v 0.0423 h -1.05833 l -2.06375,-3.09033 h -1.19592 v 3.09033 h -0.889 z m 2.50825,3.65125 q 0.39158,0 0.73025,-0.17992 0.34925,-0.17992 0.55033,-0.49742 0.21167,-0.32808 0.21167,-0.73025 0,-0.34925 -0.17992,-0.66675 -0.17991,-0.3175 -0.508,-0.51858 -0.3175,-0.20108 -0.74083,-0.20108 h -1.68275 v 2.794 z"
         style="font-style:normal;font-variant:normal;font-weight:normal;font-stretch:normal;font-size:10.58333302px;font-family:'Google Sans';-inkscape-font-specification:'Google Sans, Normal';font-variant-ligatures:normal;font-variant-caps:normal;font-variant-numeric:normal;font-feature-settings:normal;text-align:start;writing-mode:lr-tb;text-anchor:start;stroke-width:0.26458335"
         id="path493" />
    </g>
  </g>
  <g
     id="g389"
     transform="translate(0,3.8058385)">
    <g
       transform="rotate(90,217.55003,401.24419)"
       id="g3791">
      <path
         style="fill:none;stroke:#1a1a1a;stroke-width:0.19160359"
         d="m 97.645798,240.09581 h 16.008392 v 16.0084 H 97.645798 Z"
         id="rect3769" />
      <path
         style="fill:none;stroke:#1a1a1a;stroke-width:0.26129651"
         d="M 93.869352,248.10001 A 1.8693517,1.8693517 0 0 1 92,249.96936 1.8693517,1.8693517 0 0 1 90.130648,248.10001 1.8693517,1.8693517 0 0 1 92,246.23065 a 1.8693517,1.8693517 0 0 1 1.869352,1.86936 z"
         id="path3771" />
      <path
         style="fill:none;stroke:#1a1a1a;stroke-width:0.26129651"
         d="m 121.16935,248.10001 a 1.8693517,1.8693517 0 0 1 -1.86935,1.86935 1.8693517,1.8693517 0 0 1 -1.86935,-1.86935 1.8693517,1.8693517 0 0 1 1.86935,-1.86936 1.8693517,1.8693517 0 0 1 1.86935,1.86936 z"
         id="path3771-5" />
    </g>
    <g
       id="g3799"
       transform="rotate(90,202.80822,386.50238)">
      <path
         style="fill:none;stroke:#1a1a1a;stroke-width:0.19160359"
         d="m 97.645798,240.09581 h 16.008392 v 16.0084 H 97.645798 Z"
         id="rect3793" />
      <path
         style="fill:none;stroke:#1a1a1a;stroke-width:0.26129651"
         d="M 93.869352,248.10001 A 1.8693517,1.8693517 0 0 1 92,249.96936 1.8693517,1.8693517 0 0 1 90.130648,248.10001 1.8693517,1.8693517 0 0 1 92,246.23065 a 1.8693517,1.8693517 0 0 1 1.869352,1.86936 z"
         id="circle3795" />
      <path
         style="fill:none;stroke:#1a1a1a;stroke-width:0.26129651"
         d="m 121.16935,248.10001 a 1.8693517,1.8693517 0 0 1 -1.86935,1.86935 1.8693517,1.8693517 0 0 1 -1.86935,-1.86935 1.8693517,1.8693517 0 0 1 1.86935,-1.86936 1.8693517,1.8693517 0 0 1 1.86935,1.86936 z"
         id="circle3797" />
    </g>
    <g
       transform="rotate(90,188.06643,371.76059)"
       id="g3807">
      <path
         style="fill:none;stroke:#1a1a1a;stroke-width:0.19160359"
         d="m 97.645798,240.09581 h 16.008392 v 16.0084 H 97.645798 Z"
         id="rect3801" />
      <path
         style="fill:none;stroke:#1a1a1a;stroke-width:0.26129651"
         d="M 93.869352,248.10001 A 1.8693517,1.8693517 0 0 1 92,249.96936 1.8693517,1.8693517 0 0 1 90.130648,248.10001 1.8693517,1.8693517 0 0 1 92,246.23065 a 1.8693517,1.8693517 0 0 1 1.869352,1.86936 z"
         id="circle3803" />
      <path
         style="fill:none;stroke:#1a1a1a;stroke-width:0.26129651"
         d="m 121.16935,248.10001 a 1.8693517,1.8693517 0 0 1 -1.86935,1.86935 1.8693517,1.8693517 0 0 1 -1.86935,-1.86935 1.8693517,1.8693517 0 0 1 1.86935,-1.86936 1.8693517,1.8693517 0 0 1 1.86935,1.86936 z"
         id="circle3805" />
    </g>
  </g>
  <g
     id="g375"
     transform="translate(12.098221,-1.7730152)">
    <g
       aria-label="RJ1"
       style="font-style:normal;font-variant:normal;font-weight:normal;font-stretch:normal;font-size:8.46666718px;line-height:1.25;font-family:'Google Sans';-inkscape-font-specification:'Google Sans, Normal';font-variant-ligatures:normal;font-variant-caps:normal;font-variant-numeric:normal;font-feature-settings:normal;text-align:start;letter-spacing:0px;word-spacing:0px;writing-mode:lr-tb;text-anchor:start;fill:#000000;fill-opacity:1;stroke:none;stroke-width:0.26458335"
       id="text3874-1-7-9-6">
      <path
         d="m 352.65496,267.91376 h 2.04894 q 0.49953,0 0.93133,0.2286 0.4318,0.2286 0.6858,0.64346 0.26247,0.4064 0.26247,0.92287 0,0.42333 -0.19474,0.7874 -0.18626,0.36407 -0.52493,0.6096 -0.3302,0.24553 -0.7366,0.3302 l -0.0169,0.0254 1.71026,2.48073 v 0.0339 h -0.84666 l -1.651,-2.47227 h -0.95674 v 2.47227 h -0.7112 z m 2.0066,2.921 q 0.31327,0 0.5842,-0.14394 0.2794,-0.14393 0.44027,-0.39793 0.16933,-0.26247 0.16933,-0.5842 0,-0.2794 -0.14393,-0.5334 -0.14393,-0.254 -0.4064,-0.41487 -0.254,-0.16086 -0.59267,-0.16086 h -1.3462 v 2.2352 z"
         style="font-style:normal;font-variant:normal;font-weight:normal;font-stretch:normal;font-size:8.46666718px;font-family:'Google Sans';-inkscape-font-specification:'Google Sans, Normal';font-variant-ligatures:normal;font-variant-caps:normal;font-variant-numeric:normal;font-feature-settings:normal;text-align:start;writing-mode:lr-tb;text-anchor:start;stroke-width:0.26458335"
         id="path505" />
      <path
         d="m 358.94715,274.11136 q -0.66886,0 -1.1684,-0.36407 -0.49953,-0.37253 -0.70273,-1.0414 l 0.67733,-0.2794 q 0.3048,0.99907 1.1938,0.99907 0.49954,0 0.79587,-0.34714 0.3048,-0.34713 0.3048,-0.9144 v -4.25026 h 0.71967 v 4.191 q 0,0.635 -0.23707,1.0922 -0.2286,0.44873 -0.64347,0.6858 -0.4064,0.2286 -0.9398,0.2286 z"
         style="font-style:normal;font-variant:normal;font-weight:normal;font-stretch:normal;font-size:8.46666718px;font-family:'Google Sans';-inkscape-font-specification:'Google Sans, Normal';font-variant-ligatures:normal;font-variant-caps:normal;font-variant-numeric:normal;font-feature-settings:normal;text-align:start;writing-mode:lr-tb;text-anchor:start;stroke-width:0.26458335"
         id="path507" />
      <path
         d="m 363.1068,269.19222 -1.016,0.72814 -0.37253,-0.55034 1.651,-1.18533 h 0.4572 v 5.7912 h -0.71967 z"
         style="font-style:normal;font-variant:normal;font-weight:normal;font-stretch:normal;font-size:8.46666718px;font-family:'Google Sans';-inkscape-font-specification:'Google Sans, Normal';font-variant-ligatures:normal;font-variant-caps:normal;font-variant-numeric:normal;font-feature-settings:normal;text-align:start;writing-mode:lr-tb;text-anchor:start;stroke-width:0.26458335"
         id="path509" />
    </g>
    <g
       aria-label="RJ2"
       style="font-style:normal;font-variant:normal;font-weight:normal;font-stretch:normal;font-size:8.46666718px;line-height:1.25;font-family:'Google Sans';-inkscape-font-specification:'Google Sans, Normal';font-variant-ligatures:normal;font-variant-caps:normal;font-variant-numeric:normal;font-feature-settings:normal;text-align:start;letter-spacing:0px;word-spacing:0px;writing-mode:lr-tb;text-anchor:start;fill:#000000;fill-opacity:1;stroke:none;stroke-width:0.26458335"
       id="text3874-1-7-9-6-6">
      <path
         d="m 322.32684,268.72983 h 2.04893 q 0.49954,0 0.93134,0.2286 0.4318,0.2286 0.6858,0.64346 0.26246,0.4064 0.26246,0.92287 0,0.42333 -0.19473,0.7874 -0.18627,0.36407 -0.52493,0.6096 -0.3302,0.24553 -0.7366,0.3302 l -0.0169,0.0254 1.71027,2.48074 v 0.0339 h -0.84667 l -1.651,-2.47227 h -0.95673 v 2.47227 h -0.7112 z m 2.0066,2.921 q 0.31327,0 0.5842,-0.14394 0.2794,-0.14393 0.44027,-0.39793 0.16933,-0.26247 0.16933,-0.5842 0,-0.2794 -0.14393,-0.5334 -0.14394,-0.254 -0.4064,-0.41487 -0.254,-0.16086 -0.59267,-0.16086 h -1.3462 v 2.2352 z"
         style="font-style:normal;font-variant:normal;font-weight:normal;font-stretch:normal;font-size:8.46666718px;font-family:'Google Sans';-inkscape-font-specification:'Google Sans, Normal';font-variant-ligatures:normal;font-variant-caps:normal;font-variant-numeric:normal;font-feature-settings:normal;text-align:start;writing-mode:lr-tb;text-anchor:start;stroke-width:0.26458335"
         id="path512" />
      <path
         d="m 328.61903,274.92743 q -0.66887,0 -1.1684,-0.36407 -0.49954,-0.37253 -0.70274,-1.0414 l 0.67734,-0.2794 q 0.3048,0.99907 1.1938,0.99907 0.49953,0 0.79586,-0.34714 0.3048,-0.34713 0.3048,-0.9144 v -4.25026 h 0.71967 v 4.191 q 0,0.635 -0.23707,1.0922 -0.2286,0.44873 -0.64346,0.6858 -0.4064,0.2286 -0.9398,0.2286 z"
         style="font-style:normal;font-variant:normal;font-weight:normal;font-stretch:normal;font-size:8.46666718px;font-family:'Google Sans';-inkscape-font-specification:'Google Sans, Normal';font-variant-ligatures:normal;font-variant-caps:normal;font-variant-numeric:normal;font-feature-settings:normal;text-align:start;writing-mode:lr-tb;text-anchor:start;stroke-width:0.26458335"
         id="path514" />
      <path
         d="m 331.39014,274.07229 q 0.26247,-0.26246 1.0414,-1.04986 0.77894,-0.79587 1.08374,-1.12607 0.4318,-0.46567 0.5842,-0.72813 0.1524,-0.26247 0.1524,-0.635 0,-0.254 -0.13547,-0.47414 -0.127,-0.2286 -0.381,-0.36406 -0.24553,-0.14394 -0.59267,-0.14394 -0.4572,0 -0.7366,0.27094 -0.27093,0.26246 -0.3556,0.57573 l -0.6604,-0.26247 q 0.0847,-0.27093 0.3048,-0.5588 0.22014,-0.29633 0.59267,-0.49953 0.37253,-0.21167 0.88053,-0.21167 0.5334,0 0.9398,0.2286 0.41487,0.2286 0.64347,0.6096 0.2286,0.381 0.2286,0.82127 0,0.889 -0.93133,1.83727 l -1.73567,1.74413 h 2.73473 v 0.6858 h -3.6576 z"
         style="font-style:normal;font-variant:normal;font-weight:normal;font-stretch:normal;font-size:8.46666718px;font-family:'Google Sans';-inkscape-font-specification:'Google Sans, Normal';font-variant-ligatures:normal;font-variant-caps:normal;font-variant-numeric:normal;font-feature-settings:normal;text-align:start;writing-mode:lr-tb;text-anchor:start;stroke-width:0.26458335"
         id="path516" />
    </g>
    <g
       aria-label="RJ3"
       style="font-style:normal;font-variant:normal;font-weight:normal;font-stretch:normal;font-size:8.46666718px;line-height:1.25;font-family:'Google Sans';-inkscape-font-specification:'Google Sans, Normal';font-variant-ligatures:normal;font-variant-caps:normal;font-variant-numeric:normal;font-feature-settings:normal;text-align:start;letter-spacing:0px;word-spacing:0px;writing-mode:lr-tb;text-anchor:start;fill:#000000;fill-opacity:1;stroke:none;stroke-width:0.26458335"
       id="text3874-1-7-9-6-6-6">
      <path
         d="m 292.78823,268.67889 h 2.04894 q 0.49953,0 0.93133,0.2286 0.4318,0.2286 0.6858,0.64347 0.26247,0.4064 0.26247,0.92287 0,0.42333 -0.19474,0.7874 -0.18626,0.36406 -0.52493,0.6096 -0.3302,0.24553 -0.7366,0.3302 l -0.0169,0.0254 1.71026,2.48073 v 0.0339 h -0.84666 l -1.651,-2.47227 h -0.95674 v 2.47227 h -0.7112 z m 2.0066,2.921 q 0.31327,0 0.5842,-0.14393 0.2794,-0.14393 0.44027,-0.39793 0.16933,-0.26247 0.16933,-0.5842 0,-0.2794 -0.14393,-0.5334 -0.14393,-0.254 -0.4064,-0.41487 -0.254,-0.16087 -0.59267,-0.16087 h -1.3462 v 2.2352 z"
         style="font-style:normal;font-variant:normal;font-weight:normal;font-stretch:normal;font-size:8.46666718px;font-family:'Google Sans';-inkscape-font-specification:'Google Sans, Normal';font-variant-ligatures:normal;font-variant-caps:normal;font-variant-numeric:normal;font-feature-settings:normal;text-align:start;writing-mode:lr-tb;text-anchor:start;stroke-width:0.26458335"
         id="path519" />
      <path
         d="m 299.08042,274.87649 q -0.66886,0 -1.1684,-0.36406 -0.49953,-0.37254 -0.70273,-1.0414 l 0.67733,-0.2794 q 0.3048,0.99906 1.1938,0.99906 0.49954,0 0.79587,-0.34713 0.3048,-0.34713 0.3048,-0.9144 v -4.25027 h 0.71967 v 4.191 q 0,0.635 -0.23707,1.0922 -0.2286,0.44874 -0.64347,0.6858 -0.4064,0.2286 -0.9398,0.2286 z"
         style="font-style:normal;font-variant:normal;font-weight:normal;font-stretch:normal;font-size:8.46666718px;font-family:'Google Sans';-inkscape-font-specification:'Google Sans, Normal';font-variant-ligatures:normal;font-variant-caps:normal;font-variant-numeric:normal;font-feature-settings:normal;text-align:start;writing-mode:lr-tb;text-anchor:start;stroke-width:0.26458335"
         id="path521" />
      <path
         d="m 303.68034,274.87649 q -0.36407,0 -0.74507,-0.1524 -0.381,-0.1524 -0.69427,-0.47413 -0.3048,-0.3302 -0.44026,-0.82127 l 0.65193,-0.27093 q 0.13547,0.49107 0.4572,0.762 0.3302,0.27093 0.77047,0.27093 0.32173,0 0.60113,-0.13546 0.2794,-0.14394 0.44027,-0.38947 0.16933,-0.254 0.16933,-0.5588 0,-0.29633 -0.16933,-0.54187 -0.16087,-0.24553 -0.44874,-0.381 -0.2794,-0.14393 -0.61806,-0.14393 h -0.49954 v -0.66887 h 0.44874 q 0.46566,0 0.77893,-0.26246 0.31327,-0.27094 0.31327,-0.7112 0,-0.4064 -0.3048,-0.65194 -0.3048,-0.24553 -0.75354,-0.24553 -0.44026,0 -0.69426,0.2286 -0.24554,0.2286 -0.3556,0.5588 l -0.6604,-0.2794 q 0.1524,-0.4572 0.5842,-0.82127 0.44026,-0.37253 1.12606,-0.37253 0.508,0 0.9144,0.2032 0.4064,0.2032 0.635,0.56727 0.23707,0.36406 0.23707,0.8128 0,0.44873 -0.2286,0.762 -0.2286,0.31326 -0.56727,0.49106 v 0.0339 q 0.4318,0.1778 0.7112,0.55033 0.2794,0.36407 0.2794,0.8636 0,0.508 -0.26246,0.9144 -0.254,0.4064 -0.70274,0.635 -0.44026,0.2286 -0.97366,0.2286 z"
         style="font-style:normal;font-variant:normal;font-weight:normal;font-stretch:normal;font-size:8.46666718px;font-family:'Google Sans';-inkscape-font-specification:'Google Sans, Normal';font-variant-ligatures:normal;font-variant-caps:normal;font-variant-numeric:normal;font-feature-settings:normal;text-align:start;writing-mode:lr-tb;text-anchor:start;stroke-width:0.26458335"
         id="path523" />
    </g>
  </g>
  <g
     id="g303"
     transform="translate(6.1786865,-1.4231079)">
    <path
       style="fill:none;stroke:#1a1a1a;stroke-width:0.19722109"
       d="m 256.3727,377.62311 a 14.40139,14.40139 0 0 1 -14.40139,14.40139 14.40139,14.40139 0 0 1 -14.40139,-14.40139 14.40139,14.40139 0 0 1 14.40139,-14.40139 14.40139,14.40139 0 0 1 14.40139,14.40139 z"
       id="path59" />
    <path
       style="fill:none;stroke:#1a1a1a;stroke-width:0.19722109"
       d="m 326.3727,377.62311 a 14.40139,14.40139 0 0 1 -14.40139,14.40139 14.40139,14.40139 0 0 1 -14.40139,-14.40139 14.40139,14.40139 0 0 1 14.40139,-14.40139 14.40139,14.40139 0 0 1 14.40139,14.40139 z"
       id="circle61" />
  </g>
</svg>
