<?xml version="1.0" encoding="UTF-8" standalone="no"?>
<svg
   xmlns:dc="http://purl.org/dc/elements/1.1/"
   xmlns:cc="http://creativecommons.org/ns#"
   xmlns:rdf="http://www.w3.org/1999/02/22-rdf-syntax-ns#"
   xmlns:svg="http://www.w3.org/2000/svg"
   xmlns="http://www.w3.org/2000/svg"
   xmlns:sodipodi="http://sodipodi.sourceforge.net/DTD/sodipodi-0.dtd"
   xmlns:inkscape="http://www.inkscape.org/namespaces/inkscape"
   height="430.10mm"
   viewBox="0.0 0.0 377.55 430.10"
   width="377.55mm"
   version="1.1"
   id="svg24"
   sodipodi:docname="ar3_base_box.svg"
   inkscape:version="0.92.4 (5da689c313, 2019-01-14)">
  <defs
     id="defs28" />
  <sodipodi:namedview
     pagecolor="#ffffff"
     bordercolor="#666666"
     borderopacity="1"
     objecttolerance="10"
     gridtolerance="10"
     guidetolerance="10"
     inkscape:pageopacity="0"
     inkscape:pageshadow="2"
     inkscape:window-width="2999"
     inkscape:window-height="1927"
     id="namedview26"
     showgrid="false"
     inkscape:zoom="4.0535968"
     inkscape:cx="312.55374"
     inkscape:cy="616.71698"
     inkscape:window-x="1"
     inkscape:window-y="37"
     inkscape:window-maximized="1"
     inkscape:current-layer="svg24" />
  <!--
ClosedBox - Fully closed box

Created with Boxes.py (https://festi.info/boxes.py)
Creation date: 2020-12-23 20:42:20
Command line (remove spaces between dashes): boxes ClosedBox - -FingerJoint_angle=90.0 - -FingerJoint_style=rectangular - -FingerJoint_surroundingspaces=2.0 - -FingerJoint_edge_width=1.0 - -FingerJoint_finger=2.0 - -FingerJoint_play=0.0 - -FingerJoint_space=2.0 - -FingerJoint_width=1.0 - -x=152.4 - -y=203.2 - -h=101.6 - -outside=0 - -outside=1 - -thickness=3.1 - -format=svg - -tabs=0.0 - -debug=0 - -reference=0 - -burn=0.1
Url: http://www.festi.info/ClosedBox?FingerJoint_angle=90.0&FingerJoint_style=rectangular&FingerJoint_surroundingspaces=2.0&FingerJoint_edge_width=1.0&FingerJoint_finger=2.0&FingerJoint_play=0.0&FingerJoint_space=2.0&FingerJoint_width=1.0&x=152.4&y=203.2&h=101.6&outside=0&outside=1&thickness=3.1&format=svg&tabs=0.0&debug=0&reference=0&burn=0.1&render=1
SettingsUrl: http://www.festi.info/ClosedBox?FingerJoint_angle=90.0&FingerJoint_style=rectangular&FingerJoint_surroundingspaces=2.0&FingerJoint_edge_width=1.0&FingerJoint_finger=2.0&FingerJoint_play=0.0&FingerJoint_space=2.0&FingerJoint_width=1.0&x=152.4&y=203.2&h=101.6&outside=0&outside=1&thickness=3.1&format=svg&tabs=0.0&debug=0&reference=0&burn=0.1
-->
  <title
     id="title2">ClosedBox</title>
  <metadata
     id="metadata4">
    <rdf:RDF>
      <cc:Work>
        <dc:title>Box - ClosedBox</dc:title>
        <dc:date>2020-12-23 20:42:20</dc:date>
        <dc:source>http://www.festi.info/ClosedBox?FingerJoint_angle=90.0&amp;FingerJoint_style=rectangular&amp;FingerJoint_surroundingspaces=2.0&amp;FingerJoint_edge_width=1.0&amp;FingerJoint_finger=2.0&amp;FingerJoint_play=0.0&amp;FingerJoint_space=2.0&amp;FingerJoint_width=1.0&amp;x=152.4&amp;y=203.2&amp;h=101.6&amp;outside=0&amp;outside=1&amp;thickness=3.1&amp;format=svg&amp;tabs=0.0&amp;debug=0&amp;reference=0&amp;burn=0.1&amp;render=1</dc:source>
        <dc:description>Fully closed box

Created with Boxes.py (https://festi.info/boxes.py)
Command line: boxes ClosedBox --FingerJoint_angle=90.0 --FingerJoint_style=rectangular --FingerJoint_surroundingspaces=2.0 --FingerJoint_edge_width=1.0 --FingerJoint_finger=2.0 --FingerJoint_play=0.0 --FingerJoint_space=2.0 --FingerJoint_width=1.0 --x=152.4 --y=203.2 --h=101.6 --outside=0 --outside=1 --thickness=3.1 --format=svg --tabs=0.0 --debug=0 --reference=0 --burn=0.1
Url: http://www.festi.info/ClosedBox?FingerJoint_angle=90.0&amp;FingerJoint_style=rectangular&amp;FingerJoint_surroundingspaces=2.0&amp;FingerJoint_edge_width=1.0&amp;FingerJoint_finger=2.0&amp;FingerJoint_play=0.0&amp;FingerJoint_space=2.0&amp;FingerJoint_width=1.0&amp;x=152.4&amp;y=203.2&amp;h=101.6&amp;outside=0&amp;outside=1&amp;thickness=3.1&amp;format=svg&amp;tabs=0.0&amp;debug=0&amp;reference=0&amp;burn=0.1&amp;render=1
SettingsUrl: http://www.festi.info/ClosedBox?FingerJoint_angle=90.0&amp;FingerJoint_style=rectangular&amp;FingerJoint_surroundingspaces=2.0&amp;FingerJoint_edge_width=1.0&amp;FingerJoint_finger=2.0&amp;FingerJoint_play=0.0&amp;FingerJoint_space=2.0&amp;FingerJoint_width=1.0&amp;x=152.4&amp;y=203.2&amp;h=101.6&amp;outside=0&amp;outside=1&amp;thickness=3.1&amp;format=svg&amp;tabs=0.0&amp;debug=0&amp;reference=0&amp;burn=0.1
</dc:description>
        <dc:format>image/svg+xml</dc:format>
        <dc:type
           rdf:resource="http://purl.org/dc/dcmitype/StillImage" />
      </cc:Work>
    </rdf:RDF>
  </metadata>
  <g
     id="p-0"
     style="fill:none;stroke-linecap:round;stroke-linejoin:round;">
    <path
       d="M 13.200 420.100 H 21.200 C 21.255 420.100 21.300 420.055 21.300 420.000 V 417.000 C 21.300 416.900 21.200 417.000 21.300 417.000 H 27.300 C 27.400 417.000 27.300 416.900 27.300 417.000 V 420.000 C 27.300 420.055 27.345 420.100 27.400 420.100 H 33.600 C 33.655 420.100 33.700 420.055 33.700 420.000 V 417.000 C 33.700 416.900 33.600 417.000 33.700 417.000 H 39.700 C 39.800 417.000 39.700 416.900 39.700 417.000 V 420.000 C 39.700 420.055 39.745 420.100 39.800 420.100 H 46.000 C 46.055 420.100 46.100 420.055 46.100 420.000 V 417.000 C 46.100 416.900 46.000 417.000 46.100 417.000 H 52.100 C 52.200 417.000 52.100 416.900 52.100 417.000 V 420.000 C 52.100 420.055 52.145 420.100 52.200 420.100 H 58.400 C 58.455 420.100 58.500 420.055 58.500 420.000 V 417.000 C 58.500 416.900 58.400 417.000 58.500 417.000 H 64.500 C 64.600 417.000 64.500 416.900 64.500 417.000 V 420.000 C 64.500 420.055 64.545 420.100 64.600 420.100 H 70.800 C 70.855 420.100 70.900 420.055 70.900 420.000 V 417.000 C 70.900 416.900 70.800 417.000 70.900 417.000 H 76.900 C 77.000 417.000 76.900 416.900 76.900 417.000 V 420.000 C 76.900 420.055 76.945 420.100 77.000 420.100 H 83.200 C 83.255 420.100 83.300 420.055 83.300 420.000 V 417.000 C 83.300 416.900 83.200 417.000 83.300 417.000 H 89.300 C 89.400 417.000 89.300 416.900 89.300 417.000 V 420.000 C 89.300 420.055 89.345 420.100 89.400 420.100 H 95.600 C 95.655 420.100 95.700 420.055 95.700 420.000 V 417.000 C 95.700 416.900 95.600 417.000 95.700 417.000 H 101.700 C 101.800 417.000 101.700 416.900 101.700 417.000 V 420.000 C 101.700 420.055 101.745 420.100 101.800 420.100 H 108.000 C 108.055 420.100 108.100 420.055 108.100 420.000 V 417.000 C 108.100 416.900 108.000 417.000 108.100 417.000 H 114.100 C 114.200 417.000 114.100 416.900 114.100 417.000 V 420.000 C 114.100 420.055 114.145 420.100 114.200 420.100 H 120.400 C 120.455 420.100 120.500 420.055 120.500 420.000 V 417.000 C 120.500 416.900 120.400 417.000 120.500 417.000 H 126.500 C 126.600 417.000 126.500 416.900 126.500 417.000 V 420.000 C 126.500 420.055 126.545 420.100 126.600 420.100 H 132.800 C 132.855 420.100 132.900 420.055 132.900 420.000 V 417.000 C 132.900 416.900 132.800 417.000 132.900 417.000 H 138.900 C 139.000 417.000 138.900 416.900 138.900 417.000 V 420.000 C 138.900 420.055 138.945 420.100 139.000 420.100 H 145.200 C 145.255 420.100 145.300 420.055 145.300 420.000 V 417.000 C 145.300 416.900 145.200 417.000 145.300 417.000 H 151.300 C 151.400 417.000 151.300 416.900 151.300 417.000 V 420.000 C 151.300 420.055 151.345 420.100 151.400 420.100 H 159.400 H 162.500 C 162.555 420.100 162.600 420.055 162.600 420.000 V 416.900 V 409.500 C 162.600 409.445 162.555 409.400 162.500 409.400 H 159.500 C 159.400 409.400 159.500 409.500 159.500 409.400 V 403.400 C 159.500 403.300 159.400 403.400 159.500 403.400 H 162.500 C 162.555 403.400 162.600 403.355 162.600 403.300 V 397.100 C 162.600 397.045 162.555 397.000 162.500 397.000 H 159.500 C 159.400 397.000 159.500 397.100 159.500 397.000 V 391.000 C 159.500 390.900 159.400 391.000 159.500 391.000 H 162.500 C 162.555 391.000 162.600 390.955 162.600 390.900 V 384.700 C 162.600 384.645 162.555 384.600 162.500 384.600 H 159.500 C 159.400 384.600 159.500 384.700 159.500 384.600 V 378.600 C 159.500 378.500 159.400 378.600 159.500 378.600 H 162.500 C 162.555 378.600 162.600 378.555 162.600 378.500 V 372.300 C 162.600 372.245 162.555 372.200 162.500 372.200 H 159.500 C 159.400 372.200 159.500 372.300 159.500 372.200 V 366.200 C 159.500 366.100 159.400 366.200 159.500 366.200 H 162.500 C 162.555 366.200 162.600 366.155 162.600 366.100 V 359.900 C 162.600 359.845 162.555 359.800 162.500 359.800 H 159.500 C 159.400 359.800 159.500 359.900 159.500 359.800 V 353.800 C 159.500 353.700 159.400 353.800 159.500 353.800 H 162.500 C 162.555 353.800 162.600 353.755 162.600 353.700 V 347.500 C 162.600 347.445 162.555 347.400 162.500 347.400 H 159.500 C 159.400 347.400 159.500 347.500 159.500 347.400 V 341.400 C 159.500 341.300 159.400 341.400 159.500 341.400 H 162.500 C 162.555 341.400 162.600 341.355 162.600 341.300 V 335.100 C 162.600 335.045 162.555 335.000 162.500 335.000 H 159.500 C 159.400 335.000 159.500 335.100 159.500 335.000 V 329.000 C 159.500 328.900 159.400 329.000 159.500 329.000 H 162.500 C 162.555 329.000 162.600 328.955 162.600 328.900 V 321.500 V 318.400 C 162.600 318.345 162.555 318.300 162.500 318.300 H 159.400 H 151.400 C 151.345 318.300 151.300 318.345 151.300 318.400 V 321.400 C 151.300 321.500 151.400 321.400 151.300 321.400 H 145.300 C 145.200 321.400 145.300 321.500 145.300 321.400 V 318.400 C 145.300 318.345 145.255 318.300 145.200 318.300 H 139.000 C 138.945 318.300 138.900 318.345 138.900 318.400 V 321.400 C 138.900 321.500 139.000 321.400 138.900 321.400 H 132.900 C 132.800 321.400 132.900 321.500 132.900 321.400 V 318.400 C 132.900 318.345 132.855 318.300 132.800 318.300 H 126.600 C 126.545 318.300 126.500 318.345 126.500 318.400 V 321.400 C 126.500 321.500 126.600 321.400 126.500 321.400 H 120.500 C 120.400 321.400 120.500 321.500 120.500 321.400 V 318.400 C 120.500 318.345 120.455 318.300 120.400 318.300 H 114.200 C 114.145 318.300 114.100 318.345 114.100 318.400 V 321.400 C 114.100 321.500 114.200 321.400 114.100 321.400 H 108.100 C 108.000 321.400 108.100 321.500 108.100 321.400 V 318.400 C 108.100 318.345 108.055 318.300 108.000 318.300 H 101.800 C 101.745 318.300 101.700 318.345 101.700 318.400 V 321.400 C 101.700 321.500 101.800 321.400 101.700 321.400 H 95.700 C 95.600 321.400 95.700 321.500 95.700 321.400 V 318.400 C 95.700 318.345 95.655 318.300 95.600 318.300 H 89.400 C 89.345 318.300 89.300 318.345 89.300 318.400 V 321.400 C 89.300 321.500 89.400 321.400 89.300 321.400 H 83.300 C 83.200 321.400 83.300 321.500 83.300 321.400 V 318.400 C 83.300 318.345 83.255 318.300 83.200 318.300 H 77.000 C 76.945 318.300 76.900 318.345 76.900 318.400 V 321.400 C 76.900 321.500 77.000 321.400 76.900 321.400 H 70.900 C 70.800 321.400 70.900 321.500 70.900 321.400 V 318.400 C 70.900 318.345 70.855 318.300 70.800 318.300 H 64.600 C 64.545 318.300 64.500 318.345 64.500 318.400 V 321.400 C 64.500 321.500 64.600 321.400 64.500 321.400 H 58.500 C 58.400 321.400 58.500 321.500 58.500 321.400 V 318.400 C 58.500 318.345 58.455 318.300 58.400 318.300 H 52.200 C 52.145 318.300 52.100 318.345 52.100 318.400 V 321.400 C 52.100 321.500 52.200 321.400 52.100 321.400 H 46.100 C 46.000 321.400 46.100 321.500 46.100 321.400 V 318.400 C 46.100 318.345 46.055 318.300 46.000 318.300 H 39.800 C 39.745 318.300 39.700 318.345 39.700 318.400 V 321.400 C 39.700 321.500 39.800 321.400 39.700 321.400 H 33.700 C 33.600 321.400 33.700 321.500 33.700 321.400 V 318.400 C 33.700 318.345 33.655 318.300 33.600 318.300 H 27.400 C 27.345 318.300 27.300 318.345 27.300 318.400 V 321.400 C 27.300 321.500 27.400 321.400 27.300 321.400 H 21.300 C 21.200 321.400 21.300 321.500 21.300 321.400 V 318.400 C 21.300 318.345 21.255 318.300 21.200 318.300 H 13.200 H 10.100 C 10.045 318.300 10.000 318.345 10.000 318.400 V 321.500 V 328.900 C 10.000 328.955 10.045 329.000 10.100 329.000 H 13.100 C 13.200 329.000 13.100 328.900 13.100 329.000 V 335.000 C 13.100 335.100 13.200 335.000 13.100 335.000 H 10.100 C 10.045 335.000 10.000 335.045 10.000 335.100 V 341.300 C 10.000 341.355 10.045 341.400 10.100 341.400 H 13.100 C 13.200 341.400 13.100 341.300 13.100 341.400 V 347.400 C 13.100 347.500 13.200 347.400 13.100 347.400 H 10.100 C 10.045 347.400 10.000 347.445 10.000 347.500 V 353.700 C 10.000 353.755 10.045 353.800 10.100 353.800 H 13.100 C 13.200 353.800 13.100 353.700 13.100 353.800 V 359.800 C 13.100 359.900 13.200 359.800 13.100 359.800 H 10.100 C 10.045 359.800 10.000 359.845 10.000 359.900 V 366.100 C 10.000 366.155 10.045 366.200 10.100 366.200 H 13.100 C 13.200 366.200 13.100 366.100 13.100 366.200 V 372.200 C 13.100 372.300 13.200 372.200 13.100 372.200 H 10.100 C 10.045 372.200 10.000 372.245 10.000 372.300 V 378.500 C 10.000 378.555 10.045 378.600 10.100 378.600 H 13.100 C 13.200 378.600 13.100 378.500 13.100 378.600 V 384.600 C 13.100 384.700 13.200 384.600 13.100 384.600 H 10.100 C 10.045 384.600 10.000 384.645 10.000 384.700 V 390.900 C 10.000 390.955 10.045 391.000 10.100 391.000 H 13.100 C 13.200 391.000 13.100 390.900 13.100 391.000 V 397.000 C 13.100 397.100 13.200 397.000 13.100 397.000 H 10.100 C 10.045 397.000 10.000 397.045 10.000 397.100 V 403.300 C 10.000 403.355 10.045 403.400 10.100 403.400 H 13.100 C 13.200 403.400 13.100 403.300 13.100 403.400 V 409.400 C 13.100 409.500 13.200 409.400 13.100 409.400 H 10.100 C 10.045 409.400 10.000 409.445 10.000 409.500 V 416.900 V 420.000 C 10.000 420.055 10.045 420.100 10.100 420.100 H 13.200 Z"
       id="path6"
       stroke-width="0.20"
       stroke="rgb(0,0,0)" />
  </g>
  <g
     id="p-1"
     style="fill:none;stroke-linecap:round;stroke-linejoin:round;">
    <path
       d="M 167.350 420.100 H 175.950 C 176.005 420.100 176.050 420.055 176.050 420.000 V 417.000 C 176.050 416.900 175.950 417.000 176.050 417.000 H 182.050 C 182.150 417.000 182.050 416.900 182.050 417.000 V 420.000 C 182.050 420.055 182.095 420.100 182.150 420.100 H 188.350 C 188.405 420.100 188.450 420.055 188.450 420.000 V 417.000 C 188.450 416.900 188.350 417.000 188.450 417.000 H 194.450 C 194.550 417.000 194.450 416.900 194.450 417.000 V 420.000 C 194.450 420.055 194.495 420.100 194.550 420.100 H 200.750 C 200.805 420.100 200.850 420.055 200.850 420.000 V 417.000 C 200.850 416.900 200.750 417.000 200.850 417.000 H 206.850 C 206.950 417.000 206.850 416.900 206.850 417.000 V 420.000 C 206.850 420.055 206.895 420.100 206.950 420.100 H 213.150 C 213.205 420.100 213.250 420.055 213.250 420.000 V 417.000 C 213.250 416.900 213.150 417.000 213.250 417.000 H 219.250 C 219.350 417.000 219.250 416.900 219.250 417.000 V 420.000 C 219.250 420.055 219.295 420.100 219.350 420.100 H 225.550 C 225.605 420.100 225.650 420.055 225.650 420.000 V 417.000 C 225.650 416.900 225.550 417.000 225.650 417.000 H 231.650 C 231.750 417.000 231.650 416.900 231.650 417.000 V 420.000 C 231.650 420.055 231.695 420.100 231.750 420.100 H 237.950 C 238.005 420.100 238.050 420.055 238.050 420.000 V 417.000 C 238.050 416.900 237.950 417.000 238.050 417.000 H 244.050 C 244.150 417.000 244.050 416.900 244.050 417.000 V 420.000 C 244.050 420.055 244.095 420.100 244.150 420.100 H 250.350 C 250.405 420.100 250.450 420.055 250.450 420.000 V 417.000 C 250.450 416.900 250.350 417.000 250.450 417.000 H 256.450 C 256.550 417.000 256.450 416.900 256.450 417.000 V 420.000 C 256.450 420.055 256.495 420.100 256.550 420.100 H 262.750 C 262.805 420.100 262.850 420.055 262.850 420.000 V 417.000 C 262.850 416.900 262.750 417.000 262.850 417.000 H 268.850 C 268.950 417.000 268.850 416.900 268.850 417.000 V 420.000 C 268.850 420.055 268.895 420.100 268.950 420.100 H 275.150 C 275.205 420.100 275.250 420.055 275.250 420.000 V 417.000 C 275.250 416.900 275.150 417.000 275.250 417.000 H 281.250 C 281.350 417.000 281.250 416.900 281.250 417.000 V 420.000 C 281.250 420.055 281.295 420.100 281.350 420.100 H 287.550 C 287.605 420.100 287.650 420.055 287.650 420.000 V 417.000 C 287.650 416.900 287.550 417.000 287.650 417.000 H 293.650 C 293.750 417.000 293.650 416.900 293.650 417.000 V 420.000 C 293.650 420.055 293.695 420.100 293.750 420.100 H 299.950 C 300.005 420.100 300.050 420.055 300.050 420.000 V 417.000 C 300.050 416.900 299.950 417.000 300.050 417.000 H 306.050 C 306.150 417.000 306.050 416.900 306.050 417.000 V 420.000 C 306.050 420.055 306.095 420.100 306.150 420.100 H 312.350 C 312.405 420.100 312.450 420.055 312.450 420.000 V 417.000 C 312.450 416.900 312.350 417.000 312.450 417.000 H 318.450 C 318.550 417.000 318.450 416.900 318.450 417.000 V 420.000 C 318.450 420.055 318.495 420.100 318.550 420.100 H 324.750 C 324.805 420.100 324.850 420.055 324.850 420.000 V 417.000 C 324.850 416.900 324.750 417.000 324.850 417.000 H 330.850 C 330.950 417.000 330.850 416.900 330.850 417.000 V 420.000 C 330.850 420.055 330.895 420.100 330.950 420.100 H 337.150 C 337.205 420.100 337.250 420.055 337.250 420.000 V 417.000 C 337.250 416.900 337.150 417.000 337.250 417.000 H 343.250 C 343.350 417.000 343.250 416.900 343.250 417.000 V 420.000 C 343.250 420.055 343.295 420.100 343.350 420.100 H 349.550 C 349.605 420.100 349.650 420.055 349.650 420.000 V 417.000 C 349.650 416.900 349.550 417.000 349.650 417.000 H 355.650 C 355.750 417.000 355.650 416.900 355.650 417.000 V 420.000 C 355.650 420.055 355.695 420.100 355.750 420.100 H 364.350 C 364.405 420.100 364.450 420.055 364.450 420.000 V 416.900 V 409.600 C 364.450 409.500 364.350 409.600 364.450 409.600 H 367.450 C 367.505 409.600 367.550 409.555 367.550 409.500 V 403.300 C 367.550 403.245 367.505 403.200 367.450 403.200 H 364.450 C 364.350 403.200 364.450 403.300 364.450 403.200 V 397.200 C 364.450 397.100 364.350 397.200 364.450 397.200 H 367.450 C 367.505 397.200 367.550 397.155 367.550 397.100 V 390.900 C 367.550 390.845 367.505 390.800 367.450 390.800 H 364.450 C 364.350 390.800 364.450 390.900 364.450 390.800 V 384.800 C 364.450 384.700 364.350 384.800 364.450 384.800 H 367.450 C 367.505 384.800 367.550 384.755 367.550 384.700 V 378.500 C 367.550 378.445 367.505 378.400 367.450 378.400 H 364.450 C 364.350 378.400 364.450 378.500 364.450 378.400 V 372.400 C 364.450 372.300 364.350 372.400 364.450 372.400 H 367.450 C 367.505 372.400 367.550 372.355 367.550 372.300 V 366.100 C 367.550 366.045 367.505 366.000 367.450 366.000 H 364.450 C 364.350 366.000 364.450 366.100 364.450 366.000 V 360.000 C 364.450 359.900 364.350 360.000 364.450 360.000 H 367.450 C 367.505 360.000 367.550 359.955 367.550 359.900 V 353.700 C 367.550 353.645 367.505 353.600 367.450 353.600 H 364.450 C 364.350 353.600 364.450 353.700 364.450 353.600 V 347.600 C 364.450 347.500 364.350 347.600 364.450 347.600 H 367.450 C 367.505 347.600 367.550 347.555 367.550 347.500 V 341.300 C 367.550 341.245 367.505 341.200 367.450 341.200 H 364.450 C 364.350 341.200 364.450 341.300 364.450 341.200 V 335.200 C 364.450 335.100 364.350 335.200 364.450 335.200 H 367.450 C 367.505 335.200 367.550 335.155 367.550 335.100 V 328.900 C 367.550 328.845 367.505 328.800 367.450 328.800 H 364.450 C 364.350 328.800 364.450 328.900 364.450 328.800 V 321.500 V 318.400 C 364.450 318.345 364.405 318.300 364.350 318.300 H 355.750 C 355.695 318.300 355.650 318.345 355.650 318.400 V 321.400 C 355.650 321.500 355.750 321.400 355.650 321.400 H 349.650 C 349.550 321.400 349.650 321.500 349.650 321.400 V 318.400 C 349.650 318.345 349.605 318.300 349.550 318.300 H 343.350 C 343.295 318.300 343.250 318.345 343.250 318.400 V 321.400 C 343.250 321.500 343.350 321.400 343.250 321.400 H 337.250 C 337.150 321.400 337.250 321.500 337.250 321.400 V 318.400 C 337.250 318.345 337.205 318.300 337.150 318.300 H 330.950 C 330.895 318.300 330.850 318.345 330.850 318.400 V 321.400 C 330.850 321.500 330.950 321.400 330.850 321.400 H 324.850 C 324.750 321.400 324.850 321.500 324.850 321.400 V 318.400 C 324.850 318.345 324.805 318.300 324.750 318.300 H 318.550 C 318.495 318.300 318.450 318.345 318.450 318.400 V 321.400 C 318.450 321.500 318.550 321.400 318.450 321.400 H 312.450 C 312.350 321.400 312.450 321.500 312.450 321.400 V 318.400 C 312.450 318.345 312.405 318.300 312.350 318.300 H 306.150 C 306.095 318.300 306.050 318.345 306.050 318.400 V 321.400 C 306.050 321.500 306.150 321.400 306.050 321.400 H 300.050 C 299.950 321.400 300.050 321.500 300.050 321.400 V 318.400 C 300.050 318.345 300.005 318.300 299.950 318.300 H 293.750 C 293.695 318.300 293.650 318.345 293.650 318.400 V 321.400 C 293.650 321.500 293.750 321.400 293.650 321.400 H 287.650 C 287.550 321.400 287.650 321.500 287.650 321.400 V 318.400 C 287.650 318.345 287.605 318.300 287.550 318.300 H 281.350 C 281.295 318.300 281.250 318.345 281.250 318.400 V 321.400 C 281.250 321.500 281.350 321.400 281.250 321.400 H 275.250 C 275.150 321.400 275.250 321.500 275.250 321.400 V 318.400 C 275.250 318.345 275.205 318.300 275.150 318.300 H 268.950 C 268.895 318.300 268.850 318.345 268.850 318.400 V 321.400 C 268.850 321.500 268.950 321.400 268.850 321.400 H 262.850 C 262.750 321.400 262.850 321.500 262.850 321.400 V 318.400 C 262.850 318.345 262.805 318.300 262.750 318.300 H 256.550 C 256.495 318.300 256.450 318.345 256.450 318.400 V 321.400 C 256.450 321.500 256.550 321.400 256.450 321.400 H 250.450 C 250.350 321.400 250.450 321.500 250.450 321.400 V 318.400 C 250.450 318.345 250.405 318.300 250.350 318.300 H 244.150 C 244.095 318.300 244.050 318.345 244.050 318.400 V 321.400 C 244.050 321.500 244.150 321.400 244.050 321.400 H 238.050 C 237.950 321.400 238.050 321.500 238.050 321.400 V 318.400 C 238.050 318.345 238.005 318.300 237.950 318.300 H 231.750 C 231.695 318.300 231.650 318.345 231.650 318.400 V 321.400 C 231.650 321.500 231.750 321.400 231.650 321.400 H 225.650 C 225.550 321.400 225.650 321.500 225.650 321.400 V 318.400 C 225.650 318.345 225.605 318.300 225.550 318.300 H 219.350 C 219.295 318.300 219.250 318.345 219.250 318.400 V 321.400 C 219.250 321.500 219.350 321.400 219.250 321.400 H 213.250 C 213.150 321.400 213.250 321.500 213.250 321.400 V 318.400 C 213.250 318.345 213.205 318.300 213.150 318.300 H 206.950 C 206.895 318.300 206.850 318.345 206.850 318.400 V 321.400 C 206.850 321.500 206.950 321.400 206.850 321.400 H 200.850 C 200.750 321.400 200.850 321.500 200.850 321.400 V 318.400 C 200.850 318.345 200.805 318.300 200.750 318.300 H 194.550 C 194.495 318.300 194.450 318.345 194.450 318.400 V 321.400 C 194.450 321.500 194.550 321.400 194.450 321.400 H 188.450 C 188.350 321.400 188.450 321.500 188.450 321.400 V 318.400 C 188.450 318.345 188.405 318.300 188.350 318.300 H 182.150 C 182.095 318.300 182.050 318.345 182.050 318.400 V 321.400 C 182.050 321.500 182.150 321.400 182.050 321.400 H 176.050 C 175.950 321.400 176.050 321.500 176.050 321.400 V 318.400 C 176.050 318.345 176.005 318.300 175.950 318.300 H 167.350 C 167.295 318.300 167.250 318.345 167.250 318.400 V 321.500 V 328.800 C 167.250 328.900 167.350 328.800 167.250 328.800 H 164.250 C 164.195 328.800 164.150 328.845 164.150 328.900 V 335.100 C 164.150 335.155 164.195 335.200 164.250 335.200 H 167.250 C 167.350 335.200 167.250 335.100 167.250 335.200 V 341.200 C 167.250 341.300 167.350 341.200 167.250 341.200 H 164.250 C 164.195 341.200 164.150 341.245 164.150 341.300 V 347.500 C 164.150 347.555 164.195 347.600 164.250 347.600 H 167.250 C 167.350 347.600 167.250 347.500 167.250 347.600 V 353.600 C 167.250 353.700 167.350 353.600 167.250 353.600 H 164.250 C 164.195 353.600 164.150 353.645 164.150 353.700 V 359.900 C 164.150 359.955 164.195 360.000 164.250 360.000 H 167.250 C 167.350 360.000 167.250 359.900 167.250 360.000 V 366.000 C 167.250 366.100 167.350 366.000 167.250 366.000 H 164.250 C 164.195 366.000 164.150 366.045 164.150 366.100 V 372.300 C 164.150 372.355 164.195 372.400 164.250 372.400 H 167.250 C 167.350 372.400 167.250 372.300 167.250 372.400 V 378.400 C 167.250 378.500 167.350 378.400 167.250 378.400 H 164.250 C 164.195 378.400 164.150 378.445 164.150 378.500 V 384.700 C 164.150 384.755 164.195 384.800 164.250 384.800 H 167.250 C 167.350 384.800 167.250 384.700 167.250 384.800 V 390.800 C 167.250 390.900 167.350 390.800 167.250 390.800 H 164.250 C 164.195 390.800 164.150 390.845 164.150 390.900 V 397.100 C 164.150 397.155 164.195 397.200 164.250 397.200 H 167.250 C 167.350 397.200 167.250 397.100 167.250 397.200 V 403.200 C 167.250 403.300 167.350 403.200 167.250 403.200 H 164.250 C 164.195 403.200 164.150 403.245 164.150 403.300 V 409.500 C 164.150 409.555 164.195 409.600 164.250 409.600 H 167.250 C 167.350 409.600 167.250 409.500 167.250 409.600 V 416.900 V 420.000 C 167.250 420.055 167.295 420.100 167.350 420.100 Z"
       stroke="rgb(0,0,0)"
       stroke-width="0.20"
       id="path9" />
  </g>
  <g
     id="p-2"
     style="fill:none;stroke-linecap:round;stroke-linejoin:round;">
    <path
       d="M 167.350 316.750 H 175.950 C 176.005 316.750 176.050 316.705 176.050 316.650 V 313.650 C 176.050 313.550 175.950 313.650 176.050 313.650 H 182.050 C 182.150 313.650 182.050 313.550 182.050 313.650 V 316.650 C 182.050 316.705 182.095 316.750 182.150 316.750 H 188.350 C 188.405 316.750 188.450 316.705 188.450 316.650 V 313.650 C 188.450 313.550 188.350 313.650 188.450 313.650 H 194.450 C 194.550 313.650 194.450 313.550 194.450 313.650 V 316.650 C 194.450 316.705 194.495 316.750 194.550 316.750 H 200.750 C 200.805 316.750 200.850 316.705 200.850 316.650 V 313.650 C 200.850 313.550 200.750 313.650 200.850 313.650 H 206.850 C 206.950 313.650 206.850 313.550 206.850 313.650 V 316.650 C 206.850 316.705 206.895 316.750 206.950 316.750 H 213.150 C 213.205 316.750 213.250 316.705 213.250 316.650 V 313.650 C 213.250 313.550 213.150 313.650 213.250 313.650 H 219.250 C 219.350 313.650 219.250 313.550 219.250 313.650 V 316.650 C 219.250 316.705 219.295 316.750 219.350 316.750 H 225.550 C 225.605 316.750 225.650 316.705 225.650 316.650 V 313.650 C 225.650 313.550 225.550 313.650 225.650 313.650 H 231.650 C 231.750 313.650 231.650 313.550 231.650 313.650 V 316.650 C 231.650 316.705 231.695 316.750 231.750 316.750 H 237.950 C 238.005 316.750 238.050 316.705 238.050 316.650 V 313.650 C 238.050 313.550 237.950 313.650 238.050 313.650 H 244.050 C 244.150 313.650 244.050 313.550 244.050 313.650 V 316.650 C 244.050 316.705 244.095 316.750 244.150 316.750 H 250.350 C 250.405 316.750 250.450 316.705 250.450 316.650 V 313.650 C 250.450 313.550 250.350 313.650 250.450 313.650 H 256.450 C 256.550 313.650 256.450 313.550 256.450 313.650 V 316.650 C 256.450 316.705 256.495 316.750 256.550 316.750 H 262.750 C 262.805 316.750 262.850 316.705 262.850 316.650 V 313.650 C 262.850 313.550 262.750 313.650 262.850 313.650 H 268.850 C 268.950 313.650 268.850 313.550 268.850 313.650 V 316.650 C 268.850 316.705 268.895 316.750 268.950 316.750 H 275.150 C 275.205 316.750 275.250 316.705 275.250 316.650 V 313.650 C 275.250 313.550 275.150 313.650 275.250 313.650 H 281.250 C 281.350 313.650 281.250 313.550 281.250 313.650 V 316.650 C 281.250 316.705 281.295 316.750 281.350 316.750 H 287.550 C 287.605 316.750 287.650 316.705 287.650 316.650 V 313.650 C 287.650 313.550 287.550 313.650 287.650 313.650 H 293.650 C 293.750 313.650 293.650 313.550 293.650 313.650 V 316.650 C 293.650 316.705 293.695 316.750 293.750 316.750 H 299.950 C 300.005 316.750 300.050 316.705 300.050 316.650 V 313.650 C 300.050 313.550 299.950 313.650 300.050 313.650 H 306.050 C 306.150 313.650 306.050 313.550 306.050 313.650 V 316.650 C 306.050 316.705 306.095 316.750 306.150 316.750 H 312.350 C 312.405 316.750 312.450 316.705 312.450 316.650 V 313.650 C 312.450 313.550 312.350 313.650 312.450 313.650 H 318.450 C 318.550 313.650 318.450 313.550 318.450 313.650 V 316.650 C 318.450 316.705 318.495 316.750 318.550 316.750 H 324.750 C 324.805 316.750 324.850 316.705 324.850 316.650 V 313.650 C 324.850 313.550 324.750 313.650 324.850 313.650 H 330.850 C 330.950 313.650 330.850 313.550 330.850 313.650 V 316.650 C 330.850 316.705 330.895 316.750 330.950 316.750 H 337.150 C 337.205 316.750 337.250 316.705 337.250 316.650 V 313.650 C 337.250 313.550 337.150 313.650 337.250 313.650 H 343.250 C 343.350 313.650 343.250 313.550 343.250 313.650 V 316.650 C 343.250 316.705 343.295 316.750 343.350 316.750 H 349.550 C 349.605 316.750 349.650 316.705 349.650 316.650 V 313.650 C 349.650 313.550 349.550 313.650 349.650 313.650 H 355.650 C 355.750 313.650 355.650 313.550 355.650 313.650 V 316.650 C 355.650 316.705 355.695 316.750 355.750 316.750 H 364.350 C 364.405 316.750 364.450 316.705 364.450 316.650 V 313.550 V 306.250 C 364.450 306.150 364.350 306.250 364.450 306.250 H 367.450 C 367.505 306.250 367.550 306.205 367.550 306.150 V 299.950 C 367.550 299.895 367.505 299.850 367.450 299.850 H 364.450 C 364.350 299.850 364.450 299.950 364.450 299.850 V 293.850 C 364.450 293.750 364.350 293.850 364.450 293.850 H 367.450 C 367.505 293.850 367.550 293.805 367.550 293.750 V 287.550 C 367.550 287.495 367.505 287.450 367.450 287.450 H 364.450 C 364.350 287.450 364.450 287.550 364.450 287.450 V 281.450 C 364.450 281.350 364.350 281.450 364.450 281.450 H 367.450 C 367.505 281.450 367.550 281.405 367.550 281.350 V 275.150 C 367.550 275.095 367.505 275.050 367.450 275.050 H 364.450 C 364.350 275.050 364.450 275.150 364.450 275.050 V 269.050 C 364.450 268.950 364.350 269.050 364.450 269.050 H 367.450 C 367.505 269.050 367.550 269.005 367.550 268.950 V 262.750 C 367.550 262.695 367.505 262.650 367.450 262.650 H 364.450 C 364.350 262.650 364.450 262.750 364.450 262.650 V 256.650 C 364.450 256.550 364.350 256.650 364.450 256.650 H 367.450 C 367.505 256.650 367.550 256.605 367.550 256.550 V 250.350 C 367.550 250.295 367.505 250.250 367.450 250.250 H 364.450 C 364.350 250.250 364.450 250.350 364.450 250.250 V 244.250 C 364.450 244.150 364.350 244.250 364.450 244.250 H 367.450 C 367.505 244.250 367.550 244.205 367.550 244.150 V 237.950 C 367.550 237.895 367.505 237.850 367.450 237.850 H 364.450 C 364.350 237.850 364.450 237.950 364.450 237.850 V 231.850 C 364.450 231.750 364.350 231.850 364.450 231.850 H 367.450 C 367.505 231.850 367.550 231.805 367.550 231.750 V 225.550 C 367.550 225.495 367.505 225.450 367.450 225.450 H 364.450 C 364.350 225.450 364.450 225.550 364.450 225.450 V 218.150 V 215.050 C 364.450 214.995 364.405 214.950 364.350 214.950 H 355.750 C 355.695 214.950 355.650 214.995 355.650 215.050 V 218.050 C 355.650 218.150 355.750 218.050 355.650 218.050 H 349.650 C 349.550 218.050 349.650 218.150 349.650 218.050 V 215.050 C 349.650 214.995 349.605 214.950 349.550 214.950 H 343.350 C 343.295 214.950 343.250 214.995 343.250 215.050 V 218.050 C 343.250 218.150 343.350 218.050 343.250 218.050 H 337.250 C 337.150 218.050 337.250 218.150 337.250 218.050 V 215.050 C 337.250 214.995 337.205 214.950 337.150 214.950 H 330.950 C 330.895 214.950 330.850 214.995 330.850 215.050 V 218.050 C 330.850 218.150 330.950 218.050 330.850 218.050 H 324.850 C 324.750 218.050 324.850 218.150 324.850 218.050 V 215.050 C 324.850 214.995 324.805 214.950 324.750 214.950 H 318.550 C 318.495 214.950 318.450 214.995 318.450 215.050 V 218.050 C 318.450 218.150 318.550 218.050 318.450 218.050 H 312.450 C 312.350 218.050 312.450 218.150 312.450 218.050 V 215.050 C 312.450 214.995 312.405 214.950 312.350 214.950 H 306.150 C 306.095 214.950 306.050 214.995 306.050 215.050 V 218.050 C 306.050 218.150 306.150 218.050 306.050 218.050 H 300.050 C 299.950 218.050 300.050 218.150 300.050 218.050 V 215.050 C 300.050 214.995 300.005 214.950 299.950 214.950 H 293.750 C 293.695 214.950 293.650 214.995 293.650 215.050 V 218.050 C 293.650 218.150 293.750 218.050 293.650 218.050 H 287.650 C 287.550 218.050 287.650 218.150 287.650 218.050 V 215.050 C 287.650 214.995 287.605 214.950 287.550 214.950 H 281.350 C 281.295 214.950 281.250 214.995 281.250 215.050 V 218.050 C 281.250 218.150 281.350 218.050 281.250 218.050 H 275.250 C 275.150 218.050 275.250 218.150 275.250 218.050 V 215.050 C 275.250 214.995 275.205 214.950 275.150 214.950 H 268.950 C 268.895 214.950 268.850 214.995 268.850 215.050 V 218.050 C 268.850 218.150 268.950 218.050 268.850 218.050 H 262.850 C 262.750 218.050 262.850 218.150 262.850 218.050 V 215.050 C 262.850 214.995 262.805 214.950 262.750 214.950 H 256.550 C 256.495 214.950 256.450 214.995 256.450 215.050 V 218.050 C 256.450 218.150 256.550 218.050 256.450 218.050 H 250.450 C 250.350 218.050 250.450 218.150 250.450 218.050 V 215.050 C 250.450 214.995 250.405 214.950 250.350 214.950 H 244.150 C 244.095 214.950 244.050 214.995 244.050 215.050 V 218.050 C 244.050 218.150 244.150 218.050 244.050 218.050 H 238.050 C 237.950 218.050 238.050 218.150 238.050 218.050 V 215.050 C 238.050 214.995 238.005 214.950 237.950 214.950 H 231.750 C 231.695 214.950 231.650 214.995 231.650 215.050 V 218.050 C 231.650 218.150 231.750 218.050 231.650 218.050 H 225.650 C 225.550 218.050 225.650 218.150 225.650 218.050 V 215.050 C 225.650 214.995 225.605 214.950 225.550 214.950 H 219.350 C 219.295 214.950 219.250 214.995 219.250 215.050 V 218.050 C 219.250 218.150 219.350 218.050 219.250 218.050 H 213.250 C 213.150 218.050 213.250 218.150 213.250 218.050 V 215.050 C 213.250 214.995 213.205 214.950 213.150 214.950 H 206.950 C 206.895 214.950 206.850 214.995 206.850 215.050 V 218.050 C 206.850 218.150 206.950 218.050 206.850 218.050 H 200.850 C 200.750 218.050 200.850 218.150 200.850 218.050 V 215.050 C 200.850 214.995 200.805 214.950 200.750 214.950 H 194.550 C 194.495 214.950 194.450 214.995 194.450 215.050 V 218.050 C 194.450 218.150 194.550 218.050 194.450 218.050 H 188.450 C 188.350 218.050 188.450 218.150 188.450 218.050 V 215.050 C 188.450 214.995 188.405 214.950 188.350 214.950 H 182.150 C 182.095 214.950 182.050 214.995 182.050 215.050 V 218.050 C 182.050 218.150 182.150 218.050 182.050 218.050 H 176.050 C 175.950 218.050 176.050 218.150 176.050 218.050 V 215.050 C 176.050 214.995 176.005 214.950 175.950 214.950 H 167.350 C 167.295 214.950 167.250 214.995 167.250 215.050 V 218.150 V 225.450 C 167.250 225.550 167.350 225.450 167.250 225.450 H 164.250 C 164.195 225.450 164.150 225.495 164.150 225.550 V 231.750 C 164.150 231.805 164.195 231.850 164.250 231.850 H 167.250 C 167.350 231.850 167.250 231.750 167.250 231.850 V 237.850 C 167.250 237.950 167.350 237.850 167.250 237.850 H 164.250 C 164.195 237.850 164.150 237.895 164.150 237.950 V 244.150 C 164.150 244.205 164.195 244.250 164.250 244.250 H 167.250 C 167.350 244.250 167.250 244.150 167.250 244.250 V 250.250 C 167.250 250.350 167.350 250.250 167.250 250.250 H 164.250 C 164.195 250.250 164.150 250.295 164.150 250.350 V 256.550 C 164.150 256.605 164.195 256.650 164.250 256.650 H 167.250 C 167.350 256.650 167.250 256.550 167.250 256.650 V 262.650 C 167.250 262.750 167.350 262.650 167.250 262.650 H 164.250 C 164.195 262.650 164.150 262.695 164.150 262.750 V 268.950 C 164.150 269.005 164.195 269.050 164.250 269.050 H 167.250 C 167.350 269.050 167.250 268.950 167.250 269.050 V 275.050 C 167.250 275.150 167.350 275.050 167.250 275.050 H 164.250 C 164.195 275.050 164.150 275.095 164.150 275.150 V 281.350 C 164.150 281.405 164.195 281.450 164.250 281.450 H 167.250 C 167.350 281.450 167.250 281.350 167.250 281.450 V 287.450 C 167.250 287.550 167.350 287.450 167.250 287.450 H 164.250 C 164.195 287.450 164.150 287.495 164.150 287.550 V 293.750 C 164.150 293.805 164.195 293.850 164.250 293.850 H 167.250 C 167.350 293.850 167.250 293.750 167.250 293.850 V 299.850 C 167.250 299.950 167.350 299.850 167.250 299.850 H 164.250 C 164.195 299.850 164.150 299.895 164.150 299.950 V 306.150 C 164.150 306.205 164.195 306.250 164.250 306.250 H 167.250 C 167.350 306.250 167.250 306.150 167.250 306.250 V 313.550 V 316.650 C 167.250 316.705 167.295 316.750 167.350 316.750 Z"
       stroke="rgb(0,0,0)"
       stroke-width="0.20"
       id="path12" />
  </g>
  <g
     id="p-3"
     style="fill:none;stroke-linecap:round;stroke-linejoin:round;">
    <path
       d="M 13.200 316.750 H 21.200 C 21.255 316.750 21.300 316.705 21.300 316.650 V 313.650 C 21.300 313.550 21.200 313.650 21.300 313.650 H 27.300 C 27.400 313.650 27.300 313.550 27.300 313.650 V 316.650 C 27.300 316.705 27.345 316.750 27.400 316.750 H 33.600 C 33.655 316.750 33.700 316.705 33.700 316.650 V 313.650 C 33.700 313.550 33.600 313.650 33.700 313.650 H 39.700 C 39.800 313.650 39.700 313.550 39.700 313.650 V 316.650 C 39.700 316.705 39.745 316.750 39.800 316.750 H 46.000 C 46.055 316.750 46.100 316.705 46.100 316.650 V 313.650 C 46.100 313.550 46.000 313.650 46.100 313.650 H 52.100 C 52.200 313.650 52.100 313.550 52.100 313.650 V 316.650 C 52.100 316.705 52.145 316.750 52.200 316.750 H 58.400 C 58.455 316.750 58.500 316.705 58.500 316.650 V 313.650 C 58.500 313.550 58.400 313.650 58.500 313.650 H 64.500 C 64.600 313.650 64.500 313.550 64.500 313.650 V 316.650 C 64.500 316.705 64.545 316.750 64.600 316.750 H 70.800 C 70.855 316.750 70.900 316.705 70.900 316.650 V 313.650 C 70.900 313.550 70.800 313.650 70.900 313.650 H 76.900 C 77.000 313.650 76.900 313.550 76.900 313.650 V 316.650 C 76.900 316.705 76.945 316.750 77.000 316.750 H 83.200 C 83.255 316.750 83.300 316.705 83.300 316.650 V 313.650 C 83.300 313.550 83.200 313.650 83.300 313.650 H 89.300 C 89.400 313.650 89.300 313.550 89.300 313.650 V 316.650 C 89.300 316.705 89.345 316.750 89.400 316.750 H 95.600 C 95.655 316.750 95.700 316.705 95.700 316.650 V 313.650 C 95.700 313.550 95.600 313.650 95.700 313.650 H 101.700 C 101.800 313.650 101.700 313.550 101.700 313.650 V 316.650 C 101.700 316.705 101.745 316.750 101.800 316.750 H 108.000 C 108.055 316.750 108.100 316.705 108.100 316.650 V 313.650 C 108.100 313.550 108.000 313.650 108.100 313.650 H 114.100 C 114.200 313.650 114.100 313.550 114.100 313.650 V 316.650 C 114.100 316.705 114.145 316.750 114.200 316.750 H 120.400 C 120.455 316.750 120.500 316.705 120.500 316.650 V 313.650 C 120.500 313.550 120.400 313.650 120.500 313.650 H 126.500 C 126.600 313.650 126.500 313.550 126.500 313.650 V 316.650 C 126.500 316.705 126.545 316.750 126.600 316.750 H 132.800 C 132.855 316.750 132.900 316.705 132.900 316.650 V 313.650 C 132.900 313.550 132.800 313.650 132.900 313.650 H 138.900 C 139.000 313.650 138.900 313.550 138.900 313.650 V 316.650 C 138.900 316.705 138.945 316.750 139.000 316.750 H 145.200 C 145.255 316.750 145.300 316.705 145.300 316.650 V 313.650 C 145.300 313.550 145.200 313.650 145.300 313.650 H 151.300 C 151.400 313.650 151.300 313.550 151.300 313.650 V 316.650 C 151.300 316.705 151.345 316.750 151.400 316.750 H 159.400 H 162.500 C 162.555 316.750 162.600 316.705 162.600 316.650 V 313.550 V 306.150 C 162.600 306.095 162.555 306.050 162.500 306.050 H 159.500 C 159.400 306.050 159.500 306.150 159.500 306.050 V 300.050 C 159.500 299.950 159.400 300.050 159.500 300.050 H 162.500 C 162.555 300.050 162.600 300.005 162.600 299.950 V 293.750 C 162.600 293.695 162.555 293.650 162.500 293.650 H 159.500 C 159.400 293.650 159.500 293.750 159.500 293.650 V 287.650 C 159.500 287.550 159.400 287.650 159.500 287.650 H 162.500 C 162.555 287.650 162.600 287.605 162.600 287.550 V 281.350 C 162.600 281.295 162.555 281.250 162.500 281.250 H 159.500 C 159.400 281.250 159.500 281.350 159.500 281.250 V 275.250 C 159.500 275.150 159.400 275.250 159.500 275.250 H 162.500 C 162.555 275.250 162.600 275.205 162.600 275.150 V 268.950 C 162.600 268.895 162.555 268.850 162.500 268.850 H 159.500 C 159.400 268.850 159.500 268.950 159.500 268.850 V 262.850 C 159.500 262.750 159.400 262.850 159.500 262.850 H 162.500 C 162.555 262.850 162.600 262.805 162.600 262.750 V 256.550 C 162.600 256.495 162.555 256.450 162.500 256.450 H 159.500 C 159.400 256.450 159.500 256.550 159.500 256.450 V 250.450 C 159.500 250.350 159.400 250.450 159.500 250.450 H 162.500 C 162.555 250.450 162.600 250.405 162.600 250.350 V 244.150 C 162.600 244.095 162.555 244.050 162.500 244.050 H 159.500 C 159.400 244.050 159.500 244.150 159.500 244.050 V 238.050 C 159.500 237.950 159.400 238.050 159.500 238.050 H 162.500 C 162.555 238.050 162.600 238.005 162.600 237.950 V 231.750 C 162.600 231.695 162.555 231.650 162.500 231.650 H 159.500 C 159.400 231.650 159.500 231.750 159.500 231.650 V 225.650 C 159.500 225.550 159.400 225.650 159.500 225.650 H 162.500 C 162.555 225.650 162.600 225.605 162.600 225.550 V 218.150 V 215.050 C 162.600 214.995 162.555 214.950 162.500 214.950 H 159.400 H 151.400 C 151.345 214.950 151.300 214.995 151.300 215.050 V 218.050 C 151.300 218.150 151.400 218.050 151.300 218.050 H 145.300 C 145.200 218.050 145.300 218.150 145.300 218.050 V 215.050 C 145.300 214.995 145.255 214.950 145.200 214.950 H 139.000 C 138.945 214.950 138.900 214.995 138.900 215.050 V 218.050 C 138.900 218.150 139.000 218.050 138.900 218.050 H 132.900 C 132.800 218.050 132.900 218.150 132.900 218.050 V 215.050 C 132.900 214.995 132.855 214.950 132.800 214.950 H 126.600 C 126.545 214.950 126.500 214.995 126.500 215.050 V 218.050 C 126.500 218.150 126.600 218.050 126.500 218.050 H 120.500 C 120.400 218.050 120.500 218.150 120.500 218.050 V 215.050 C 120.500 214.995 120.455 214.950 120.400 214.950 H 114.200 C 114.145 214.950 114.100 214.995 114.100 215.050 V 218.050 C 114.100 218.150 114.200 218.050 114.100 218.050 H 108.100 C 108.000 218.050 108.100 218.150 108.100 218.050 V 215.050 C 108.100 214.995 108.055 214.950 108.000 214.950 H 101.800 C 101.745 214.950 101.700 214.995 101.700 215.050 V 218.050 C 101.700 218.150 101.800 218.050 101.700 218.050 H 95.700 C 95.600 218.050 95.700 218.150 95.700 218.050 V 215.050 C 95.700 214.995 95.655 214.950 95.600 214.950 H 89.400 C 89.345 214.950 89.300 214.995 89.300 215.050 V 218.050 C 89.300 218.150 89.400 218.050 89.300 218.050 H 83.300 C 83.200 218.050 83.300 218.150 83.300 218.050 V 215.050 C 83.300 214.995 83.255 214.950 83.200 214.950 H 77.000 C 76.945 214.950 76.900 214.995 76.900 215.050 V 218.050 C 76.900 218.150 77.000 218.050 76.900 218.050 H 70.900 C 70.800 218.050 70.900 218.150 70.900 218.050 V 215.050 C 70.900 214.995 70.855 214.950 70.800 214.950 H 64.600 C 64.545 214.950 64.500 214.995 64.500 215.050 V 218.050 C 64.500 218.150 64.600 218.050 64.500 218.050 H 58.500 C 58.400 218.050 58.500 218.150 58.500 218.050 V 215.050 C 58.500 214.995 58.455 214.950 58.400 214.950 H 52.200 C 52.145 214.950 52.100 214.995 52.100 215.050 V 218.050 C 52.100 218.150 52.200 218.050 52.100 218.050 H 46.100 C 46.000 218.050 46.100 218.150 46.100 218.050 V 215.050 C 46.100 214.995 46.055 214.950 46.000 214.950 H 39.800 C 39.745 214.950 39.700 214.995 39.700 215.050 V 218.050 C 39.700 218.150 39.800 218.050 39.700 218.050 H 33.700 C 33.600 218.050 33.700 218.150 33.700 218.050 V 215.050 C 33.700 214.995 33.655 214.950 33.600 214.950 H 27.400 C 27.345 214.950 27.300 214.995 27.300 215.050 V 218.050 C 27.300 218.150 27.400 218.050 27.300 218.050 H 21.300 C 21.200 218.050 21.300 218.150 21.300 218.050 V 215.050 C 21.300 214.995 21.255 214.950 21.200 214.950 H 13.200 H 10.100 C 10.045 214.950 10.000 214.995 10.000 215.050 V 218.150 V 225.550 C 10.000 225.605 10.045 225.650 10.100 225.650 H 13.100 C 13.200 225.650 13.100 225.550 13.100 225.650 V 231.650 C 13.100 231.750 13.200 231.650 13.100 231.650 H 10.100 C 10.045 231.650 10.000 231.695 10.000 231.750 V 237.950 C 10.000 238.005 10.045 238.050 10.100 238.050 H 13.100 C 13.200 238.050 13.100 237.950 13.100 238.050 V 244.050 C 13.100 244.150 13.200 244.050 13.100 244.050 H 10.100 C 10.045 244.050 10.000 244.095 10.000 244.150 V 250.350 C 10.000 250.405 10.045 250.450 10.100 250.450 H 13.100 C 13.200 250.450 13.100 250.350 13.100 250.450 V 256.450 C 13.100 256.550 13.200 256.450 13.100 256.450 H 10.100 C 10.045 256.450 10.000 256.495 10.000 256.550 V 262.750 C 10.000 262.805 10.045 262.850 10.100 262.850 H 13.100 C 13.200 262.850 13.100 262.750 13.100 262.850 V 268.850 C 13.100 268.950 13.200 268.850 13.100 268.850 H 10.100 C 10.045 268.850 10.000 268.895 10.000 268.950 V 275.150 C 10.000 275.205 10.045 275.250 10.100 275.250 H 13.100 C 13.200 275.250 13.100 275.150 13.100 275.250 V 281.250 C 13.100 281.350 13.200 281.250 13.100 281.250 H 10.100 C 10.045 281.250 10.000 281.295 10.000 281.350 V 287.550 C 10.000 287.605 10.045 287.650 10.100 287.650 H 13.100 C 13.200 287.650 13.100 287.550 13.100 287.650 V 293.650 C 13.100 293.750 13.200 293.650 13.100 293.650 H 10.100 C 10.045 293.650 10.000 293.695 10.000 293.750 V 299.950 C 10.000 300.005 10.045 300.050 10.100 300.050 H 13.100 C 13.200 300.050 13.100 299.950 13.100 300.050 V 306.050 C 13.100 306.150 13.200 306.050 13.100 306.050 H 10.100 C 10.045 306.050 10.000 306.095 10.000 306.150 V 313.550 V 316.650 C 10.000 316.705 10.045 316.750 10.100 316.750 H 13.200 Z"
       stroke="rgb(0,0,0)"
       stroke-width="0.20"
       id="path15" />
  </g>
  <g
     id="p-4"
     style="fill:none;stroke-linecap:round;stroke-linejoin:round;">
    <path
       d="M 13.200 210.300 H 21.100 C 21.200 210.300 21.100 210.200 21.100 210.300 V 213.300 C 21.100 213.355 21.145 213.400 21.200 213.400 H 27.400 C 27.455 213.400 27.500 213.355 27.500 213.300 V 210.300 C 27.500 210.200 27.400 210.300 27.500 210.300 H 33.500 C 33.600 210.300 33.500 210.200 33.500 210.300 V 213.300 C 33.500 213.355 33.545 213.400 33.600 213.400 H 39.800 C 39.855 213.400 39.900 213.355 39.900 213.300 V 210.300 C 39.900 210.200 39.800 210.300 39.900 210.300 H 45.900 C 46.000 210.300 45.900 210.200 45.900 210.300 V 213.300 C 45.900 213.355 45.945 213.400 46.000 213.400 H 52.200 C 52.255 213.400 52.300 213.355 52.300 213.300 V 210.300 C 52.300 210.200 52.200 210.300 52.300 210.300 H 58.300 C 58.400 210.300 58.300 210.200 58.300 210.300 V 213.300 C 58.300 213.355 58.345 213.400 58.400 213.400 H 64.600 C 64.655 213.400 64.700 213.355 64.700 213.300 V 210.300 C 64.700 210.200 64.600 210.300 64.700 210.300 H 70.700 C 70.800 210.300 70.700 210.200 70.700 210.300 V 213.300 C 70.700 213.355 70.745 213.400 70.800 213.400 H 77.000 C 77.055 213.400 77.100 213.355 77.100 213.300 V 210.300 C 77.100 210.200 77.000 210.300 77.100 210.300 H 83.100 C 83.200 210.300 83.100 210.200 83.100 210.300 V 213.300 C 83.100 213.355 83.145 213.400 83.200 213.400 H 89.400 C 89.455 213.400 89.500 213.355 89.500 213.300 V 210.300 C 89.500 210.200 89.400 210.300 89.500 210.300 H 95.500 C 95.600 210.300 95.500 210.200 95.500 210.300 V 213.300 C 95.500 213.355 95.545 213.400 95.600 213.400 H 101.800 C 101.855 213.400 101.900 213.355 101.900 213.300 V 210.300 C 101.900 210.200 101.800 210.300 101.900 210.300 H 107.900 C 108.000 210.300 107.900 210.200 107.900 210.300 V 213.300 C 107.900 213.355 107.945 213.400 108.000 213.400 H 114.200 C 114.255 213.400 114.300 213.355 114.300 213.300 V 210.300 C 114.300 210.200 114.200 210.300 114.300 210.300 H 120.300 C 120.400 210.300 120.300 210.200 120.300 210.300 V 213.300 C 120.300 213.355 120.345 213.400 120.400 213.400 H 126.600 C 126.655 213.400 126.700 213.355 126.700 213.300 V 210.300 C 126.700 210.200 126.600 210.300 126.700 210.300 H 132.700 C 132.800 210.300 132.700 210.200 132.700 210.300 V 213.300 C 132.700 213.355 132.745 213.400 132.800 213.400 H 139.000 C 139.055 213.400 139.100 213.355 139.100 213.300 V 210.300 C 139.100 210.200 139.000 210.300 139.100 210.300 H 145.100 C 145.200 210.300 145.100 210.200 145.100 210.300 V 213.300 C 145.100 213.355 145.145 213.400 145.200 213.400 H 151.400 C 151.455 213.400 151.500 213.355 151.500 213.300 V 210.300 C 151.500 210.200 151.400 210.300 151.500 210.300 H 159.400 C 159.455 210.300 159.500 210.255 159.500 210.200 V 201.700 C 159.500 201.600 159.400 201.700 159.500 201.700 H 162.500 C 162.555 201.700 162.600 201.655 162.600 201.600 V 195.400 C 162.600 195.345 162.555 195.300 162.500 195.300 H 159.500 C 159.400 195.300 159.500 195.400 159.500 195.300 V 189.300 C 159.500 189.200 159.400 189.300 159.500 189.300 H 162.500 C 162.555 189.300 162.600 189.255 162.600 189.200 V 183.000 C 162.600 182.945 162.555 182.900 162.500 182.900 H 159.500 C 159.400 182.900 159.500 183.000 159.500 182.900 V 176.900 C 159.500 176.800 159.400 176.900 159.500 176.900 H 162.500 C 162.555 176.900 162.600 176.855 162.600 176.800 V 170.600 C 162.600 170.545 162.555 170.500 162.500 170.500 H 159.500 C 159.400 170.500 159.500 170.600 159.500 170.500 V 164.500 C 159.500 164.400 159.400 164.500 159.500 164.500 H 162.500 C 162.555 164.500 162.600 164.455 162.600 164.400 V 158.200 C 162.600 158.145 162.555 158.100 162.500 158.100 H 159.500 C 159.400 158.100 159.500 158.200 159.500 158.100 V 152.100 C 159.500 152.000 159.400 152.100 159.500 152.100 H 162.500 C 162.555 152.100 162.600 152.055 162.600 152.000 V 145.800 C 162.600 145.745 162.555 145.700 162.500 145.700 H 159.500 C 159.400 145.700 159.500 145.800 159.500 145.700 V 139.700 C 159.500 139.600 159.400 139.700 159.500 139.700 H 162.500 C 162.555 139.700 162.600 139.655 162.600 139.600 V 133.400 C 162.600 133.345 162.555 133.300 162.500 133.300 H 159.500 C 159.400 133.300 159.500 133.400 159.500 133.300 V 127.300 C 159.500 127.200 159.400 127.300 159.500 127.300 H 162.500 C 162.555 127.300 162.600 127.255 162.600 127.200 V 121.000 C 162.600 120.945 162.555 120.900 162.500 120.900 H 159.500 C 159.400 120.900 159.500 121.000 159.500 120.900 V 114.900 C 159.500 114.800 159.400 114.900 159.500 114.900 H 162.500 C 162.555 114.900 162.600 114.855 162.600 114.800 V 108.600 C 162.600 108.545 162.555 108.500 162.500 108.500 H 159.500 C 159.400 108.500 159.500 108.600 159.500 108.500 V 102.500 C 159.500 102.400 159.400 102.500 159.500 102.500 H 162.500 C 162.555 102.500 162.600 102.455 162.600 102.400 V 96.200 C 162.600 96.145 162.555 96.100 162.500 96.100 H 159.500 C 159.400 96.100 159.500 96.200 159.500 96.100 V 90.100 C 159.500 90.000 159.400 90.100 159.500 90.100 H 162.500 C 162.555 90.100 162.600 90.055 162.600 90.000 V 83.800 C 162.600 83.745 162.555 83.700 162.500 83.700 H 159.500 C 159.400 83.700 159.500 83.800 159.500 83.700 V 77.700 C 159.500 77.600 159.400 77.700 159.500 77.700 H 162.500 C 162.555 77.700 162.600 77.655 162.600 77.600 V 71.400 C 162.600 71.345 162.555 71.300 162.500 71.300 H 159.500 C 159.400 71.300 159.500 71.400 159.500 71.300 V 65.300 C 159.500 65.200 159.400 65.300 159.500 65.300 H 162.500 C 162.555 65.300 162.600 65.255 162.600 65.200 V 59.000 C 162.600 58.945 162.555 58.900 162.500 58.900 H 159.500 C 159.400 58.900 159.500 59.000 159.500 58.900 V 52.900 C 159.500 52.800 159.400 52.900 159.500 52.900 H 162.500 C 162.555 52.900 162.600 52.855 162.600 52.800 V 46.600 C 162.600 46.545 162.555 46.500 162.500 46.500 H 159.500 C 159.400 46.500 159.500 46.600 159.500 46.500 V 40.500 C 159.500 40.400 159.400 40.500 159.500 40.500 H 162.500 C 162.555 40.500 162.600 40.455 162.600 40.400 V 34.200 C 162.600 34.145 162.555 34.100 162.500 34.100 H 159.500 C 159.400 34.100 159.500 34.200 159.500 34.100 V 28.100 C 159.500 28.000 159.400 28.100 159.500 28.100 H 162.500 C 162.555 28.100 162.600 28.055 162.600 28.000 V 21.800 C 162.600 21.745 162.555 21.700 162.500 21.700 H 159.500 C 159.400 21.700 159.500 21.800 159.500 21.700 V 13.200 C 159.500 13.145 159.455 13.100 159.400 13.100 H 151.500 C 151.400 13.100 151.500 13.200 151.500 13.100 V 10.100 C 151.500 10.045 151.455 10.000 151.400 10.000 H 145.200 C 145.145 10.000 145.100 10.045 145.100 10.100 V 13.100 C 145.100 13.200 145.200 13.100 145.100 13.100 H 139.100 C 139.000 13.100 139.100 13.200 139.100 13.100 V 10.100 C 139.100 10.045 139.055 10.000 139.000 10.000 H 132.800 C 132.745 10.000 132.700 10.045 132.700 10.100 V 13.100 C 132.700 13.200 132.800 13.100 132.700 13.100 H 126.700 C 126.600 13.100 126.700 13.200 126.700 13.100 V 10.100 C 126.700 10.045 126.655 10.000 126.600 10.000 H 120.400 C 120.345 10.000 120.300 10.045 120.300 10.100 V 13.100 C 120.300 13.200 120.400 13.100 120.300 13.100 H 114.300 C 114.200 13.100 114.300 13.200 114.300 13.100 V 10.100 C 114.300 10.045 114.255 10.000 114.200 10.000 H 108.000 C 107.945 10.000 107.900 10.045 107.900 10.100 V 13.100 C 107.900 13.200 108.000 13.100 107.900 13.100 H 101.900 C 101.800 13.100 101.900 13.200 101.900 13.100 V 10.100 C 101.900 10.045 101.855 10.000 101.800 10.000 H 95.600 C 95.545 10.000 95.500 10.045 95.500 10.100 V 13.100 C 95.500 13.200 95.600 13.100 95.500 13.100 H 89.500 C 89.400 13.100 89.500 13.200 89.500 13.100 V 10.100 C 89.500 10.045 89.455 10.000 89.400 10.000 H 83.200 C 83.145 10.000 83.100 10.045 83.100 10.100 V 13.100 C 83.100 13.200 83.200 13.100 83.100 13.100 H 77.100 C 77.000 13.100 77.100 13.200 77.100 13.100 V 10.100 C 77.100 10.045 77.055 10.000 77.000 10.000 H 70.800 C 70.745 10.000 70.700 10.045 70.700 10.100 V 13.100 C 70.700 13.200 70.800 13.100 70.700 13.100 H 64.700 C 64.600 13.100 64.700 13.200 64.700 13.100 V 10.100 C 64.700 10.045 64.655 10.000 64.600 10.000 H 58.400 C 58.345 10.000 58.300 10.045 58.300 10.100 V 13.100 C 58.300 13.200 58.400 13.100 58.300 13.100 H 52.300 C 52.200 13.100 52.300 13.200 52.300 13.100 V 10.100 C 52.300 10.045 52.255 10.000 52.200 10.000 H 46.000 C 45.945 10.000 45.900 10.045 45.900 10.100 V 13.100 C 45.900 13.200 46.000 13.100 45.900 13.100 H 39.900 C 39.800 13.100 39.900 13.200 39.900 13.100 V 10.100 C 39.900 10.045 39.855 10.000 39.800 10.000 H 33.600 C 33.545 10.000 33.500 10.045 33.500 10.100 V 13.100 C 33.500 13.200 33.600 13.100 33.500 13.100 H 27.500 C 27.400 13.100 27.500 13.200 27.500 13.100 V 10.100 C 27.500 10.045 27.455 10.000 27.400 10.000 H 21.200 C 21.145 10.000 21.100 10.045 21.100 10.100 V 13.100 C 21.100 13.200 21.200 13.100 21.100 13.100 H 13.200 C 13.145 13.100 13.100 13.145 13.100 13.200 V 21.700 C 13.100 21.800 13.200 21.700 13.100 21.700 H 10.100 C 10.045 21.700 10.000 21.745 10.000 21.800 V 28.000 C 10.000 28.055 10.045 28.100 10.100 28.100 H 13.100 C 13.200 28.100 13.100 28.000 13.100 28.100 V 34.100 C 13.100 34.200 13.200 34.100 13.100 34.100 H 10.100 C 10.045 34.100 10.000 34.145 10.000 34.200 V 40.400 C 10.000 40.455 10.045 40.500 10.100 40.500 H 13.100 C 13.200 40.500 13.100 40.400 13.100 40.500 V 46.500 C 13.100 46.600 13.200 46.500 13.100 46.500 H 10.100 C 10.045 46.500 10.000 46.545 10.000 46.600 V 52.800 C 10.000 52.855 10.045 52.900 10.100 52.900 H 13.100 C 13.200 52.900 13.100 52.800 13.100 52.900 V 58.900 C 13.100 59.000 13.200 58.900 13.100 58.900 H 10.100 C 10.045 58.900 10.000 58.945 10.000 59.000 V 65.200 C 10.000 65.255 10.045 65.300 10.100 65.300 H 13.100 C 13.200 65.300 13.100 65.200 13.100 65.300 V 71.300 C 13.100 71.400 13.200 71.300 13.100 71.300 H 10.100 C 10.045 71.300 10.000 71.345 10.000 71.400 V 77.600 C 10.000 77.655 10.045 77.700 10.100 77.700 H 13.100 C 13.200 77.700 13.100 77.600 13.100 77.700 V 83.700 C 13.100 83.800 13.200 83.700 13.100 83.700 H 10.100 C 10.045 83.700 10.000 83.745 10.000 83.800 V 90.000 C 10.000 90.055 10.045 90.100 10.100 90.100 H 13.100 C 13.200 90.100 13.100 90.000 13.100 90.100 V 96.100 C 13.100 96.200 13.200 96.100 13.100 96.100 H 10.100 C 10.045 96.100 10.000 96.145 10.000 96.200 V 102.400 C 10.000 102.455 10.045 102.500 10.100 102.500 H 13.100 C 13.200 102.500 13.100 102.400 13.100 102.500 V 108.500 C 13.100 108.600 13.200 108.500 13.100 108.500 H 10.100 C 10.045 108.500 10.000 108.545 10.000 108.600 V 114.800 C 10.000 114.855 10.045 114.900 10.100 114.900 H 13.100 C 13.200 114.900 13.100 114.800 13.100 114.900 V 120.900 C 13.100 121.000 13.200 120.900 13.100 120.900 H 10.100 C 10.045 120.900 10.000 120.945 10.000 121.000 V 127.200 C 10.000 127.255 10.045 127.300 10.100 127.300 H 13.100 C 13.200 127.300 13.100 127.200 13.100 127.300 V 133.300 C 13.100 133.400 13.200 133.300 13.100 133.300 H 10.100 C 10.045 133.300 10.000 133.345 10.000 133.400 V 139.600 C 10.000 139.655 10.045 139.700 10.100 139.700 H 13.100 C 13.200 139.700 13.100 139.600 13.100 139.700 V 145.700 C 13.100 145.800 13.200 145.700 13.100 145.700 H 10.100 C 10.045 145.700 10.000 145.745 10.000 145.800 V 152.000 C 10.000 152.055 10.045 152.100 10.100 152.100 H 13.100 C 13.200 152.100 13.100 152.000 13.100 152.100 V 158.100 C 13.100 158.200 13.200 158.100 13.100 158.100 H 10.100 C 10.045 158.100 10.000 158.145 10.000 158.200 V 164.400 C 10.000 164.455 10.045 164.500 10.100 164.500 H 13.100 C 13.200 164.500 13.100 164.400 13.100 164.500 V 170.500 C 13.100 170.600 13.200 170.500 13.100 170.500 H 10.100 C 10.045 170.500 10.000 170.545 10.000 170.600 V 176.800 C 10.000 176.855 10.045 176.900 10.100 176.900 H 13.100 C 13.200 176.900 13.100 176.800 13.100 176.900 V 182.900 C 13.100 183.000 13.200 182.900 13.100 182.900 H 10.100 C 10.045 182.900 10.000 182.945 10.000 183.000 V 189.200 C 10.000 189.255 10.045 189.300 10.100 189.300 H 13.100 C 13.200 189.300 13.100 189.200 13.100 189.300 V 195.300 C 13.100 195.400 13.200 195.300 13.100 195.300 H 10.100 C 10.045 195.300 10.000 195.345 10.000 195.400 V 201.600 C 10.000 201.655 10.045 201.700 10.100 201.700 H 13.100 C 13.200 201.700 13.100 201.600 13.100 201.700 V 210.200 C 13.100 210.255 13.145 210.300 13.200 210.300 Z"
       stroke="rgb(0,0,0)"
       stroke-width="0.20"
       id="path18" />
  </g>
  <g
     id="p-5"
     style="fill:none;stroke-linecap:round;stroke-linejoin:round;">
    <path
       d="M 167.350 210.300 H 175.250 C 175.350 210.300 175.250 210.200 175.250 210.300 V 213.300 C 175.250 213.355 175.295 213.400 175.350 213.400 H 181.550 C 181.605 213.400 181.650 213.355 181.650 213.300 V 210.300 C 181.650 210.200 181.550 210.300 181.650 210.300 H 187.650 C 187.750 210.300 187.650 210.200 187.650 210.300 V 213.300 C 187.650 213.355 187.695 213.400 187.750 213.400 H 193.950 C 194.005 213.400 194.050 213.355 194.050 213.300 V 210.300 C 194.050 210.200 193.950 210.300 194.050 210.300 H 200.050 C 200.150 210.300 200.050 210.200 200.050 210.300 V 213.300 C 200.050 213.355 200.095 213.400 200.150 213.400 H 206.350 C 206.405 213.400 206.450 213.355 206.450 213.300 V 210.300 C 206.450 210.200 206.350 210.300 206.450 210.300 H 212.450 C 212.550 210.300 212.450 210.200 212.450 210.300 V 213.300 C 212.450 213.355 212.495 213.400 212.550 213.400 H 218.750 C 218.805 213.400 218.850 213.355 218.850 213.300 V 210.300 C 218.850 210.200 218.750 210.300 218.850 210.300 H 224.850 C 224.950 210.300 224.850 210.200 224.850 210.300 V 213.300 C 224.850 213.355 224.895 213.400 224.950 213.400 H 231.150 C 231.205 213.400 231.250 213.355 231.250 213.300 V 210.300 C 231.250 210.200 231.150 210.300 231.250 210.300 H 237.250 C 237.350 210.300 237.250 210.200 237.250 210.300 V 213.300 C 237.250 213.355 237.295 213.400 237.350 213.400 H 243.550 C 243.605 213.400 243.650 213.355 243.650 213.300 V 210.300 C 243.650 210.200 243.550 210.300 243.650 210.300 H 249.650 C 249.750 210.300 249.650 210.200 249.650 210.300 V 213.300 C 249.650 213.355 249.695 213.400 249.750 213.400 H 255.950 C 256.005 213.400 256.050 213.355 256.050 213.300 V 210.300 C 256.050 210.200 255.950 210.300 256.050 210.300 H 262.050 C 262.150 210.300 262.050 210.200 262.050 210.300 V 213.300 C 262.050 213.355 262.095 213.400 262.150 213.400 H 268.350 C 268.405 213.400 268.450 213.355 268.450 213.300 V 210.300 C 268.450 210.200 268.350 210.300 268.450 210.300 H 274.450 C 274.550 210.300 274.450 210.200 274.450 210.300 V 213.300 C 274.450 213.355 274.495 213.400 274.550 213.400 H 280.750 C 280.805 213.400 280.850 213.355 280.850 213.300 V 210.300 C 280.850 210.200 280.750 210.300 280.850 210.300 H 286.850 C 286.950 210.300 286.850 210.200 286.850 210.300 V 213.300 C 286.850 213.355 286.895 213.400 286.950 213.400 H 293.150 C 293.205 213.400 293.250 213.355 293.250 213.300 V 210.300 C 293.250 210.200 293.150 210.300 293.250 210.300 H 299.250 C 299.350 210.300 299.250 210.200 299.250 210.300 V 213.300 C 299.250 213.355 299.295 213.400 299.350 213.400 H 305.550 C 305.605 213.400 305.650 213.355 305.650 213.300 V 210.300 C 305.650 210.200 305.550 210.300 305.650 210.300 H 313.550 C 313.605 210.300 313.650 210.255 313.650 210.200 V 201.700 C 313.650 201.600 313.550 201.700 313.650 201.700 H 316.650 C 316.705 201.700 316.750 201.655 316.750 201.600 V 195.400 C 316.750 195.345 316.705 195.300 316.650 195.300 H 313.650 C 313.550 195.300 313.650 195.400 313.650 195.300 V 189.300 C 313.650 189.200 313.550 189.300 313.650 189.300 H 316.650 C 316.705 189.300 316.750 189.255 316.750 189.200 V 183.000 C 316.750 182.945 316.705 182.900 316.650 182.900 H 313.650 C 313.550 182.900 313.650 183.000 313.650 182.900 V 176.900 C 313.650 176.800 313.550 176.900 313.650 176.900 H 316.650 C 316.705 176.900 316.750 176.855 316.750 176.800 V 170.600 C 316.750 170.545 316.705 170.500 316.650 170.500 H 313.650 C 313.550 170.500 313.650 170.600 313.650 170.500 V 164.500 C 313.650 164.400 313.550 164.500 313.650 164.500 H 316.650 C 316.705 164.500 316.750 164.455 316.750 164.400 V 158.200 C 316.750 158.145 316.705 158.100 316.650 158.100 H 313.650 C 313.550 158.100 313.650 158.200 313.650 158.100 V 152.100 C 313.650 152.000 313.550 152.100 313.650 152.100 H 316.650 C 316.705 152.100 316.750 152.055 316.750 152.000 V 145.800 C 316.750 145.745 316.705 145.700 316.650 145.700 H 313.650 C 313.550 145.700 313.650 145.800 313.650 145.700 V 139.700 C 313.650 139.600 313.550 139.700 313.650 139.700 H 316.650 C 316.705 139.700 316.750 139.655 316.750 139.600 V 133.400 C 316.750 133.345 316.705 133.300 316.650 133.300 H 313.650 C 313.550 133.300 313.650 133.400 313.650 133.300 V 127.300 C 313.650 127.200 313.550 127.300 313.650 127.300 H 316.650 C 316.705 127.300 316.750 127.255 316.750 127.200 V 121.000 C 316.750 120.945 316.705 120.900 316.650 120.900 H 313.650 C 313.550 120.900 313.650 121.000 313.650 120.900 V 114.900 C 313.650 114.800 313.550 114.900 313.650 114.900 H 316.650 C 316.705 114.900 316.750 114.855 316.750 114.800 V 108.600 C 316.750 108.545 316.705 108.500 316.650 108.500 H 313.650 C 313.550 108.500 313.650 108.600 313.650 108.500 V 102.500 C 313.650 102.400 313.550 102.500 313.650 102.500 H 316.650 C 316.705 102.500 316.750 102.455 316.750 102.400 V 96.200 C 316.750 96.145 316.705 96.100 316.650 96.100 H 313.650 C 313.550 96.100 313.650 96.200 313.650 96.100 V 90.100 C 313.650 90.000 313.550 90.100 313.650 90.100 H 316.650 C 316.705 90.100 316.750 90.055 316.750 90.000 V 83.800 C 316.750 83.745 316.705 83.700 316.650 83.700 H 313.650 C 313.550 83.700 313.650 83.800 313.650 83.700 V 77.700 C 313.650 77.600 313.550 77.700 313.650 77.700 H 316.650 C 316.705 77.700 316.750 77.655 316.750 77.600 V 71.400 C 316.750 71.345 316.705 71.300 316.650 71.300 H 313.650 C 313.550 71.300 313.650 71.400 313.650 71.300 V 65.300 C 313.650 65.200 313.550 65.300 313.650 65.300 H 316.650 C 316.705 65.300 316.750 65.255 316.750 65.200 V 59.000 C 316.750 58.945 316.705 58.900 316.650 58.900 H 313.650 C 313.550 58.900 313.650 59.000 313.650 58.900 V 52.900 C 313.650 52.800 313.550 52.900 313.650 52.900 H 316.650 C 316.705 52.900 316.750 52.855 316.750 52.800 V 46.600 C 316.750 46.545 316.705 46.500 316.650 46.500 H 313.650 C 313.550 46.500 313.650 46.600 313.650 46.500 V 40.500 C 313.650 40.400 313.550 40.500 313.650 40.500 H 316.650 C 316.705 40.500 316.750 40.455 316.750 40.400 V 34.200 C 316.750 34.145 316.705 34.100 316.650 34.100 H 313.650 C 313.550 34.100 313.650 34.200 313.650 34.100 V 28.100 C 313.650 28.000 313.550 28.100 313.650 28.100 H 316.650 C 316.705 28.100 316.750 28.055 316.750 28.000 V 21.800 C 316.750 21.745 316.705 21.700 316.650 21.700 H 313.650 C 313.550 21.700 313.650 21.800 313.650 21.700 V 13.200 C 313.650 13.145 313.605 13.100 313.550 13.100 H 305.650 C 305.550 13.100 305.650 13.200 305.650 13.100 V 10.100 C 305.650 10.045 305.605 10.000 305.550 10.000 H 299.350 C 299.295 10.000 299.250 10.045 299.250 10.100 V 13.100 C 299.250 13.200 299.350 13.100 299.250 13.100 H 293.250 C 293.150 13.100 293.250 13.200 293.250 13.100 V 10.100 C 293.250 10.045 293.205 10.000 293.150 10.000 H 286.950 C 286.895 10.000 286.850 10.045 286.850 10.100 V 13.100 C 286.850 13.200 286.950 13.100 286.850 13.100 H 280.850 C 280.750 13.100 280.850 13.200 280.850 13.100 V 10.100 C 280.850 10.045 280.805 10.000 280.750 10.000 H 274.550 C 274.495 10.000 274.450 10.045 274.450 10.100 V 13.100 C 274.450 13.200 274.550 13.100 274.450 13.100 H 268.450 C 268.350 13.100 268.450 13.200 268.450 13.100 V 10.100 C 268.450 10.045 268.405 10.000 268.350 10.000 H 262.150 C 262.095 10.000 262.050 10.045 262.050 10.100 V 13.100 C 262.050 13.200 262.150 13.100 262.050 13.100 H 256.050 C 255.950 13.100 256.050 13.200 256.050 13.100 V 10.100 C 256.050 10.045 256.005 10.000 255.950 10.000 H 249.750 C 249.695 10.000 249.650 10.045 249.650 10.100 V 13.100 C 249.650 13.200 249.750 13.100 249.650 13.100 H 243.650 C 243.550 13.100 243.650 13.200 243.650 13.100 V 10.100 C 243.650 10.045 243.605 10.000 243.550 10.000 H 237.350 C 237.295 10.000 237.250 10.045 237.250 10.100 V 13.100 C 237.250 13.200 237.350 13.100 237.250 13.100 H 231.250 C 231.150 13.100 231.250 13.200 231.250 13.100 V 10.100 C 231.250 10.045 231.205 10.000 231.150 10.000 H 224.950 C 224.895 10.000 224.850 10.045 224.850 10.100 V 13.100 C 224.850 13.200 224.950 13.100 224.850 13.100 H 218.850 C 218.750 13.100 218.850 13.200 218.850 13.100 V 10.100 C 218.850 10.045 218.805 10.000 218.750 10.000 H 212.550 C 212.495 10.000 212.450 10.045 212.450 10.100 V 13.100 C 212.450 13.200 212.550 13.100 212.450 13.100 H 206.450 C 206.350 13.100 206.450 13.200 206.450 13.100 V 10.100 C 206.450 10.045 206.405 10.000 206.350 10.000 H 200.150 C 200.095 10.000 200.050 10.045 200.050 10.100 V 13.100 C 200.050 13.200 200.150 13.100 200.050 13.100 H 194.050 C 193.950 13.100 194.050 13.200 194.050 13.100 V 10.100 C 194.050 10.045 194.005 10.000 193.950 10.000 H 187.750 C 187.695 10.000 187.650 10.045 187.650 10.100 V 13.100 C 187.650 13.200 187.750 13.100 187.650 13.100 H 181.650 C 181.550 13.100 181.650 13.200 181.650 13.100 V 10.100 C 181.650 10.045 181.605 10.000 181.550 10.000 H 175.350 C 175.295 10.000 175.250 10.045 175.250 10.100 V 13.100 C 175.250 13.200 175.350 13.100 175.250 13.100 H 167.350 C 167.295 13.100 167.250 13.145 167.250 13.200 V 21.700 C 167.250 21.800 167.350 21.700 167.250 21.700 H 164.250 C 164.195 21.700 164.150 21.745 164.150 21.800 V 28.000 C 164.150 28.055 164.195 28.100 164.250 28.100 H 167.250 C 167.350 28.100 167.250 28.000 167.250 28.100 V 34.100 C 167.250 34.200 167.350 34.100 167.250 34.100 H 164.250 C 164.195 34.100 164.150 34.145 164.150 34.200 V 40.400 C 164.150 40.455 164.195 40.500 164.250 40.500 H 167.250 C 167.350 40.500 167.250 40.400 167.250 40.500 V 46.500 C 167.250 46.600 167.350 46.500 167.250 46.500 H 164.250 C 164.195 46.500 164.150 46.545 164.150 46.600 V 52.800 C 164.150 52.855 164.195 52.900 164.250 52.900 H 167.250 C 167.350 52.900 167.250 52.800 167.250 52.900 V 58.900 C 167.250 59.000 167.350 58.900 167.250 58.900 H 164.250 C 164.195 58.900 164.150 58.945 164.150 59.000 V 65.200 C 164.150 65.255 164.195 65.300 164.250 65.300 H 167.250 C 167.350 65.300 167.250 65.200 167.250 65.300 V 71.300 C 167.250 71.400 167.350 71.300 167.250 71.300 H 164.250 C 164.195 71.300 164.150 71.345 164.150 71.400 V 77.600 C 164.150 77.655 164.195 77.700 164.250 77.700 H 167.250 C 167.350 77.700 167.250 77.600 167.250 77.700 V 83.700 C 167.250 83.800 167.350 83.700 167.250 83.700 H 164.250 C 164.195 83.700 164.150 83.745 164.150 83.800 V 90.000 C 164.150 90.055 164.195 90.100 164.250 90.100 H 167.250 C 167.350 90.100 167.250 90.000 167.250 90.100 V 96.100 C 167.250 96.200 167.350 96.100 167.250 96.100 H 164.250 C 164.195 96.100 164.150 96.145 164.150 96.200 V 102.400 C 164.150 102.455 164.195 102.500 164.250 102.500 H 167.250 C 167.350 102.500 167.250 102.400 167.250 102.500 V 108.500 C 167.250 108.600 167.350 108.500 167.250 108.500 H 164.250 C 164.195 108.500 164.150 108.545 164.150 108.600 V 114.800 C 164.150 114.855 164.195 114.900 164.250 114.900 H 167.250 C 167.350 114.900 167.250 114.800 167.250 114.900 V 120.900 C 167.250 121.000 167.350 120.900 167.250 120.900 H 164.250 C 164.195 120.900 164.150 120.945 164.150 121.000 V 127.200 C 164.150 127.255 164.195 127.300 164.250 127.300 H 167.250 C 167.350 127.300 167.250 127.200 167.250 127.300 V 133.300 C 167.250 133.400 167.350 133.300 167.250 133.300 H 164.250 C 164.195 133.300 164.150 133.345 164.150 133.400 V 139.600 C 164.150 139.655 164.195 139.700 164.250 139.700 H 167.250 C 167.350 139.700 167.250 139.600 167.250 139.700 V 145.700 C 167.250 145.800 167.350 145.700 167.250 145.700 H 164.250 C 164.195 145.700 164.150 145.745 164.150 145.800 V 152.000 C 164.150 152.055 164.195 152.100 164.250 152.100 H 167.250 C 167.350 152.100 167.250 152.000 167.250 152.100 V 158.100 C 167.250 158.200 167.350 158.100 167.250 158.100 H 164.250 C 164.195 158.100 164.150 158.145 164.150 158.200 V 164.400 C 164.150 164.455 164.195 164.500 164.250 164.500 H 167.250 C 167.350 164.500 167.250 164.400 167.250 164.500 V 170.500 C 167.250 170.600 167.350 170.500 167.250 170.500 H 164.250 C 164.195 170.500 164.150 170.545 164.150 170.600 V 176.800 C 164.150 176.855 164.195 176.900 164.250 176.900 H 167.250 C 167.350 176.900 167.250 176.800 167.250 176.900 V 182.900 C 167.250 183.000 167.350 182.900 167.250 182.900 H 164.250 C 164.195 182.900 164.150 182.945 164.150 183.000 V 189.200 C 164.150 189.255 164.195 189.300 164.250 189.300 H 167.250 C 167.350 189.300 167.250 189.200 167.250 189.300 V 195.300 C 167.250 195.400 167.350 195.300 167.250 195.300 H 164.250 C 164.195 195.300 164.150 195.345 164.150 195.400 V 201.600 C 164.150 201.655 164.195 201.700 164.250 201.700 H 167.250 C 167.350 201.700 167.250 201.600 167.250 201.700 V 210.200 C 167.250 210.255 167.295 210.300 167.350 210.300 Z"
       stroke="rgb(0,0,0)"
       stroke-width="0.20"
       id="path21" />
  </g>
  <circle
     id="path30"
     cx="36.884361"
     cy="236.65915"
     r="7.8655243"
     style="fill:none;stroke:#1a1a1a;stroke-width:0.26895162" />
  <circle
     style="fill:none;stroke:#1a1a1a;stroke-width:0.26895162"
     r="7.8655243"
     cy="266.14276"
     cx="36.884361"
     id="circle41" />
  <circle
     id="circle43"
     cx="36.884361"
     cy="295.62634"
     r="7.8655243"
     style="fill:none;stroke:#1a1a1a;stroke-width:0.26895162" />
  <circle
     id="path30-3"
     cx="66.037903"
     cy="236.65915"
     r="7.8655243"
     style="fill:none;stroke:#1a1a1a;stroke-width:0.26895162" />
  <circle
     style="fill:none;stroke:#1a1a1a;stroke-width:0.26895162"
     r="7.8655243"
     cy="266.14276"
     cx="66.037903"
     id="circle41-6" />
  <circle
     id="circle43-7"
     cx="66.037903"
     cy="295.62634"
     r="7.8655243"
     style="fill:none;stroke:#1a1a1a;stroke-width:0.26895162" />
  <g
     id="g3791"
     transform="translate(26.695942,-11.440859)">
    <rect
       y="240.09581"
       x="97.645798"
       height="16.008396"
       width="16.008396"
       id="rect3769"
       style="fill:none;stroke:#1a1a1a;stroke-width:0.19160359" />
    <circle
       r="1.8693517"
       cy="248.10001"
       cx="92"
       id="path3771"
       style="fill:none;stroke:#1a1a1a;stroke-width:0.26129651" />
    <circle
       r="1.8693517"
       cy="248.10001"
       cx="119.3"
       id="path3771-5"
       style="fill:none;stroke:#1a1a1a;stroke-width:0.26129651" />
  </g>
  <g
     transform="translate(26.695942,18.042753)"
     id="g3799">
    <rect
       style="fill:none;stroke:#1a1a1a;stroke-width:0.19160359"
       id="rect3793"
       width="16.008396"
       height="16.008396"
       x="97.645798"
       y="240.09581" />
    <circle
       style="fill:none;stroke:#1a1a1a;stroke-width:0.26129651"
       id="circle3795"
       cx="92"
       cy="248.10001"
       r="1.8693517" />
    <circle
       style="fill:none;stroke:#1a1a1a;stroke-width:0.26129651"
       id="circle3797"
       cx="119.3"
       cy="248.10001"
       r="1.8693517" />
  </g>
  <g
     id="g3807"
     transform="translate(26.695942,47.526335)">
    <rect
       y="240.09581"
       x="97.645798"
       height="16.008396"
       width="16.008396"
       id="rect3801"
       style="fill:none;stroke:#1a1a1a;stroke-width:0.19160359" />
    <circle
       r="1.8693517"
       cy="248.10001"
       cx="92"
       id="circle3803"
       style="fill:none;stroke:#1a1a1a;stroke-width:0.26129651" />
    <circle
       r="1.8693517"
       cy="248.10001"
       cx="119.3"
       id="circle3805"
       style="fill:none;stroke:#1a1a1a;stroke-width:0.26129651" />
  </g>
  <circle
     style="fill:none;stroke:#1a1a1a;stroke-width:0.26895162"
     r="7.8655243"
     cy="281.41211"
     cx="96.666718"
     id="circle41-6-3" />
  <text
     xml:space="preserve"
     style="font-style:normal;font-variant:normal;font-weight:normal;font-stretch:normal;font-size:10.58333302px;line-height:1.25;font-family:'Google Sans';-inkscape-font-specification:'Google Sans, Normal';font-variant-ligatures:normal;font-variant-caps:normal;font-variant-numeric:normal;font-feature-settings:normal;text-align:start;letter-spacing:0px;word-spacing:0px;writing-mode:lr-tb;text-anchor:start;fill:#000000;fill-opacity:1;stroke:none;stroke-width:0.26458335"
     x="18.751194"
     y="230.45"
     id="text3826"><tspan
       sodipodi:role="line"
       id="tspan3824"
       x="18.751194"
       y="230.45"
       style="font-style:normal;font-variant:normal;font-weight:normal;font-stretch:normal;font-size:10.58333302px;font-family:'Google Sans';-inkscape-font-specification:'Google Sans, Normal';font-variant-ligatures:normal;font-variant-caps:normal;font-variant-numeric:normal;font-feature-settings:normal;text-align:start;writing-mode:lr-tb;text-anchor:start;stroke-width:0.26458335">J1</tspan></text>
  <text
     xml:space="preserve"
     style="font-style:normal;font-variant:normal;font-weight:normal;font-stretch:normal;font-size:10.58333302px;line-height:1.25;font-family:'Google Sans';-inkscape-font-specification:'Google Sans, Normal';font-variant-ligatures:normal;font-variant-caps:normal;font-variant-numeric:normal;font-feature-settings:normal;text-align:start;letter-spacing:0px;word-spacing:0px;writing-mode:lr-tb;text-anchor:start;fill:#000000;fill-opacity:1;stroke:none;stroke-width:0.26458335"
     x="18.792534"
     y="260.00336"
     id="text3826-5"><tspan
       sodipodi:role="line"
       x="18.792534"
       y="260.00336"
       style="font-style:normal;font-variant:normal;font-weight:normal;font-stretch:normal;font-size:10.58333302px;font-family:'Google Sans';-inkscape-font-specification:'Google Sans, Normal';font-variant-ligatures:normal;font-variant-caps:normal;font-variant-numeric:normal;font-feature-settings:normal;text-align:start;writing-mode:lr-tb;text-anchor:start;stroke-width:0.26458335"
       id="tspan3846">J2</tspan></text>
  <text
     xml:space="preserve"
     style="font-style:normal;font-variant:normal;font-weight:normal;font-stretch:normal;font-size:10.58333302px;line-height:1.25;font-family:'Google Sans';-inkscape-font-specification:'Google Sans, Normal';font-variant-ligatures:normal;font-variant-caps:normal;font-variant-numeric:normal;font-feature-settings:normal;text-align:start;letter-spacing:0px;word-spacing:0px;writing-mode:lr-tb;text-anchor:start;fill:#000000;fill-opacity:1;stroke:none;stroke-width:0.26458335"
     x="18.686596"
     y="289.48694"
     id="text3826-5-2"><tspan
       sodipodi:role="line"
       x="18.686596"
       y="289.48694"
       style="font-style:normal;font-variant:normal;font-weight:normal;font-stretch:normal;font-size:10.58333302px;font-family:'Google Sans';-inkscape-font-specification:'Google Sans, Normal';font-variant-ligatures:normal;font-variant-caps:normal;font-variant-numeric:normal;font-feature-settings:normal;text-align:start;writing-mode:lr-tb;text-anchor:start;stroke-width:0.26458335"
       id="tspan3846-9">J3</tspan><tspan
       sodipodi:role="line"
       x="18.686596"
       y="302.71609"
       style="font-style:normal;font-variant:normal;font-weight:normal;font-stretch:normal;font-size:10.58333302px;font-family:'Google Sans';-inkscape-font-specification:'Google Sans, Normal';font-variant-ligatures:normal;font-variant-caps:normal;font-variant-numeric:normal;font-feature-settings:normal;text-align:start;writing-mode:lr-tb;text-anchor:start;stroke-width:0.26458335"
       id="tspan3868" /></text>
  <text
     id="text3874"
     y="230.45"
     x="47.713531"
     style="font-style:normal;font-variant:normal;font-weight:normal;font-stretch:normal;font-size:10.58333302px;line-height:1.25;font-family:'Google Sans';-inkscape-font-specification:'Google Sans, Normal';font-variant-ligatures:normal;font-variant-caps:normal;font-variant-numeric:normal;font-feature-settings:normal;text-align:start;letter-spacing:0px;word-spacing:0px;writing-mode:lr-tb;text-anchor:start;fill:#000000;fill-opacity:1;stroke:none;stroke-width:0.26458335"
     xml:space="preserve"><tspan
       style="font-style:normal;font-variant:normal;font-weight:normal;font-stretch:normal;font-size:10.58333302px;font-family:'Google Sans';-inkscape-font-specification:'Google Sans, Normal';font-variant-ligatures:normal;font-variant-caps:normal;font-variant-numeric:normal;font-feature-settings:normal;text-align:start;writing-mode:lr-tb;text-anchor:start;stroke-width:0.26458335"
       y="230.45"
       x="47.713531"
       sodipodi:role="line"
       id="tspan3878">J4</tspan></text>
  <text
     id="text3874-1"
     y="259.93359"
     x="47.878895"
     style="font-style:normal;font-variant:normal;font-weight:normal;font-stretch:normal;font-size:10.58333302px;line-height:1.25;font-family:'Google Sans';-inkscape-font-specification:'Google Sans, Normal';font-variant-ligatures:normal;font-variant-caps:normal;font-variant-numeric:normal;font-feature-settings:normal;text-align:start;letter-spacing:0px;word-spacing:0px;writing-mode:lr-tb;text-anchor:start;fill:#000000;fill-opacity:1;stroke:none;stroke-width:0.26458335"
     xml:space="preserve"><tspan
       style="font-style:normal;font-variant:normal;font-weight:normal;font-stretch:normal;font-size:10.58333302px;font-family:'Google Sans';-inkscape-font-specification:'Google Sans, Normal';font-variant-ligatures:normal;font-variant-caps:normal;font-variant-numeric:normal;font-feature-settings:normal;text-align:start;writing-mode:lr-tb;text-anchor:start;stroke-width:0.26458335"
       y="259.93359"
       x="47.878895"
       sodipodi:role="line"
       id="tspan3878-2">J5</tspan></text>
  <text
     id="text3874-1-7"
     y="289.48694"
     x="47.749706"
     style="font-style:normal;font-variant:normal;font-weight:normal;font-stretch:normal;font-size:10.58333302px;line-height:1.25;font-family:'Google Sans';-inkscape-font-specification:'Google Sans, Normal';font-variant-ligatures:normal;font-variant-caps:normal;font-variant-numeric:normal;font-feature-settings:normal;text-align:start;letter-spacing:0px;word-spacing:0px;writing-mode:lr-tb;text-anchor:start;fill:#000000;fill-opacity:1;stroke:none;stroke-width:0.26458335"
     xml:space="preserve"><tspan
       style="font-style:normal;font-variant:normal;font-weight:normal;font-stretch:normal;font-size:10.58333302px;font-family:'Google Sans';-inkscape-font-specification:'Google Sans, Normal';font-variant-ligatures:normal;font-variant-caps:normal;font-variant-numeric:normal;font-feature-settings:normal;text-align:start;writing-mode:lr-tb;text-anchor:start;stroke-width:0.26458335"
       y="289.48694"
       x="47.749706"
       sodipodi:role="line"
       id="tspan3878-2-0">J6</tspan></text>
  <text
     id="text3874-1-7-9"
     y="299.81467"
     x="85.505203"
     style="font-style:normal;font-variant:normal;font-weight:normal;font-stretch:normal;font-size:10.58333302px;line-height:1.25;font-family:'Google Sans';-inkscape-font-specification:'Google Sans, Normal';font-variant-ligatures:normal;font-variant-caps:normal;font-variant-numeric:normal;font-feature-settings:normal;text-align:start;letter-spacing:0px;word-spacing:0px;writing-mode:lr-tb;text-anchor:start;fill:#000000;fill-opacity:1;stroke:none;stroke-width:0.26458335"
     xml:space="preserve"><tspan
       style="font-style:normal;font-variant:normal;font-weight:normal;font-stretch:normal;font-size:10.58333302px;font-family:'Google Sans';-inkscape-font-specification:'Google Sans, Normal';font-variant-ligatures:normal;font-variant-caps:normal;font-variant-numeric:normal;font-feature-settings:normal;text-align:start;writing-mode:lr-tb;text-anchor:start;stroke-width:0.26458335"
       y="299.81467"
       x="85.505203"
       sodipodi:role="line"
       id="tspan3878-2-0-3">PWR</tspan></text>
  <text
     id="text3874-1-7-9-6"
     y="228.81821"
     x="143.42015"
     style="font-style:normal;font-variant:normal;font-weight:normal;font-stretch:normal;font-size:8.46666718px;line-height:1.25;font-family:'Google Sans';-inkscape-font-specification:'Google Sans, Normal';font-variant-ligatures:normal;font-variant-caps:normal;font-variant-numeric:normal;font-feature-settings:normal;text-align:start;letter-spacing:0px;word-spacing:0px;writing-mode:lr-tb;text-anchor:start;fill:#000000;fill-opacity:1;stroke:none;stroke-width:0.26458335"
     xml:space="preserve"><tspan
       style="font-style:normal;font-variant:normal;font-weight:normal;font-stretch:normal;font-size:8.46666718px;font-family:'Google Sans';-inkscape-font-specification:'Google Sans, Normal';font-variant-ligatures:normal;font-variant-caps:normal;font-variant-numeric:normal;font-feature-settings:normal;text-align:start;writing-mode:lr-tb;text-anchor:start;stroke-width:0.26458335"
       y="228.81821"
       x="143.42015"
       sodipodi:role="line"
       id="tspan3878-2-0-3-0">RJ1</tspan></text>
  <text
     id="text3874-1-7-9-6-6"
     y="258.37158"
     x="143.46149"
     style="font-style:normal;font-variant:normal;font-weight:normal;font-stretch:normal;font-size:8.46666718px;line-height:1.25;font-family:'Google Sans';-inkscape-font-specification:'Google Sans, Normal';font-variant-ligatures:normal;font-variant-caps:normal;font-variant-numeric:normal;font-feature-settings:normal;text-align:start;letter-spacing:0px;word-spacing:0px;writing-mode:lr-tb;text-anchor:start;fill:#000000;fill-opacity:1;stroke:none;stroke-width:0.26458335"
     xml:space="preserve"><tspan
       style="font-style:normal;font-variant:normal;font-weight:normal;font-stretch:normal;font-size:8.46666718px;font-family:'Google Sans';-inkscape-font-specification:'Google Sans, Normal';font-variant-ligatures:normal;font-variant-caps:normal;font-variant-numeric:normal;font-feature-settings:normal;text-align:start;writing-mode:lr-tb;text-anchor:start;stroke-width:0.26458335"
       y="258.37158"
       x="143.46149"
       sodipodi:role="line"
       id="tspan3878-2-0-3-0-2">RJ2</tspan></text>
  <text
     id="text3874-1-7-9-6-6-6"
     y="287.85516"
     x="143.35555"
     style="font-style:normal;font-variant:normal;font-weight:normal;font-stretch:normal;font-size:8.46666718px;line-height:1.25;font-family:'Google Sans';-inkscape-font-specification:'Google Sans, Normal';font-variant-ligatures:normal;font-variant-caps:normal;font-variant-numeric:normal;font-feature-settings:normal;text-align:start;letter-spacing:0px;word-spacing:0px;writing-mode:lr-tb;text-anchor:start;fill:#000000;fill-opacity:1;stroke:none;stroke-width:0.26458335"
     xml:space="preserve"><tspan
       style="font-style:normal;font-variant:normal;font-weight:normal;font-stretch:normal;font-size:8.46666718px;font-family:'Google Sans';-inkscape-font-specification:'Google Sans, Normal';font-variant-ligatures:normal;font-variant-caps:normal;font-variant-numeric:normal;font-feature-settings:normal;text-align:start;writing-mode:lr-tb;text-anchor:start;stroke-width:0.26458335"
       y="287.85516"
       x="143.35555"
       sodipodi:role="line"
       id="tspan3878-2-0-3-0-2-1">RJ3</tspan></text>
  <circle
     style="fill:none;stroke:#1a1a1a;stroke-width:0.19722109"
     id="path59"
     cx="50.700001"
     cy="369.20001"
     r="14.40139" />
  <circle
     r="14.40139"
     cy="369.20001"
     cx="120.7"
     id="circle61"
     style="fill:none;stroke:#1a1a1a;stroke-width:0.19722109" />
</svg>
