<?xml version="1.0"?>
<!DOCTYPE svg PUBLIC "-//W3C//DTD SVG 1.1//EN" "http://www.w3.org/Graphics/SVG/1.1/DTD/svg11.dtd">
<svg width="90.37847358712582mm" height="90.37847358712597mm" viewBox="0 0 90.37847358712582 90.37847358712597" xmlns="http://www.w3.org/2000/svg" version="1.1">
<g id="Sketch001" transform="translate(45.189237,45.189237) scale(1,-1)">
<path id="Sketch001_w0000"  d="M 0.7418554038686329 44.30317332702245 A 0.15 0.15 0 0 1 0.590734 44.1736A 1 1 0 0 0 0.498876 43.8712A 0.555 0.555 0 0 0 -0.498876 43.8712A 1 1 0 0 0 -0.590734 44.1736A 0.15 0.15 0 0 1 -0.741855 44.3032A 44.3094 44.3094 0 0 1 -1.24655 44.2918L -1.3917004939157414 44.15559025815413 L -1.4698990604144302 43.84938846294804 C -1.5536747923130896 43.4501207034881 -2.3474186372592154 43.414473626308165 -2.466647198716325 43.80462445244102 L -2.5719786780835605 44.1025839037833 L -2.728762760147263 44.22527976263421 L -3.2324369271487097 44.191321181838816 L -3.3713322100828833 44.04869011037694 L -3.435714344233599 43.73928827458393 C -3.5014926392521835 43.33666396719089 -4.29283793689304 43.26544160130034 -4.429450493747949 43.64985040232973 L -4.54804381156016 43.94278414937874 L -4.710174751377901 44.05832237042068 L -5.211818206041988 44.001800727602046 L -5.344174511844674 43.85308176283294 L -5.39461055659738 43.541102980574294 C -5.442258946003672 43.13593295702088 -6.22961203222412 43.029278734786246 -6.383333464968084 43.40717136254501 L -6.5149497900659075 43.69448947571858 L -6.682101077501704 43.80263738035052 L -7.180703576670769 43.72366650257522 L -7.306254357356403 43.56915914470203 L -7.342642741229131 43.25523169972625 C -7.372065267508039 42.848331918518824 -8.15384051797545 42.70646062734985 -8.324361252100573 43.07707605637661 L -8.468735526721112 43.35819991523188 L -8.640570541327 43.45873970796647 L -9.135127965923047 43.35747863207271 L -9.253620378927957 43.197494038351934 L -9.275887820558248 42.882250138754934 C -9.287025230657472 42.474440041901545 -10.061648254058106 42.297637391698 -10.248624883499216 42.66022925184122 L -10.405466357067088 42.934592710339146 L -10.58163904599191 43.02732191741394 L -11.071155423178805 42.90397456973247 L -11.182350840552482 42.73883492784471 L -11.1904524962763 42.422909432886755 C -11.183282360934104 42.015010295650015 -11.949193169587701 41.803632343420084 -12.152249148296434 42.1574704229281 L -12.321241962956753 42.42452094957628 L -12.501397537850538 42.50925282670885 L -12.984887046790757 42.36406761238251 L -13.088561535760785 42.1941054915893 L -13.082481089921696 41.878134633173076 C -13.057017848836425 41.470967910131115 -13.81267400030379 41.225440342939834 -14.031400400562257 41.56981205901021 L -14.2122042272763 41.829011849587744 L -14.39597987878679 41.905575758053914 L -14.872468835953377 41.73884506078274 L -14.968413609896249 41.56440274217633 L -14.948163307702968 41.24902284356044 C -14.904458240453456 40.843408514306624 -15.648337943810251 40.56422579199891 -15.882294279757 40.89843762582536 L -16.07454500367962 41.14926468644903 L -16.261570632102018 41.21750643672647 L -16.73009945214764 41.029566029945784 L -16.818121291057224 40.85099481714063 L -16.783741913923407 40.53684101146929 C -16.721883036698717 40.13359592928255 -17.452488217219823 39.8213202887067 -17.701203331929797 40.144699182133714 L -17.904513785688245 40.38664838048414 L -18.09441274629677 40.446430542769576 L -18.554037874530913 40.23765891344705 L -18.633959514137807 40.05531842510101 L -18.5855202975537 39.743023376330456 C -18.505632185900204 39.34295962314135 -19.221491501982943 38.99821994587906 -19.48446451631477 39.31011465685137 L -19.69842525971226 39.542698739442315 L -19.890815121272503 39.59390092041687 L -20.340610933855018 39.36471850683008 L -20.412271422613244 39.17897595242032 L -20.34986991671464 38.86916858121771 C -20.25211345465751 38.473091832183655 -20.951785260907684 38.096582378066074 -21.22848658220765 38.396364792143544 L -21.452666726781445 38.61911536558557 L -21.64716004171597 38.66163445087088 L -22.086220709740324 38.41250279590058 L -22.14947573296229 38.2237322362126 L -22.073237606077498 37.91703645339355 C -21.957809662121637 37.525744354376194 -22.639884912635633 37.118223363336966 -22.92975730126678 37.405289758633515 L -23.163705378040184 37.61775823291595 L -23.359910462696398 37.65150859473281 L -23.787351776408542 37.382929416377024 L -23.842073946895624 37.191511010195924 L -23.752152732466218 36.88854446025117 C -23.61928576312926 36.5028250214637 -24.282390849124962 36.0651131865449 -24.584850540673546 36.338885449543916 L -24.82809540935437 36.54064394143541 L -25.025617132803255 36.56555761104671 L -25.440578282282384 36.27807179202741 L -25.486657396865787 36.08439103054879 L -25.38323418425069 35.78576384779032 C -25.233195765926617 35.40639385684996 -25.875995282008574 34.939372671435194 -26.190433162907947 35.19929946123336 L -26.442484960702327 35.389941655981794 L -26.64092554047958 35.405968460572495 L -27.04257084919476 35.10015495906984 L -27.07991411067005 34.904601889571765 L -26.963197180455627 34.610915469403565 C -26.796289470551443 34.23865892698445 -27.417488904039672 33.74326890958881 -27.74327173824396 33.98882676822319 L -28.003622866374855 34.16796873781951 L -28.202582669561792 34.17507640153807 L -28.59010327731329 33.85155108524561 L -28.618635481321597 33.654519525585336 L -28.488859885872298 33.366365313373066 C -28.30541901430323 33.001971894610755 -28.90376735220957 32.479210694801495 -29.2402390564467 32.70990510142426 L -29.50836520239027 32.87718607778238 L -29.707443550421367 32.875360286739976 L -30.08005904227743 32.53477469258911 L -30.09972272875701 32.336661438106326 L -29.9571498188512 32.054619738085066 C -29.757545211119787 31.698823282830553 -30.331837459521473 31.149743672093564 -30.67832042455765 31.365110038871236 L -30.953681617938894 31.52019314036696 L -31.152477593515087 31.509437571463767 L -31.509437571463767 31.15247759351511 L -31.52019314036695 30.953681617938898 L -31.365110038871208 30.67832042455764 C -31.149743672093518 30.331837459521452 -31.698823282830595 29.757545211119837 -32.05461973808509 29.95714981885123 L -32.336661438106326 30.099722728757023 L -32.534774692589096 30.080059042277433 L -32.875360286739976 29.707443550421388 L -32.877186077782376 29.50836520239028 L -32.70990510142424 29.240239056446693 C -32.479210694801445 28.90376735220954 -33.001971894610804 28.305419014303283 -33.366365313373095 28.488859885872333 L -33.65451952558534 28.618635481321604 L -33.85155108524559 28.590103277313297 L -34.17507640153808 28.20258266956182 L -34.16796873781951 28.00362286637487 L -33.98882676822318 27.74327173824396 C -33.7432689095888 27.417488904039654 -34.23865892698449 26.796289470551503 -34.610915469403594 26.96319718045566 L -34.90460188957178 27.079914110670067 L -35.100154959069826 27.042570849194767 L -35.40596846057251 26.640925540479607 L -35.389941655981794 26.442484960702338 L -35.199299461233345 26.19043316290795 C -34.93937267143518 25.87599528200853 -35.406393856849974 25.233195765926673 -35.78576384779035 25.383234184250725 L -36.0843910305488 25.48665739686581 L -36.2780717920274 25.440578282282388 L -36.565557611046714 25.02561713280329 L -36.54064394143542 24.828095409354376 L -36.33888544954391 24.584850540673553 C -36.065113186544856 24.282390849124944 -36.5028250214638 23.61928576312932 -36.8885444602512 23.752152732466246 L -37.19151101019595 23.842073946895646 L -37.38292941637701 23.78735177640855 L -37.65150859473283 23.359910462696433 L -37.61775823291595 23.1637053780402 L -37.405289758633515 22.929757301266783 C -37.118223363336924 22.63988491263562 -37.52574435437627 21.957809662121683 -37.91703645339358 22.07323760607753 L -38.22373223621262 22.149475732962312 L -38.41250279590058 22.08622070974034 L -38.66163445087091 21.647160041716013 L -38.61911536558557 21.45266672678146 L -38.396364792143544 21.228486582207665 C -38.09658237806603 20.951785260907673 -38.47309183218373 20.252113454657557 -38.86916858121775 20.34986991671467 L -39.178975952420345 20.412271422613273 L -39.36471850683007 20.340610933855036 L -39.59390092041691 19.890815121272542 L -39.54269873944233 19.698425259712277 L -39.31011465685137 19.48446451631478 C -38.99821994587903 19.22149150198293 -39.342959623141425 18.505632185900275 -39.743023376330505 18.585520297553735 L -40.05531842510105 18.633959514137835 L -40.23765891344705 18.55403787453093 L -40.44643054276962 18.094412746296808 L -40.38664838048416 17.904513785688263 L -40.144699182133735 17.701203331929808 C -39.82132028870668 17.45248821721982 -40.13359592928265 16.721883036698774 -40.536841011469356 16.78374191392344 L -40.85099481714067 16.818121291057246 L -41.029566029945784 16.730099452147662 L -41.21750643672651 16.261570632102057 L -41.14926468644905 16.07454500367964 L -40.89843762582538 15.882294279757012 C -40.564225791998894 15.648337943810247 -40.84340851430673 14.904458240453515 -41.2490228435605 14.948163307703002 L -41.564402742176384 14.96841360989627 L -41.73884506078275 14.872468835953399 L -41.90557575805397 14.395979878786829 L -41.82901184958777 14.21220422727632 L -41.56981205901023 14.031400400562266 C -41.22544034293984 13.812674000303799 -41.47096791013121 13.057017848836463 -41.87813463317313 13.082481089921725 L -42.194105491589355 13.088561535760805 L -42.36406761238254 12.984887046790776 L -42.50925282670891 12.501397537850574 L -42.424520949576305 12.321241962956773 L -42.15747042292813 12.152249148296445 C -41.803632343420084 11.949193169587707 -42.01501029565012 11.183282360934138 -42.42290943288682 11.19045249627633 L -42.73883492784475 11.1823508405525 L -42.9039745697325 11.071155423178826 L -43.027321917414 10.581639045991942 L -42.93459271033919 10.405466357067107 L -42.66022925184125 10.248624883499225 C -42.297637391698 10.061648254058113 -42.47444004190166 9.287025230657509 -42.882250138755 9.275887820558275 L -43.19749403835199 9.253620378927973 L -43.35747863207274 9.135127965923068 L -43.458739707966544 8.640570541327033 L -43.35819991523192 8.46873552672113 L -43.07707605637664 8.324361252100584 C -42.706460627349855 8.153840517975455 -42.848331918518895 7.372065267508066 -43.25523169972633 7.342642741229154 L -43.5691591447021 7.306254357356417 L -43.72366650257527 7.180703576670789 L -43.80263738035059 6.682101077501734 L -43.694489475718626 6.514949790065929 L -43.40717136254503 6.383333464968095 C -43.029278734786246 6.229612032224126 -43.135932957021 5.4422589460036965 -43.54110298057437 5.394610556597401 L -43.85308176283302 5.344174511844683 L -44.001800727602095 5.211818206042006 L -44.05832237042077 4.710174751377927 L -43.94278414937878 4.548043811560181 L -43.64985040232976 4.429450493747959 C -43.26544160130037 4.292837936893046 -43.33666396719097 3.501492639252202 -43.739288274584005 3.4357143442336175 L -44.04869011037702 3.3713322100828895 L -44.19132118183887 3.2324369271487257 L -44.22527976263429 2.728762760147286 L -44.10258390378334 2.571978678083579 L -43.80462445244106 2.466647198716334 C -43.41447362630818 2.347418637259223 -43.45012070348825 1.5536747923131036 -43.84938846294812 1.4698990604144457 L -44.15559025815421 1.391700493915744 L -44.29184619631263 1.2465459504653715 L -44.303173327022385 0.7418554038686305 L -44.17356692349351 0.5907339218350016 L -43.87118181853974 0.4988764044943885 C -43.4760746791449 0.39727194889060374 -43.476074679145 -0.39727194889058726 -43.871181818539775 -0.4988764044943692 L -44.17356692349354 -0.5907339218349867 L -44.30317332702238 -0.7418554038686065 L -44.291846196312655 -1.2465459504653484 L -44.15559025815419 -1.3917004939157283 L -43.8493884629481 -1.4698990604144253 C -43.45012070348817 -1.5536747923130854 -43.414473626308286 -2.347418637259209 -43.804624452441104 -2.4666471987163168 L -44.10258390378338 -2.571978678083566 L -44.22527976263429 -2.7287627601472613 L -44.191321181838894 -3.2324369271487035 L -44.048690110377 -3.3713322100828726 L -43.73928827458399 -3.435714344233597 C -43.33666396719095 -3.5014926392521835 -43.265441601300445 -4.292837936893037 -43.64985040232981 -4.429450493747945 L -43.942784149378824 -4.54804381156017 L -44.05832237042076 -4.710174751377902 L -44.00180072760213 -5.211818206041986 L -43.85308176283301 -5.344174511844665 L -43.54110298057436 -5.39461055659738 C -43.13593295702094 -5.442258946003675 -43.02927873478634 -6.22961203222412 -43.40717136254509 -6.383333464968083 L -43.694489475718676 -6.514949790065922 L -43.80263738035059 -6.682101077501709 L -43.7236665025753 -7.180703576670771 L -43.569159144702084 -7.306254357356398 L -43.255231699726316 -7.342642741229135 C -42.84833191851889 -7.372065267508042 -42.70646062734993 -8.153840517975457 -43.07707605637669 -8.324361252100577 L -43.358199915231964 -8.46873552672113 L -43.45873970796655 -8.640570541327008 L -43.357478632072784 -9.135127965923052 L -43.197494038352005 -9.253620378927955 L -42.88225013875498 -9.275887820558253 C -42.47444004190161 -9.28702523065748 -42.297637391698075 -10.061648254058118 -42.66022925184131 -10.248624883499222 L -42.93459271033924 -10.405466357067109 L -43.02732191741401 -10.58163904599192 L -42.903974569732554 -11.071155423178814 L -42.73883492784476 -11.182350840552484 L -42.42290943288681 -11.190452496276311 C -42.015010295650086 -11.183282360934117 -41.803632343420205 -11.949193169587716 -42.157470422928185 -12.152249148296445 L -42.42452094957636 -12.32124196295678 L -42.50925282670892 -12.501397537850554 L -42.3640676123826 -12.984887046790767 L -42.19410549158936 -13.08856153576079 L -41.878134633173126 -13.082481089921709 C -41.470967910131165 -13.057017848836434 -41.22544034293995 -13.812674000303822 -41.569812059010296 -14.031400400562271 L -41.82901184958784 -14.212204227276331 L -41.90557575805399 -14.395979878786811 L -41.73884506078281 -14.872468835953395 L -41.5644027421764 -14.96841360989626 L -41.249022843560496 -14.948163307702984 C -40.84340851430671 -14.904458240453474 -40.56422579199898 -15.648337943810272 -40.89843762582544 -15.882294279757017 L -41.14926468644913 -16.074545003679656 L -41.21750643672654 -16.261570632102043 L -41.02956602994586 -16.730099452147666 L -40.8509948171407 -16.81812129105724 L -40.536841011469356 -16.78374191392342 C -40.13359592928261 -16.72188303669874 -39.821320288706794 -17.452488217219845 -40.144699182133785 -17.70120333192982 L -40.38664838048423 -17.90451378568828 L -40.44643054276965 -18.094412746296797 L -40.23765891344712 -18.554037874530938 L -40.05531842510107 -18.633959514137825 L -39.743023376330505 -18.585520297553725 C -39.342959623141425 -18.50563218590024 -38.998219945879136 -19.221491501982964 -39.31011465685144 -19.48446451631479 L -39.5426987394424 -19.6984252597123 L -39.59390092041695 -19.89081512127253 L -39.364718506830144 -20.340610933855046 L -39.17897595242039 -20.412271422613266 L -38.869168581217764 -20.34986991671466 C -38.47309183218373 -20.252113454657536 -38.09658237806613 -20.951785260907712 -38.396364792143615 -21.22848658220768 L -38.61911536558567 -21.452666726781494 L -38.66163445087096 -21.647160041716 L -38.41250279590065 -22.086220709740356 L -38.223732236212655 -22.149475732962316 L -37.91703645339361 -22.073237606077527 C -37.52574435437626 -21.957809662121647 -37.11822336333705 -22.639884912635686 -37.4052897586336 -22.92975730126681 L -37.61775823291604 -23.16370537804024 L -37.65150859473289 -23.359910462696426 L -37.38292941637708 -23.787351776408574 L -37.19151101019598 -23.84207394689565 L -36.888544460251225 -23.75215273246625 C -36.50282502146376 -23.619285763129323 -36.06511318654499 -24.282390849124983 -36.338885449543994 -24.58485054067358 L -36.5406439414355 -24.82809540935443 L -36.56555761104678 -25.025617132803294 L -36.278071792027475 -25.440578282282424 L -36.084391030548844 -25.486657396865823 L -35.78576384779038 -25.383234184250725 C -35.406393856849995 -25.23319576592668 -34.93937267143528 -25.87599528200858 -35.19929946123342 -26.190433162907986 L -35.38994165598187 -26.442484960702394 L -35.405968460572566 -26.64092554047962 L -35.10015495906991 -27.042570849194803 L -34.90460188957182 -27.07991411067008 L -34.61091546940362 -26.96319718045566 C -34.238658926984506 -26.79628947055147 -33.74326890958889 -27.417488904039725 -33.988826768223255 -27.743271738244 L -34.167968737819585 -28.003622866374922 L -34.17507640153814 -28.20258266956184 L -33.85155108524567 -28.59010327731334 L -33.6545195255854 -28.618635481321625 L -33.36636531337312 -28.488859885872337 C -33.00197189461084 -28.30541901430327 -32.47921069480155 -28.903767352209616 -32.70990510142432 -29.240239056446747 L -32.877186077782454 -29.50836520239034 L -32.87536028674004 -29.707443550421413 L -32.534774692589174 -30.08005904227748 L -32.33666143810639 -30.099722728757044 L -32.05461973808512 -29.95714981885125 C -31.698823282830595 -29.75754521111984 -31.149743672093614 -30.331837459521523 -31.365110038871286 -30.678320424557697 L -31.520193140367027 -30.95368161793897 L -31.509437571463828 -31.152477593515137 L -31.152477593515165 -31.50943757146382 L -30.953681617938955 -31.520193140366985 L -30.67832042455769 -31.365110038871254 C -30.33183745952149 -31.14974367209356 -29.75754521111992 -31.698823282830663 -29.957149818851285 -32.05461973808514 L -30.099722728757087 -32.336661438106404 L -30.08005904227749 -32.53477469258914 L -29.707443550421445 -32.87536028674003 L -29.50836520239033 -32.87718607778241 L -29.240239056446747 -32.7099051014243 C -28.903767352209606 -32.47921069480151 -28.305419014303315 -33.001971894610875 -28.48885988587238 -33.366365313373144 L -28.618635481321668 -33.65451952558542 L -28.590103277313354 -33.85155108524564 L -28.20258266956187 -34.175076401538135 L -28.00362286637492 -34.16796873781955 L -27.74327173824401 -33.988826768223234 C -27.417488904039708 -33.74326890958883 -26.796289470551542 -34.23865892698457 -26.963197180455705 -34.61091546940365 L -27.079914110670124 -34.90460188957185 L -27.042570849194824 -35.100154959069876 L -26.64092554047966 -35.405968460572566 L -26.44248496070239 -35.38994165598184 L -26.190433162907997 -35.1992994612334 C -25.87599528200859 -34.93937267143523 -25.233195765926716 -35.40639385685005 -25.383234184250764 -35.785763847790406 L -25.486657396865866 -36.084391030548886 L -25.440578282282445 -36.27807179202745 L -25.02561713280334 -36.56555761104677 L -24.828095409354432 -36.54064394143546 L -24.584850540673592 -36.338885449543966 C -24.28239084912499 -36.065113186544934 -23.619285763129362 -36.502825021463835 -23.752152732466293 -36.888544460251254 L -23.842073946895688 -37.191511010196024 L -23.7873517764086 -37.38292941637707 L -23.359910462696476 -37.65150859473289 L -23.163705378040245 -37.617758232916 L -22.929757301266825 -37.40528975863358 C -22.63988491263568 -37.11822336333702 -21.957809662121726 -37.52574435437633 -22.07323760607757 -37.917036453393656 L -22.149475732962358 -38.2237322362127 L -22.086220709740388 -38.41250279590065 L -21.647160041716052 -38.66163445087097 L -21.452666726781505 -38.619115365585635 L -21.228486582207697 -38.39636479214361 C -20.951785260907716 -38.09658237806612 -20.252113454657604 -38.47309183218381 -20.349869916714706 -38.869168581217814 L -20.41227142261331 -39.17897595242043 L -20.34061093385508 -39.364718506830144 L -19.89081512127258 -39.593900920416964 L -19.698425259712316 -39.54269873944239 L -19.484464516314812 -39.31011465685145 C -19.221491501982964 -38.99821994587911 -18.505632185900303 -39.34295962314151 -18.585520297553767 -39.74302337633056 L -18.63395951413787 -40.05531842510112 L -18.55403787453097 -40.23765891344712 L -18.094412746296847 -40.446430542769676 L -17.9045137856883 -40.38664838048423 L -17.70120333192984 -40.144699182133806 C -17.452488217219848 -39.82132028870676 -16.7218830366988 -40.133595929282706 -16.783741913923468 -40.53684101146942 L -16.81812129105728 -40.85099481714076 L -16.730099452147698 -41.02956602994587 L -16.26157063210209 -41.21750643672657 L -16.074545003679674 -41.14926468644913 L -15.882294279757037 -40.89843762582545 C -15.648337943810272 -40.56422579199896 -14.904458240453533 -40.84340851430682 -14.948163307703027 -41.24902284356058 L -14.968413609896302 -41.56440274217646 L -14.87246883595343 -41.73884506078283 L -14.395979878786857 -41.90557575805403 L -14.212204227276352 -41.82901184958785 L -14.03140040056229 -41.56981205901031 C -13.812674000303824 -41.22544034293991 -13.057017848836487 -41.47096791013129 -13.082481089921751 -41.8781346331732 L -13.088561535760832 -42.194105491589426 L -12.984887046790805 -42.36406761238263 L -12.5013975378506 -42.50925282670897 L -12.321241962956801 -42.42452094957639 L -12.152249148296466 -42.157470422928206 C -11.94919316958773 -41.80363234342019 -11.183282360934161 -42.01501029565018 -11.190452496276349 -42.42290943288689 L -11.182350840552523 -42.73883492784483 L -11.071155423178851 -42.90397456973257 L -10.581639045991967 -43.02732191741406 L -10.40546635706713 -42.93459271033926 L -10.24862488349924 -42.66022925184133 C -10.061648254058131 -42.29763739169809 -9.287025230657532 -42.47444004190174 -9.275887820558292 -42.882250138755076 L -9.253620378927994 -43.197494038352076 L -9.135127965923086 -43.35747863207281 L -8.640570541327051 -43.4587397079666 L -8.46873552672115 -43.358199915232 L -8.324361252100594 -43.077076056376725 C -8.153840517975471 -42.70646062734993 -7.372065267508077 -42.84833191851901 -7.342642741229169 -43.2552316997264 L -7.306254357356434 -43.569159144702176 L -7.180703576670805 -43.72366650257534 L -6.682101077501748 -43.80263738035065 L -6.514949790065945 -43.69448947571871 L -6.383333464968102 -43.407171362545114 C -6.2296120322241375 -43.02927873478634 -5.442258946003711 -43.13593295702104 -5.394610556597413 -43.54110298057444 L -5.344174511844698 -43.85308176283309 L -5.211818206042019 -44.00180072760217 L -4.71017475137794 -44.05832237042083 L -4.548043811560193 -43.942784149378866 L -4.429450493747963 -43.64985040232985 C -4.292837936893052 -43.265441601300445 -3.501492639252214 -43.33666396719106 -3.4357143442336255 -43.73928827458408 L -3.371332210082901 -44.04869011037709 L -3.2324369271487345 -44.19132118183895 L -2.728762760147295 -44.22527976263436 L -2.571978678083588 -44.102583903783426 L -2.466647198716333 -43.804624452441146 C -2.3474186372592256 -43.414473626308265 -1.5536747923131107 -43.450120703488324 -1.4698990604144506 -43.84938846294819 L -1.391700493915753 -44.155590258154284 L -1.2465459504653769 -44.29184619631271 L -0.7418554038686367 -44.30317332702245 L -0.5907339218350067 -44.173566923493595 L -0.4988764044943843 -43.871181818539824 C -0.39727194889060274 -43.476074679145015 0.3972719488905838 -43.47607467914504 0.4988764044943677 -43.87118181853984 L 0.5907339218349812 -44.17356692349361 L 0.7418554038686047 -44.30317332702245 L 1.2465459504653456 -44.29184619631273 L 1.391700493915727 -44.15559025815429 L 1.4698990604144333 -43.849388462948184 C 1.5536747923130902 -43.45012070348827 2.34741863725921 -43.414473626308336 2.466647198716318 -43.804624452441175 L 2.571978678083563 -44.102583903783454 L 2.728762760147263 -44.22527976263436 L 3.2324369271487035 -44.19132118183897 L 3.371332210082876 -44.048690110377095 L 3.4357143442336087 -43.739288274584084 C 3.5014926392521915 -43.336663967191015 4.292837936893041 -43.26544160130052 4.429450493747949 -43.64985040232989 L 4.54804381156017 -43.942784149378895 L 4.710174751377908 -44.05832237042084 L 5.21181820604199 -44.001800727602195 L 5.344174511844672 -43.8530817628331 L 5.394610556597396 -43.54110298057445 C 5.442258946003685 -43.13593295702103 6.22961203222413 -43.0292787347864 6.383333464968091 -43.407171362545164 L 6.514949790065925 -43.69448947571875 L 6.682101077501718 -43.80263738035067 L 7.180703576670776 -43.72366650257537 L 7.306254357356409 -43.56915914470218 L 7.342642741229153 -43.25523169972641 C 7.3720652675080585 -42.84833191851895 8.153840517975471 -42.706460627350026 8.324361252100587 -43.077076056376775 L 8.468735526721133 -43.358199915232035 L 8.640570541327023 -43.45873970796663 L 9.135127965923061 -43.357478632072855 L 9.253620378927973 -43.19749403835209 L 9.275887820558278 -42.88225013875507 C 9.287025230657507 -42.474440041901694 10.061648254058134 -42.29763739169817 10.248624883499236 -42.66022925184138 L 10.405466357067116 -42.9345927103393 L 10.581639045991936 -43.027321917414085 L 11.071155423178826 -42.90397456973261 L 11.182350840552502 -42.73883492784485 L 11.190452496276338 -42.4229094328869 C 11.183282360934136 -42.01501029565018 11.949193169587737 -41.80363234342024 12.152249148296464 -42.157470422928256 L 12.32124196295679 -42.42452094957643 L 12.501397537850572 -42.509252826709 L 12.984887046790785 -42.36406761238266 L 13.088561535760814 -42.19410549158944 L 13.082481089921739 -41.87813463317322 C 13.05701784883647 -41.470967910131264 13.812674000303836 -41.22544034293999 14.031400400562292 -41.56981205901036 L 14.212204227276345 -41.8290118495879 L 14.395979878786832 -41.90557575805407 L 14.872468835953413 -41.73884506078288 L 14.968413609896285 -41.56440274217647 L 14.94816330770302 -41.24902284356058 C 14.904458240453517 -40.84340851430681 15.648337943810283 -40.56422579199906 15.882294279757044 -40.89843762582551 L 16.07454500367967 -41.149264686449186 L 16.261570632102067 -41.21750643672661 L 16.73009945214769 -41.029566029945926 L 16.818121291057267 -40.85099481714077 L 16.783741913923464 -40.536841011469434 C 16.721883036698767 -40.133595929282706 17.452488217219873 -39.82132028870683 17.70120333192985 -40.144699182133856 L 17.9045137856883 -40.386648380484296 L 18.094412746296825 -40.446430542769725 L 18.554037874530962 -40.237658913447184 L 18.633959514137857 -40.05531842510115 L 18.585520297553764 -39.743023376330584 C 18.50563218590028 -39.342959623141496 19.221491501982996 -38.998219945879214 19.484464516314823 -39.31011465685151 L 19.698425259712323 -39.54269873944247 L 19.890815121272567 -39.59390092041701 L 20.340610933855075 -39.3647185068302 L 20.4122714226133 -39.178975952420465 L 20.349869916714702 -38.86916858121784 C 20.252113454657565 -38.473091832183805 20.951785260907755 -38.0965823780662 21.228486582207715 -38.39636479214368 L 21.452666726781516 -38.619115365585714 L 21.647160041716035 -38.66163445087102 L 22.086220709740388 -38.412502795900714 L 22.149475732962358 -38.22373223621273 L 22.073237606077573 -37.917036453393685 C 21.957809662121704 -37.52574435437632 22.639884912635708 -37.118223363337115 22.92975730126685 -37.40528975863365 L 23.16370537804026 -37.61775823291609 L 23.35991046269647 -37.651508594732945 L 23.78735177640861 -37.382929416377145 L 23.84207394689569 -37.19151101019606 L 23.7521527324663 -36.888544460251296 C 23.619285763129355 -36.50282502146382 24.282390849125026 -36.06511318654506 24.584850540673624 -36.338885449544044 L 24.828095409354447 -36.54064394143555 L 25.025617132803333 -36.56555761104684 L 25.440578282282466 -36.27807179202753 L 25.486657396865866 -36.08439103054893 L 25.38323418425078 -35.78576384779045 C 25.23319576592672 -35.40639385685008 25.87599528200864 -34.93937267143533 26.19043316290803 -35.19929946123348 L 26.44248496070241 -35.38994165598193 L 26.640925540479667 -35.40596846057263 L 27.042570849194846 -35.100154959069954 L 27.07991411067013 -34.90460188957189 L 26.963197180455722 -34.61091546940369 C 26.79628947055154 -34.23865892698458 27.417488904039747 -33.74326890958896 27.743271738244047 -33.988826768223305 L 28.003622866374947 -34.167968737819635 L 28.202582669561885 -34.175076401538206 L 28.590103277313382 -33.85155108524572 L 28.618635481321682 -33.65451952558546 L 28.488859885872397 -33.366365313373194 C 28.30541901430333 -33.00197189461087 28.90376735220967 -32.47921069480164 29.240239056446793 -32.70990510142437 L 29.508365202390365 -32.8771860777825 L 29.707443550421466 -32.875360286740104 L 30.080059042277526 -32.534774692589224 L 30.0997227287571 -32.33666143810645 L 29.957149818851306 -32.05461973808519 C 29.757545211119897 -31.69882328283065 30.33183745952159 -31.149743672093706 30.67832042455775 -31.365110038871343 L 30.95368161793899 -31.52019314036707 L 31.152477593515194 -31.50943757146389 L 31.509437571463867 -31.152477593515215 L 31.52019314036705 -30.953681617939022 L 31.36511003887132 -30.67832042455775 C 31.149743672093624 -30.331837459521562 31.698823282830695 -29.757545211119947 32.05461973808519 -29.957149818851338 L 32.33666143810643 -30.09972272875713 L 32.53477469258921 -30.080059042277554 L 32.875360286740076 -29.707443550421488 L 32.87718607778248 -29.508365202390394 L 32.709905101424354 -29.240239056446796 C 32.479210694801544 -28.903767352209663 33.00197189461092 -28.30541901430338 33.3663653133732 -28.48885988587243 L 33.65451952558546 -28.61863548132171 L 33.8515510852457 -28.59010327731341 L 34.175076401538185 -28.202582669561913 L 34.167968737819606 -28.003622866374975 L 33.98882676822329 -27.74327173824406 C 33.743268909588906 -27.417488904039764 34.238658926984584 -26.79628947055159 34.61091546940371 -26.96319718045575 L 34.90460188957189 -27.07991411067016 L 35.100154959069954 -27.04257084919488 L 35.405968460572616 -26.640925540479692 L 35.3899416559819 -26.442484960702448 L 35.199299461233466 -26.19043316290805 C 34.9393726714353 -25.875995282008628 35.40639385685011 -25.23319576592678 35.78576384779046 -25.38323418425081 L 36.084391030548915 -25.4866573968659 L 36.278071792027525 -25.4405782822825 L 36.565557611046835 -25.025617132803376 L 36.54064394143553 -24.828095409354482 L 36.33888544954404 -24.58485054067365 C 36.065113186544984 -24.282390849125033 36.50282502146389 -23.619285763129415 36.88854446025131 -23.752152732466335 L 37.191511010196066 -23.84207394689573 L 37.38292941637714 -23.78735177640865 L 37.651508594732945 -23.359910462696508 L 37.61775823291609 -23.163705378040294 L 37.40528975863365 -22.929757301266875 C 37.11822336333709 -22.639884912635722 37.5257443543764 -21.957809662121747 37.917036453393706 -22.073237606077612 L 38.22373223621274 -22.149475732962397 L 38.41250279590072 -22.086220709740434 L 38.661634450871034 -21.647160041716077 L 38.619115365585714 -21.45266672678155 L 38.396364792143686 -21.228486582207744 C 38.09658237806616 -20.95178526090777 38.473091832183876 -20.252113454657632 38.86916858121787 -20.349869916714738 L 39.17897595242047 -20.412271422613344 L 39.364718506830215 -20.340610933855125 L 39.59390092041703 -19.890815121272603 L 39.54269873944247 -19.698425259712362 L 39.31011465685151 -19.484464516314855 C 38.99821994587917 -19.22149150198301 39.342959623141596 -18.505632185900325 39.74302337633062 -18.5855202975538 L 40.05531842510116 -18.633959514137906 L 40.23765891344719 -18.554037874531012 L 40.44643054276973 -18.094412746296868 L 40.38664838048432 -17.904513785688337 L 40.14469918213388 -17.701203331929875 C 39.82132028870686 -17.452488217219898 40.13359592928277 -16.72188303669882 40.53684101146948 -16.783741913923492 L 40.85099481714079 -16.818121291057317 L 41.02956602994595 -16.73009945214774 L 41.21750643672663 -16.261570632102114 L 41.14926468644921 -16.07454500367971 L 40.89843762582554 -15.882294279757073 C 40.56422579199904 -15.648337943810308 40.84340851430685 -14.904458240453554 41.24902284356064 -14.948163307703052 L 41.564402742176505 -14.968413609896336 L 41.73884506078291 -14.872468835953466 L 41.9055757580541 -14.395979878786878 L 41.82901184958793 -14.212204227276384 L 41.5698120590104 -14.031400400562319 C 41.225440342940026 -13.81267400030385 41.47096791013133 -13.057017848836523 41.87813463317327 -13.082481089921771 L 42.194105491589475 -13.088561535760865 L 42.3640676123827 -12.984887046790837 L 42.50925282670903 -12.50139753785062 L 42.42452094957646 -12.32124196295683 L 42.157470422928284 -12.152249148296491 C 41.803632343420254 -11.949193169587758 42.01501029565025 -11.183282360934182 42.42290943288695 -11.190452496276372 L 42.73883492784488 -11.182350840552555 L 42.903974569732654 -11.07115542317888 L 43.02732191741412 -10.581639045991984 L 42.93459271033934 -10.405466357067155 L 42.66022925184142 -10.248624883499263 C 42.297637391698174 -10.061648254058152 42.474440041901765 -9.287025230657548 42.88225013875513 -9.275887820558308 L 43.197494038352126 -9.253620378928023 L 43.357478632072905 -9.135127965923115 L 43.458739707966664 -8.640570541327067 L 43.35819991523208 -8.468735526721172 L 43.07707605637681 -8.324361252100612 C 42.70646062735 -8.153840517975487 42.84833191851908 -7.372065267508097 43.255231699726465 -7.342642741229184 L 43.569159144702226 -7.30625435735646 L 43.723666502575426 -7.180703576670826 L 43.8026373803507 -6.682101077501763 L 43.69448947571879 -6.5149497900659625 L 43.40717136254521 -6.383333464968118 C 43.02927873478642 -6.22961203222415 43.135932957021126 -5.4422589460037205 43.54110298057451 -5.394610556597425 L 43.85308176283314 -5.344174511844721 L 44.00180072760226 -5.211818206042037 L 44.058322370420896 -4.71017475137795 L 43.942784149378944 -4.548043811560207 L 43.64985040232994 -4.429450493747973 C 43.26544160130053 -4.292837936893066 43.336663967191114 -3.5014926392522208 43.73928827458415 -3.4357143442336353 L 44.04869011037715 -3.3713322100829224 L 44.19132118183904 -3.2324369271487488 L 44.225279762634415 -2.728762760147303 L 44.10258390378351 -2.5719786780835987 L 43.80462445244123 -2.4666471987163403 C 43.414473626308364 -2.347418637259232 43.45012070348837 -1.5536747923131176 43.849388462948255 -1.4698990604144573 L 44.155590258154334 -1.391700493915771 L 44.2918461963128 -1.2465459504653875 L 44.30317332702251 -0.7418554038686422 L 44.173566923493674 -0.5907339218350138 L 43.87118181853991 -0.49887640449438675 C 43.47607467914509 -0.39727194889060513 43.47607467914511 0.3972719488905808 43.8711818185399 0.4988764044943641 L 44.17356692349367 0.5907339218349654 L 44.303173327022535 0.741855403868598 L 44.29184619631278 1.2465459504653424 L 44.15559025815436 1.3917004939157234 L 43.84938846294828 1.469899060414435 C 43.45012070348838 1.5536747923130914 43.41447362630838 2.347418637259211 43.80462445244124 2.4666471987163177 L 44.10258390378351 2.57197867808355 L 44.22527976263444 2.7287627601472604 L 44.19132118183903 3.2324369271487026 L 44.04869011037717 3.371332210082876 L 43.73928827458417 3.4357143442336144 C 43.33666396719109 3.5014926392521963 43.265441601300594 4.2928379368930445 43.64985040232995 4.429450493747952 L 43.94278414937896 4.548043811560159 L 44.058322370420925 4.7101747513779095 L 44.00180072760226 5.2118182060419915 L 43.85308176283318 5.344174511844676 L 43.541102980574536 5.3946105565974065 C 43.1359329570211 5.442258946003698 43.0292787347865 6.229612032224132 43.40717136254523 6.383333464968096 L 43.6944894757188 6.514949790065916 L 43.80263738035075 6.6821010775017236 L 43.72366650257543 7.180703576670783 L 43.569159144702255 7.306254357356417 L 43.255231699726494 7.342642741229168 C 42.84833191851907 7.372065267508075 42.706460627350076 8.153840517975473 43.07707605637683 8.324361252100596 L 43.3581999152321 8.468735526721128 L 43.458739707966714 8.64057054132703 L 43.35747863207291 9.135127965923068 L 43.197494038352175 9.253620378927982 L 42.88225013875517 9.275887820558296 C 42.474440041901765 9.28702523065752 42.297637391698245 10.061648254058149 42.66022925184144 10.248624883499247 L 42.93459271033937 10.405466357067114 L 43.02732191741417 10.581639045991949 L 42.90397456973267 11.071155423178837 L 42.73883492784492 11.182350840552516 L 42.422909432886996 11.19045249627636 C 42.01501029565026 11.183282360934152 41.80363234342033 11.949193169587758 42.15747042292832 12.152249148296482 L 42.42452094957649 12.32124196295679 L 42.50925282670909 12.50139753785059 L 42.36406761238271 12.984887046790796 L 42.19410549158951 13.088561535760832 L 41.8781346331733 13.082481089921764 C 41.47096791013136 13.05701784883649 41.22544034294006 13.812674000303854 41.569812059010424 14.03140040056231 L 41.829011849587964 14.212204227276349 L 41.90557575805415 14.39597987878685 L 41.738845060782936 14.872468835953427 L 41.564402742176554 14.968413609896306 L 41.24902284356068 14.948163307703048 C 40.84340851430688 14.904458240453538 40.56422579199912 15.648337943810311 40.89843762582557 15.882294279757065 L 41.14926468644925 16.074545003679678 L 41.217506436726694 16.261570632102092 L 41.02956602994598 16.730099452147705 L 40.85099481714085 16.81812129105729 L 40.53684101146953 16.783741913923492 C 40.13359592928277 16.721883036698806 39.821320288706936 17.452488217219887 40.14469918213391 17.70120333192987 L 40.38664838048436 17.904513785688312 L 40.446430542769804 18.094412746296854 L 40.237658913447234 18.554037874530984 L 40.055318425101234 18.633959514137885 L 39.74302337633067 18.5855202975538 C 39.34295962314159 18.505632185900307 38.99821994587925 19.22149150198303 39.31011465685157 19.48446451631486 L 39.54269873944253 19.698425259712337 L 39.5939009204171 19.890815121272595 L 39.364718506830265 20.3406109338551 L 39.178975952420544 20.412271422613333 L 38.86916858121792 20.34986991671474 C 38.473091832183904 20.25211345465762 38.09658237806622 20.951785260907766 38.396364792143736 21.228486582207744 L 38.61911536558578 21.452666726781537 L 38.661634450871105 21.647160041716074 L 38.412502795900764 22.086220709740417 L 38.22373223621281 22.149475732962394 L 37.91703645339376 22.073237606077615 C 37.525744354376386 21.957809662121743 37.11822336333721 22.639884912635736 37.40528975863371 22.92975730126688 L 37.61775823291615 23.16370537804028 L 37.65150859473303 23.359910462696508 L 37.38292941637721 23.78735177640864 L 37.19151101019614 23.84207394689573 L 36.88854446025138 23.75215273246635 C 36.50282502146391 23.619285763129405 36.065113186545105 24.282390849125072 36.33888544954411 24.584850540673653 L 36.540643941435604 24.828095409354475 L 36.56555761104693 25.02561713280338 L 36.27807179202759 25.440578282282495 L 36.084391030549 25.48665739686591 L 35.785763847790534 25.383234184250824 C 35.40639385685014 25.233195765926766 34.93937267143539 25.87599528200867 35.19929946123354 26.19043316290806 L 35.389941655981985 26.442484960702444 L 35.40596846057271 26.640925540479714 L 35.10015495907001 27.04257084919488 L 34.90460188957197 27.07991411067018 L 34.61091546940378 26.963197180455772 C 34.23865892698466 26.796289470551578 33.74326890958899 27.417488904039807 33.98882676822336 27.743271738244083 L 34.16796873781969 28.003622866374975 L 34.17507640153828 28.202582669561938 L 33.851551085245774 28.59010327731342 L 33.654519525585535 28.618635481321732 L 33.36636531337328 28.488859885872458 C 33.001971894610975 28.305419014303382 32.47921069480165 28.90376735220972 32.709905101424425 29.24023905644683 L 32.877186077782554 29.5083652023904 L 32.875360286740175 29.707443550421523 L 32.53477469258928 30.080059042277565 L 32.336661438106525 30.099722728757158 L 32.05461973808527 29.95714981885137 C 31.69882328283074 29.75754521111996 31.149743672093727 30.331837459521616 31.365110038871386 30.678320424557786 L 31.520193140367127 30.953681617939033 L 31.509437571463963 31.15247759351525 L 31.15247759351527 31.509437571463913 L 30.95368161793909 31.52019314036711 L 30.678320424557832 31.365110038871386 C 30.33183745952164 31.149743672093702 29.757545211119986 31.69882328283073 29.957149818851384 32.05461973808523 L 30.09972272875718 32.336661438106475 L 30.080059042277618 32.53477469258927 L 29.707443550421544 32.87536028674013 L 29.508365202390458 32.87718607778254 L 29.240239056446878 32.709905101424425 C 28.90376735220973 32.47921069480164 28.30541901430342 33.00197189461097 28.488859885872476 33.366365313373244 L 28.61863548132176 33.6545195255855 L 28.590103277313474 33.851551085245774 L 28.20258266956197 34.175076401538234 L 28.00362286637504 34.16796873781968 L 27.743271738244136 33.98882676822336 C 27.417488904039836 33.74326890958899 26.79628947055162 34.23865892698463 26.963197180455797 34.61091546940374 L 27.079914110670213 34.90460188957195 L 27.042570849194938 35.10015495907001 L 26.64092554047975 35.405968460572666 L 26.442484960702508 35.38994165598197 L 26.19043316290812 35.19929946123355 C 25.8759952820087 34.93937267143537 25.2331957659268 35.406393856850165 25.383234184250853 35.78576384779051 L 25.48665739686595 36.08439103054898 L 25.440578282282555 36.27807179202759 L 25.025617132803426 36.565557611046884 L 24.82809540935454 36.540643941435604 L 24.584850540673713 36.33888544954411 C 24.282390849125097 36.06511318654507 23.61928576312944 36.50282502146394 23.75215273246637 36.88854446025137 L 23.842073946895773 37.19151101019612 L 23.787351776408705 37.38292941637721 L 23.35991046269656 37.651508594733 L 23.163705378040348 37.61775823291615 L 22.92975730126694 37.40528975863373 C 22.63988491263578 37.11822336333717 21.957809662121782 37.52574435437642 22.073237606077647 37.91703645339376 L 22.149475732962436 38.22373223621281 L 22.08622070974048 38.412502795900785 L 21.647160041716127 38.66163445087109 L 21.4526667267816 38.619115365585785 L 21.228486582207807 38.39636479214376 C 20.95178526090782 38.09658237806626 20.252113454657653 38.473091832183925 20.34986991671477 38.86916858121793 L 20.412271422613383 39.178975952420544 L 20.340610933855167 39.364718506830286 L 19.89081512127266 39.5939009204171 L 19.69842525971241 39.54269873944254 L 19.484464516314915 39.31011465685161 C 19.22149150198306 38.99821994587926 18.505632185900353 39.342959623141645 18.58552029755383 39.743023376330676 L 18.63395951413794 40.055318425101234 L 18.55403787453105 40.23765891344726 L 18.094412746296914 40.44643054276981 L 17.904513785688387 40.38664838048438 L 17.70120333192993 40.14469918213396 C 17.452488217219944 39.821320288706936 16.721883036698834 40.13359592928283 16.783741913923524 40.53684101146954 L 16.818121291057345 40.85099481714087 L 16.730099452147776 41.02956602994601 L 16.261570632102156 41.21750643672671 L 16.07454500367975 41.149264686449285 L 15.882294279757122 40.89843762582562 C 15.648337943810349 40.56422579199916 14.904458240453579 40.843408514306915 14.948163307703078 41.249022843560695 L 14.968413609896361 41.56440274217658 L 14.872468835953498 41.73884506078298 L 14.395979878786918 41.90557575805417 L 14.21220422727642 41.829011849588 L 14.031400400562365 41.569812059010474 C 13.812674000303883 41.225440342940075 13.057017848836537 41.47096791013142 13.082481089921796 41.87813463317333 L 13.088561535760885 42.19410549158955 L 12.984887046790865 42.36406761238277 L 12.501397537850655 42.509252826709115 L 12.321241962956863 42.42452094957653 L 12.152249148296534 42.157470422928384 C 11.94919316958779 41.80363234342035 11.183282360934198 42.015010295650335 11.190452496276393 42.422909432887025 L 11.182350840552573 42.73883492784496 L 11.071155423178904 42.903974569732725 L 10.581639045992016 43.02732191741421 L 10.405466357067187 42.93459271033942 L 10.2486248834993 42.660229251841514 C 10.061648254058191 42.29763739169825 9.287025230657552 42.47444004190186 9.275887820558326 42.882250138755204 L 9.253620378928037 43.19749403835222 L 9.135127965923136 43.35747863207298 L 8.640570541327094 43.45873970796676 L 8.4687355267212 43.35819991523216 L 8.32436125210065 43.07707605637691 C 8.153840517975514 42.7064606273501 7.372065267508108 42.8483319185191 7.342642741229197 43.25523169972654 L 7.306254357356471 43.56915914470231 L 7.180703576670844 43.723666502575504 L 6.682101077501786 43.802637380350795 L 6.514949790065986 43.694489475718875 L 6.383333464968148 43.407171362545306 C 6.229612032224174 43.029278734786516 5.442258946003727 43.13593295702118 5.394610556597433 43.541102980574586 L 5.344174511844727 43.85308176283324 L 5.21181820604205 44.001800727602344 L 4.71017475137797 44.058322370420974 L 4.548043811560227 43.94278414937903 L 4.429450493748 43.64985040233003 C 4.292837936893084 43.26544160130061 3.501492639252226 43.33666396719121 3.4357143442336406 43.73928827458422 L 3.371332210082924 44.048690110377244 L 3.2324369271487594 44.191321181839115 L 2.728762760147319 44.2252797626345 L 2.571978678083614 44.1025839037836 L 2.4666471987163634 43.804624452441324 C 2.3474186372592496 43.414473626308435 1.5536747923131162 43.45012070348848 1.469899060414459 43.84938846294833 L 1.3917004939157684 44.15559025815444 L 1.2465459504653946 44.291846196312875 L 0.7418554038686542 44.303173327022606 " stroke="#191919" stroke-width="0.35 px" style="stroke-width:0.35;stroke-miterlimit:4;stroke-dasharray:none;fill:none;fill-rule: evenodd "/>
<circle cx="-11.906250000000014" cy="-20.62222992761694" r="1.9939" stroke="#191919" stroke-width="0.35 px" style="stroke-width:0.35;stroke-miterlimit:4;stroke-dasharray:none;fill:none"/>
<circle cx="11.906249999999982" cy="-20.622229927616953" r="1.9939" stroke="#191919" stroke-width="0.35 px" style="stroke-width:0.35;stroke-miterlimit:4;stroke-dasharray:none;fill:none"/>
<path id="Sketch001_w0003"  d="M 14.2875 -1.7497141090700358e-15 A 14.2875 14.2875 0 0 1 7.14375 12.3733A 14.2875 14.2875 0 0 1 -7.14375 12.3733A 14.2875 14.2875 0 0 1 -14.2875 1.74971e-15A 14.2875 14.2875 0 0 1 -7.14375 -12.3733A 14.2875 14.2875 0 0 1 7.14375 -12.3733A 14.2875 14.2875 0 0 1 14.2875 -3.49943e-15" stroke="#191919" stroke-width="0.35 px" style="stroke-width:0.35;stroke-miterlimit:4;stroke-dasharray:none;fill:none;fill-rule: evenodd "/>
<circle cx="23.8125" cy="0.0" r="1.9939" stroke="#191919" stroke-width="0.35 px" style="stroke-width:0.35;stroke-miterlimit:4;stroke-dasharray:none;fill:none"/>
<circle cx="-11.906249999999996" cy="20.62222992761695" r="1.9939" stroke="#191919" stroke-width="0.35 px" style="stroke-width:0.35;stroke-miterlimit:4;stroke-dasharray:none;fill:none"/>
<circle cx="11.906250000000002" cy="20.62222992761695" r="1.9939" stroke="#191919" stroke-width="0.35 px" style="stroke-width:0.35;stroke-miterlimit:4;stroke-dasharray:none;fill:none"/>
<circle cx="-23.812500000000004" cy="6.25e-15" r="1.9939" stroke="#191919" stroke-width="0.35 px" style="stroke-width:0.35;stroke-miterlimit:4;stroke-dasharray:none;fill:none"/>
<title>b'Sketch001'</title>
</g>
</svg>