<?xml version="1.0" standalone="yes"?><svg width="1500" height="600" xmlns="http://www.w3.org/2000/svg">
<path d="M 873.733215 273.021301 L 836.895691 260.890137 L 813.053101 253.427032 L 774.262268 270.798309 L 752.168091 264.128479 L 741.263123 260.957184 L 687.033203 259.910034 L 666.443481 254.740143 L 625.892212 245.541504 L 605.86792 241.494171 L 546.439453 231.488251" stroke="#00ff00" fill="transparent" stroke-width="2"/>
<path d="M 714.940979 185.335251 L 726.23584 187.80957 L 757.281128 223.11441 L 778.232544 243.105011 L 795.95575 352.73645 L 793.481384 367.108398 L 788.493652 396.079254 L 778.291504 391.662476 L 726.869995 385.642609 L 707.724915 378.271515 L 698.24054 374.760345 L 679.432129 368.075867 L 670.10144 364.899719 L 651.571167 358.872101 L 605.86792 332.33429 L 605.867859 306.016602 L 596.352661 290.869751 L 596.128052 265.125488 L 576.060425 236.095306 L 575.730591 223.507019 L 555.752197 220.448639 L 554.663513 195.560669 L 544.482666 194.25473 L 524.149414 191.888458 L 513.989014 190.82782 L 493.660736 188.953308 L 473.295776 187.408356 L 463.089081 186.759842 L 432.323059 185.321503 L 435.988556 209.299286 L 415.757538 208.66452 L 407.755829 220.42514 L 392.318634 244.170807 L 372.319611 244.343048" stroke="#00ff00" fill="transparent" stroke-width="2"/>
</svg>