<?xml version="1.0" encoding="UTF-8" standalone="no"?>
<!-- Created with Inkscape (http://www.inkscape.org/) -->

<svg
   xmlns:dc="http://purl.org/dc/elements/1.1/"
   xmlns:cc="http://creativecommons.org/ns#"
   xmlns:rdf="http://www.w3.org/1999/02/22-rdf-syntax-ns#"
   xmlns:svg="http://www.w3.org/2000/svg"
   xmlns="http://www.w3.org/2000/svg"
   xmlns:sodipodi="http://sodipodi.sourceforge.net/DTD/sodipodi-0.dtd"
   xmlns:inkscape="http://www.inkscape.org/namespaces/inkscape"
   version="1.1"
   id="svg4145"
   xml:space="preserve"
   width="630.66663"
   height="164"
   viewBox="0 0 630.66663 164"
   sodipodi:docname="combined_icon.svg"
   inkscape:version="0.92.1 r15371"><metadata
     id="metadata4151"><rdf:RDF><cc:Work
         rdf:about=""><dc:format>image/svg+xml</dc:format><dc:type
           rdf:resource="http://purl.org/dc/dcmitype/StillImage" /><dc:title></dc:title></cc:Work></rdf:RDF></metadata><defs
     id="defs4149"><clipPath
       clipPathUnits="userSpaceOnUse"
       id="clipPath4161"><path
         d="M 0,248.098 H 606 V 0 H 0 Z"
         id="path4159"
         inkscape:connector-curvature="0" /></clipPath></defs><sodipodi:namedview
     pagecolor="#ffffff"
     bordercolor="#666666"
     borderopacity="1"
     objecttolerance="10"
     gridtolerance="10"
     guidetolerance="10"
     inkscape:pageopacity="0"
     inkscape:pageshadow="2"
     inkscape:window-width="2999"
     inkscape:window-height="1998"
     id="namedview4147"
     showgrid="false"
     inkscape:zoom="2.853711"
     inkscape:cx="348.21015"
     inkscape:cy="174.12407"
     inkscape:window-x="1"
     inkscape:window-y="1"
     inkscape:window-maximized="1"
     inkscape:current-layer="g4153" /><g
     id="g4153"
     inkscape:groupmode="layer"
     inkscape:label="Makerspace icons"
     transform="matrix(1.3333333,0,0,-1.3333333,-88.666664,247.24119)"><g
       id="g4163"
       transform="translate(104.3089,119.2842)"><path
         d="m 0,0 c 1.25,-1.19 2.976,-1.928 4.88,-1.928 3.807,0 6.904,2.949 6.904,6.575 0,3.625 -3.097,6.574 -6.904,6.574 -3.807,0 -6.905,-2.949 -6.905,-6.574 C -2.025,2.834 -1.25,1.19 0,0 m 4.88,-3.951 c -4.923,0 -8.927,3.857 -8.927,8.598 0,4.74 4.004,8.597 8.927,8.597 4.922,0 8.927,-3.857 8.927,-8.597 0,-4.741 -4.005,-8.598 -8.927,-8.598"
         style="fill:#83b040;fill-opacity:1;fill-rule:nonzero;stroke:none"
         id="path4165"
         inkscape:connector-curvature="0" /></g><g
       id="g4167"
       transform="translate(104.9983,120.0082)"><path
         d="m 0,0 c 1.119,-1.065 2.607,-1.652 4.19,-1.652 3.256,0 5.905,2.501 5.905,5.575 0,3.074 -2.649,5.574 -5.905,5.574 -3.255,0 -5.904,-2.5 -5.904,-5.574 C -1.714,2.446 -1.105,1.053 0,0 m 4.19,-3.652 c -2.098,0 -4.076,0.783 -5.569,2.204 -1.506,1.433 -2.335,3.341 -2.335,5.371 0,4.176 3.546,7.574 7.904,7.574 4.359,0 7.905,-3.398 7.905,-7.574 0,-4.177 -3.546,-7.575 -7.905,-7.575 m 0,15.172 c -4.371,0 -7.927,-3.408 -7.927,-7.597 0,-4.19 3.556,-7.598 7.927,-7.598 4.372,0 7.928,3.408 7.928,7.598 0,4.189 -3.556,7.597 -7.928,7.597 m 0,-17.195 c -5.474,0 -9.927,4.306 -9.927,9.598 0,5.292 4.453,9.597 9.927,9.597 5.475,0 9.928,-4.305 9.928,-9.597 0,-5.292 -4.453,-9.598 -9.928,-9.598"
         style="fill:#83b040;fill-opacity:1;fill-rule:nonzero;stroke:none"
         id="path4169"
         inkscape:connector-curvature="0" /></g><g
       id="g4171"
       transform="translate(168.8644,158.0019)"><path
         d="m 0,0 c -3.807,0 -6.904,-2.949 -6.904,-6.574 0,-3.626 3.097,-6.575 6.904,-6.575 3.807,0 6.904,2.949 6.904,6.575 C 6.904,-2.949 3.807,0 0,0 m 0,-15.172 c -4.922,0 -8.927,3.857 -8.927,8.598 0,4.74 4.005,8.597 8.927,8.597 4.922,0 8.927,-3.857 8.927,-8.597 0,-4.741 -4.005,-8.598 -8.927,-8.598"
         style="fill:#83b040;fill-opacity:1;fill-rule:nonzero;stroke:none"
         id="path4173"
         inkscape:connector-curvature="0" /></g><g
       id="g4175"
       transform="translate(168.8645,157.0018)"><path
         d="m 0,0 c -3.256,0 -5.904,-2.5 -5.904,-5.574 0,-3.074 2.648,-5.575 5.904,-5.575 3.256,0 5.904,2.501 5.904,5.575 C 5.904,-2.5 3.256,0 0,0 m 0,-13.149 c -4.358,0 -7.904,3.398 -7.904,7.575 C -7.904,-1.398 -4.358,2 0,2 4.358,2 7.904,-1.398 7.904,-5.574 7.904,-9.751 4.358,-13.149 0,-13.149 M 0,2.023 c -4.371,0 -7.927,-3.408 -7.927,-7.597 0,-4.19 3.556,-7.598 7.927,-7.598 4.371,0 7.927,3.408 7.927,7.598 0,4.189 -3.556,7.597 -7.927,7.597 m 0,-17.195 c -5.474,0 -9.927,4.306 -9.927,9.598 0,5.292 4.453,9.597 9.927,9.597 5.474,0 9.927,-4.305 9.927,-9.597 0,-5.292 -4.453,-9.598 -9.927,-9.598"
         style="fill:#83b040;fill-opacity:1;fill-rule:nonzero;stroke:none"
         id="path4177"
         inkscape:connector-curvature="0" /></g><g
       id="g4179"
       transform="translate(168.8644,103.0089)"><path
         d="m 0,0 c -3.807,0 -6.904,-2.949 -6.904,-6.574 0,-3.626 3.097,-6.575 6.904,-6.575 3.807,0 6.904,2.949 6.904,6.575 C 6.904,-2.949 3.807,0 0,0 m 0,-15.172 c -4.922,0 -8.927,3.857 -8.927,8.598 0,4.74 4.005,8.597 8.927,8.597 4.922,0 8.927,-3.857 8.927,-8.597 0,-4.741 -4.005,-8.598 -8.927,-8.598"
         style="fill:#83b040;fill-opacity:1;fill-rule:nonzero;stroke:none"
         id="path4181"
         inkscape:connector-curvature="0" /></g><g
       id="g4183"
       transform="translate(168.8645,102.0087)"><path
         d="m 0,0 c -3.256,0 -5.904,-2.5 -5.904,-5.574 0,-3.074 2.648,-5.575 5.904,-5.575 3.256,0 5.904,2.501 5.904,5.575 C 5.904,-2.5 3.256,0 0,0 m 0,-13.149 c -4.358,0 -7.904,3.398 -7.904,7.575 C -7.904,-1.398 -4.358,2 0,2 4.358,2 7.904,-1.398 7.904,-5.574 7.904,-9.751 4.358,-13.149 0,-13.149 M 0,2.023 c -4.371,0 -7.927,-3.408 -7.927,-7.597 0,-4.189 3.556,-7.597 7.927,-7.597 4.371,0 7.927,3.408 7.927,7.597 0,4.189 -3.556,7.597 -7.927,7.597 m 0,-17.194 c -5.474,0 -9.927,4.305 -9.927,9.597 0,5.292 4.453,9.597 9.927,9.597 5.474,0 9.927,-4.305 9.927,-9.597 0,-5.292 -4.453,-9.597 -9.927,-9.597"
         style="fill:#83b040;fill-opacity:1;fill-rule:nonzero;stroke:none"
         id="path4185"
         inkscape:connector-curvature="0" /></g><g
       id="g4187"
       transform="translate(160.1315,150.4039)"><path
         d="m 0,0 -44.565,-20.422 1.053,-2.299 44.565,20.422 z"
         style="fill:#83b040;fill-opacity:1;fill-rule:nonzero;stroke:none"
         id="path4189"
         inkscape:connector-curvature="0" /></g><g
       id="g4191"
       transform="translate(116.8919,129.4891)"><path
         d="m 0,0 0.22,-0.48 42.747,19.588 -0.22,0.481 z m -0.764,-3.132 -1.887,4.117 46.383,21.255 1.887,-4.117 z"
         style="fill:#83b040;fill-opacity:1;fill-rule:nonzero;stroke:none"
         id="path4193"
         inkscape:connector-curvature="0" /></g><g
       id="g4195"
       transform="translate(160.1315,97.9758)"><path
         d="m 0,0 -44.565,20.422 1.053,2.299 L 1.053,2.299 Z"
         style="fill:#83b040;fill-opacity:1;fill-rule:nonzero;stroke:none"
         id="path4197"
         inkscape:connector-curvature="0" /></g><g
       id="g4199"
       transform="translate(116.8919,118.8905)"><path
         d="m 0,0 42.747,-19.589 0.22,0.481 L 0.22,0.48 Z m 43.732,-22.24 -46.383,21.255 1.887,4.117 46.383,-21.255 z"
         style="fill:#83b040;fill-opacity:1;fill-rule:nonzero;stroke:none"
         id="path4201"
         inkscape:connector-curvature="0" /></g><g
       id="g4203"
       transform="translate(120.3147,123.9309)"><path
         d="M 0,0 H 4.046"
         style="fill:#83b040;fill-opacity:1;fill-rule:nonzero;stroke:none"
         id="path4205"
         inkscape:connector-curvature="0" /></g><path
       d="m 124.361,122.931 h -4.046 v 2 h 4.046 z"
       style="fill:#83b040;fill-opacity:1;fill-rule:nonzero;stroke:none"
       id="path4207"
       inkscape:connector-curvature="0" /><path
       d="m 124.361,123.172 h -4.046 v 1.517 h 4.046 z"
       style="fill:#83b040;fill-opacity:1;fill-rule:nonzero;stroke:none"
       id="path4209"
       inkscape:connector-curvature="0" /><path
       d="m 125.361,122.172 h -6.046 v 3.518 h 6.046 z"
       style="fill:#83b040;fill-opacity:1;fill-rule:nonzero;stroke:none"
       id="path4211"
       inkscape:connector-curvature="0" /><g
       id="g4213"
       transform="translate(127.6477,123.9309)"><path
         d="M 0,0 H 4.046"
         style="fill:#83b040;fill-opacity:1;fill-rule:nonzero;stroke:none"
         id="path4215"
         inkscape:connector-curvature="0" /></g><path
       d="m 131.694,122.931 h -4.046 v 2 h 4.046 z"
       style="fill:#83b040;fill-opacity:1;fill-rule:nonzero;stroke:none"
       id="path4217"
       inkscape:connector-curvature="0" /><path
       d="m 131.694,123.172 h -4.046 v 1.517 h 4.046 z"
       style="fill:#83b040;fill-opacity:1;fill-rule:nonzero;stroke:none"
       id="path4219"
       inkscape:connector-curvature="0" /><path
       d="m 132.694,122.172 h -6.046 v 3.518 h 6.046 z"
       style="fill:#83b040;fill-opacity:1;fill-rule:nonzero;stroke:none"
       id="path4221"
       inkscape:connector-curvature="0" /><g
       id="g4223"
       transform="translate(134.9808,123.9309)"><path
         d="M 0,0 H 4.046"
         style="fill:#83b040;fill-opacity:1;fill-rule:nonzero;stroke:none"
         id="path4225"
         inkscape:connector-curvature="0" /></g><path
       d="m 139.027,122.931 h -4.046 v 2 h 4.046 z"
       style="fill:#83b040;fill-opacity:1;fill-rule:nonzero;stroke:none"
       id="path4227"
       inkscape:connector-curvature="0" /><path
       d="m 139.027,123.172 h -4.046 v 1.517 h 4.046 z"
       style="fill:#83b040;fill-opacity:1;fill-rule:nonzero;stroke:none"
       id="path4229"
       inkscape:connector-curvature="0" /><path
       d="m 140.027,122.172 h -6.046 v 3.518 h 6.046 z"
       style="fill:#83b040;fill-opacity:1;fill-rule:nonzero;stroke:none"
       id="path4231"
       inkscape:connector-curvature="0" /><g
       id="g4233"
       transform="translate(142.3138,123.9309)"><path
         d="M 0,0 H 4.046"
         style="fill:#83b040;fill-opacity:1;fill-rule:nonzero;stroke:none"
         id="path4235"
         inkscape:connector-curvature="0" /></g><path
       d="m 146.36,122.931 h -4.046 v 2 h 4.046 z"
       style="fill:#83b040;fill-opacity:1;fill-rule:nonzero;stroke:none"
       id="path4237"
       inkscape:connector-curvature="0" /><path
       d="m 146.36,123.172 h -4.046 v 1.517 h 4.046 z"
       style="fill:#83b040;fill-opacity:1;fill-rule:nonzero;stroke:none"
       id="path4239"
       inkscape:connector-curvature="0" /><path
       d="m 147.36,122.172 h -6.046 v 3.518 h 6.046 z"
       style="fill:#83b040;fill-opacity:1;fill-rule:nonzero;stroke:none"
       id="path4241"
       inkscape:connector-curvature="0" /><g
       id="g4243"
       transform="translate(149.6468,123.9309)"><path
         d="M 0,0 H 4.046"
         style="fill:#83b040;fill-opacity:1;fill-rule:nonzero;stroke:none"
         id="path4245"
         inkscape:connector-curvature="0" /></g><path
       d="m 153.693,122.931 h -4.046 v 2 h 4.046 z"
       style="fill:#83b040;fill-opacity:1;fill-rule:nonzero;stroke:none"
       id="path4247"
       inkscape:connector-curvature="0" /><path
       d="m 153.693,123.172 h -4.046 v 1.517 h 4.046 z"
       style="fill:#83b040;fill-opacity:1;fill-rule:nonzero;stroke:none"
       id="path4249"
       inkscape:connector-curvature="0" /><path
       d="m 154.693,122.172 h -6.046 v 3.518 h 6.046 z"
       style="fill:#83b040;fill-opacity:1;fill-rule:nonzero;stroke:none"
       id="path4251"
       inkscape:connector-curvature="0" /><g
       id="g4253"
       transform="translate(156.9799,123.9309)"><path
         d="M 0,0 H 4.046"
         style="fill:#83b040;fill-opacity:1;fill-rule:nonzero;stroke:none"
         id="path4255"
         inkscape:connector-curvature="0" /></g><path
       d="m 161.026,122.931 h -4.046 v 2 h 4.046 z"
       style="fill:#83b040;fill-opacity:1;fill-rule:nonzero;stroke:none"
       id="path4257"
       inkscape:connector-curvature="0" /><path
       d="m 161.026,123.172 h -4.046 v 1.517 h 4.046 z"
       style="fill:#83b040;fill-opacity:1;fill-rule:nonzero;stroke:none"
       id="path4259"
       inkscape:connector-curvature="0" /><path
       d="m 162.026,122.172 h -6.046 v 3.518 h 6.046 z"
       style="fill:#83b040;fill-opacity:1;fill-rule:nonzero;stroke:none"
       id="path4261"
       inkscape:connector-curvature="0" /><g
       id="g4263"
       transform="translate(164.3129,123.9309)"><path
         d="M 0,0 H 4.046"
         style="fill:#83b040;fill-opacity:1;fill-rule:nonzero;stroke:none"
         id="path4265"
         inkscape:connector-curvature="0" /></g><path
       d="m 168.359,122.931 h -4.046 v 2 h 4.046 z"
       style="fill:#83b040;fill-opacity:1;fill-rule:nonzero;stroke:none"
       id="path4267"
       inkscape:connector-curvature="0" /><path
       d="m 168.359,123.172 h -4.046 v 1.517 h 4.046 z"
       style="fill:#83b040;fill-opacity:1;fill-rule:nonzero;stroke:none"
       id="path4269"
       inkscape:connector-curvature="0" /><path
       d="m 169.359,122.172 h -6.046 v 3.518 h 6.046 z"
       style="fill:#83b040;fill-opacity:1;fill-rule:nonzero;stroke:none"
       id="path4271"
       inkscape:connector-curvature="0" /><g
       id="g4273"
       transform="translate(171.6459,123.9309)"><path
         d="M 0,0 H 4.046"
         style="fill:#83b040;fill-opacity:1;fill-rule:nonzero;stroke:none"
         id="path4275"
         inkscape:connector-curvature="0" /></g><path
       d="m 175.692,122.931 h -4.046 v 2 h 4.046 z"
       style="fill:#83b040;fill-opacity:1;fill-rule:nonzero;stroke:none"
       id="path4277"
       inkscape:connector-curvature="0" /><path
       d="m 175.692,123.172 h -4.046 v 1.517 h 4.046 z"
       style="fill:#83b040;fill-opacity:1;fill-rule:nonzero;stroke:none"
       id="path4279"
       inkscape:connector-curvature="0" /><path
       d="m 176.692,122.172 h -6.046 v 3.518 h 6.046 z"
       style="fill:#83b040;fill-opacity:1;fill-rule:nonzero;stroke:none"
       id="path4281"
       inkscape:connector-curvature="0" /><path
       d="m 277.68,89.453 h 2.426 v 68.956 h -2.426 z"
       style="fill:#60a8dc;fill-opacity:1;fill-rule:nonzero;stroke:none"
       id="path4283"
       inkscape:connector-curvature="0" /><path
       d="m 278.68,90.453 h 0.426 v 66.956 h -0.426 z m 2.426,-2 h -4.426 v 70.956 h 4.426 z"
       style="fill:#60a8dc;fill-opacity:1;fill-rule:nonzero;stroke:none"
       id="path4285"
       inkscape:connector-curvature="0" /><path
       d="m 261.909,105.224 h 93.41 v 2.426 h -93.41 z"
       style="fill:#60a8dc;fill-opacity:1;fill-rule:nonzero;stroke:none"
       id="path4287"
       inkscape:connector-curvature="0" /><path
       d="m 262.909,106.224 h 91.41 v 0.426 h -91.41 z m 93.41,-2 h -95.41 v 4.426 h 95.41 z"
       style="fill:#60a8dc;fill-opacity:1;fill-rule:nonzero;stroke:none"
       id="path4289"
       inkscape:connector-curvature="0" /><g
       id="g4291"
       transform="translate(359.6442,114.0262)"><path
         d="m 0,0 c -14.249,-1.456 -21.303,0.966 -24.24,2.54 -0.771,0.413 -1.48,0.973 -2.109,1.664 l -10.469,11.518 c -2.652,2.917 -6.433,4.59 -10.376,4.59 H -56.5 c -2.857,0 -5.382,1.821 -6.284,4.531 l -2.51,7.534 c -1.708,5.128 -6.488,8.573 -11.893,8.573 h -9.225 v -2.426 h 9.225 c 4.359,0 8.213,-2.779 9.591,-6.914 l 2.509,-7.534 c 1.234,-3.703 4.684,-6.19 8.587,-6.19 h 9.306 c 3.26,0 6.388,-1.384 8.581,-3.796 L -28.144,2.573 c 0.815,-0.897 1.743,-1.627 2.758,-2.172 2.513,-1.346 7.755,-3.271 17.185,-3.271 2.51,0 5.317,0.136 8.447,0.456 z"
         style="fill:#60a8dc;fill-opacity:1;fill-rule:nonzero;stroke:none"
         id="path4293"
         inkscape:connector-curvature="0" /></g><g
       id="g4295"
       transform="translate(274.2317,153.5502)"><path
         d="m 0,0 h 8.226 c 4.79,0 9.025,-3.053 10.539,-7.598 l 2.509,-7.534 c 1.098,-3.293 4.167,-5.506 7.638,-5.506 h 9.307 c 3.541,0 6.938,-1.503 9.32,-4.123 l 10.469,-11.517 c 0.739,-0.813 1.577,-1.473 2.491,-1.963 2.198,-1.177 7.292,-3.153 16.712,-3.153 2.314,0 4.783,0.119 7.351,0.355 l -0.043,0.424 c -13.854,-1.272 -20.852,1.16 -23.819,2.75 -0.872,0.467 -1.672,1.097 -2.376,1.873 l -10.47,11.517 c -2.462,2.709 -5.974,4.263 -9.635,4.263 h -9.307 c -3.287,0 -6.194,2.096 -7.233,5.215 L 19.17,-7.463 C 17.598,-2.744 13.2,0.426 8.226,0.426 H 0 Z m 77.211,-43.394 c -9.363,0 -14.77,1.843 -17.656,3.39 -1.116,0.597 -2.134,1.398 -3.027,2.38 L 46.06,-26.107 c -2.005,2.205 -4.862,3.469 -7.841,3.469 h -9.307 c -4.333,0 -8.165,2.762 -9.535,6.874 L 16.868,-8.23 C 15.626,-4.504 12.154,-2 8.226,-2 H -2 V 2.426 H 8.226 c 5.836,0 10.997,-3.72 12.841,-9.257 l 2.51,-7.534 c 0.766,-2.301 2.91,-3.847 5.335,-3.847 h 9.307 c 4.223,0 8.275,-1.792 11.115,-4.918 l 10.47,-11.516 c 0.551,-0.607 1.17,-1.097 1.841,-1.457 2.835,-1.52 9.681,-3.856 23.666,-2.426 l 0.995,0.102 0.449,-4.404 -0.994,-0.101 c -2.994,-0.307 -5.871,-0.462 -8.55,-0.462"
         style="fill:#60a8dc;fill-opacity:1;fill-rule:nonzero;stroke:none"
         id="path4297"
         inkscape:connector-curvature="0" /></g><g
       id="g4299"
       transform="translate(433.1206,131.9356)"><path
         d="m 0,0 -1.952,2.395 24.113,19.651 h 36.594 v -3.09 H 23.26 Z"
         style="fill:#f47420;fill-opacity:1;fill-rule:nonzero;stroke:none"
         id="path4301"
         inkscape:connector-curvature="0" /></g><g
       id="g4303"
       transform="translate(432.5755,134.1864)"><path
         d="M 0,0 0.688,-0.844 23.45,17.705 h 34.851 v 1.089 H 23.062 Z m 0.401,-3.658 -3.215,3.945 25.165,20.507 h 37.95 v -5.089 h -36.14 z"
         style="fill:#f47420;fill-opacity:1;fill-rule:nonzero;stroke:none"
         id="path4305"
         inkscape:connector-curvature="0" /></g><g
       id="g4307"
       transform="translate(428.5401,133.1138)"><path
         d="m 0,0 c -1.42,0 -2.575,-1.155 -2.575,-2.575 0,-1.419 1.155,-2.574 2.575,-2.574 1.42,0 2.575,1.155 2.575,2.574 C 2.575,-1.155 1.42,0 0,0 m 0,-7.209 c -2.556,0 -4.634,2.079 -4.634,4.634 0,2.556 2.078,4.635 4.634,4.635 2.556,0 4.634,-2.079 4.634,-4.635 C 4.634,-5.13 2.556,-7.209 0,-7.209"
         style="fill:#f47420;fill-opacity:1;fill-rule:nonzero;stroke:none"
         id="path4309"
         inkscape:connector-curvature="0" /></g><g
       id="g4311"
       transform="translate(428.5403,132.1136)"><path
         d="m 0,0 c -0.868,0 -1.575,-0.707 -1.575,-1.575 0,-0.868 0.707,-1.574 1.575,-1.574 0.868,0 1.574,0.706 1.574,1.574 C 1.574,-0.707 0.868,0 0,0 m 0,-5.149 c -1.972,0 -3.575,1.604 -3.575,3.574 C -3.575,0.396 -1.972,2 0,2 1.971,2 3.574,0.396 3.574,-1.575 3.574,-3.545 1.971,-5.149 0,-5.149 M 0,2.06 c -2.004,0 -3.635,-1.631 -3.635,-3.635 0,-2.004 1.631,-3.634 3.635,-3.634 2.004,0 3.634,1.63 3.634,3.634 C 3.634,0.429 2.004,2.06 0,2.06 m 0,-9.269 c -3.107,0 -5.635,2.527 -5.635,5.634 0,3.107 2.528,5.635 5.635,5.635 3.106,0 5.634,-2.528 5.634,-5.635 0,-3.107 -2.528,-5.634 -5.634,-5.634"
         style="fill:#f47420;fill-opacity:1;fill-rule:nonzero;stroke:none"
         id="path4313"
         inkscape:connector-curvature="0" /></g><g
       id="g4315"
       transform="translate(495.4804,155.0109)"><path
         d="m 0,0 c -1.42,0 -2.575,-1.155 -2.575,-2.575 0,-1.419 1.155,-2.574 2.575,-2.574 1.42,0 2.575,1.155 2.575,2.574 C 2.575,-1.155 1.42,0 0,0 m 0,-7.209 c -2.556,0 -4.634,2.079 -4.634,4.634 0,2.556 2.078,4.635 4.634,4.635 2.556,0 4.634,-2.079 4.634,-4.635 C 4.634,-5.13 2.556,-7.209 0,-7.209"
         style="fill:#f47420;fill-opacity:1;fill-rule:nonzero;stroke:none"
         id="path4317"
         inkscape:connector-curvature="0" /></g><g
       id="g4319"
       transform="translate(495.4807,154.0111)"><path
         d="m 0,0 c -0.868,0 -1.575,-0.707 -1.575,-1.575 0,-0.868 0.707,-1.574 1.575,-1.574 0.868,0 1.574,0.706 1.574,1.574 C 1.574,-0.707 0.868,0 0,0 m 0,-5.149 c -1.972,0 -3.575,1.603 -3.575,3.574 C -3.575,0.396 -1.972,2 0,2 1.971,2 3.574,0.396 3.574,-1.575 3.574,-3.546 1.971,-5.149 0,-5.149 M 0,2.06 c -2.004,0 -3.635,-1.631 -3.635,-3.635 0,-2.004 1.631,-3.634 3.635,-3.634 2.004,0 3.634,1.63 3.634,3.634 C 3.634,0.429 2.004,2.06 0,2.06 m 0,-9.269 c -3.107,0 -5.635,2.527 -5.635,5.634 0,3.107 2.528,5.635 5.635,5.635 3.106,0 5.634,-2.528 5.634,-5.635 0,-3.107 -2.528,-5.634 -5.634,-5.634"
         style="fill:#f47420;fill-opacity:1;fill-rule:nonzero;stroke:none"
         id="path4321"
         inkscape:connector-curvature="0" /></g><g
       id="g4323"
       transform="translate(459.3481,114.5918)"><path
         d="M 0,0 -1.925,2.417 23.214,22.436 H 40.232 V 19.347 H 24.294 Z"
         style="fill:#f47420;fill-opacity:1;fill-rule:nonzero;stroke:none"
         id="path4325"
         inkscape:connector-curvature="0" /></g><g
       id="g4327"
       transform="translate(458.8284,116.8495)"><path
         d="m 0,0 0.679,-0.853 23.785,18.942 h 15.287 v 1.09 H 24.083 Z m 0.36,-3.663 -3.171,3.981 26.195,20.861 h 18.367 v -5.09 H 25.163 Z"
         style="fill:#f47420;fill-opacity:1;fill-rule:nonzero;stroke:none"
         id="path4329"
         inkscape:connector-curvature="0" /></g><g
       id="g4331"
       transform="translate(503.1842,138.0581)"><path
         d="m 0,0 c -1.42,0 -2.575,-1.155 -2.575,-2.575 0,-1.419 1.155,-2.574 2.575,-2.574 1.42,0 2.575,1.155 2.575,2.574 C 2.575,-1.155 1.42,0 0,0 m 0,-7.209 c -2.556,0 -4.634,2.079 -4.634,4.634 0,2.556 2.078,4.635 4.634,4.635 2.556,0 4.634,-2.079 4.634,-4.635 C 4.634,-5.13 2.556,-7.209 0,-7.209"
         style="fill:#f47420;fill-opacity:1;fill-rule:nonzero;stroke:none"
         id="path4333"
         inkscape:connector-curvature="0" /></g><g
       id="g4335"
       transform="translate(503.1839,137.058)"><path
         d="m 0,0 c -0.868,0 -1.574,-0.707 -1.574,-1.575 0,-0.868 0.706,-1.574 1.574,-1.574 0.868,0 1.575,0.706 1.575,1.574 C 1.575,-0.707 0.868,0 0,0 m 0,-5.149 c -1.971,0 -3.574,1.604 -3.574,3.574 C -3.574,0.396 -1.971,2 0,2 1.972,2 3.575,0.396 3.575,-1.575 3.575,-3.545 1.972,-5.149 0,-5.149 M 0,2.06 c -2.004,0 -3.634,-1.63 -3.634,-3.635 0,-2.004 1.63,-3.634 3.634,-3.634 2.004,0 3.635,1.63 3.635,3.634 C 3.635,0.43 2.004,2.06 0,2.06 m 0,-9.269 c -3.106,0 -5.634,2.527 -5.634,5.634 0,3.107 2.528,5.635 5.634,5.635 3.107,0 5.635,-2.528 5.635,-5.635 0,-3.107 -2.528,-5.634 -5.635,-5.634"
         style="fill:#f47420;fill-opacity:1;fill-rule:nonzero;stroke:none"
         id="path4337"
         inkscape:connector-curvature="0" /></g><g
       id="g4339"
       transform="translate(455.811,116.5107)"><path
         d="m 0,0 c -1.42,0 -2.575,-1.155 -2.575,-2.575 0,-1.419 1.155,-2.574 2.575,-2.574 1.42,0 2.575,1.155 2.575,2.574 C 2.575,-1.155 1.42,0 0,0 m 0,-7.209 c -2.556,0 -4.634,2.079 -4.634,4.634 0,2.556 2.078,4.635 4.634,4.635 2.556,0 4.634,-2.079 4.634,-4.635 C 4.634,-5.13 2.556,-7.209 0,-7.209"
         style="fill:#f47420;fill-opacity:1;fill-rule:nonzero;stroke:none"
         id="path4341"
         inkscape:connector-curvature="0" /></g><g
       id="g4343"
       transform="translate(455.8108,115.5106)"><path
         d="m 0,0 c -0.868,0 -1.574,-0.707 -1.574,-1.575 0,-0.868 0.706,-1.574 1.574,-1.574 0.868,0 1.575,0.706 1.575,1.574 C 1.575,-0.707 0.868,0 0,0 m 0,-5.149 c -1.971,0 -3.574,1.603 -3.574,3.574 C -3.574,0.396 -1.971,2 0,2 1.972,2 3.575,0.396 3.575,-1.575 3.575,-3.546 1.972,-5.149 0,-5.149 M 0,2.06 c -2.004,0 -3.634,-1.631 -3.634,-3.635 0,-2.004 1.63,-3.634 3.634,-3.634 2.004,0 3.635,1.63 3.635,3.634 C 3.635,0.429 2.004,2.06 0,2.06 m 0,-9.269 c -3.106,0 -5.634,2.527 -5.634,5.634 0,3.107 2.528,5.635 5.634,5.635 3.107,0 5.635,-2.528 5.635,-5.635 0,-3.107 -2.528,-5.634 -5.635,-5.634"
         style="fill:#f47420;fill-opacity:1;fill-rule:nonzero;stroke:none"
         id="path4345"
         inkscape:connector-curvature="0" /></g><g
       id="g4347"
       transform="translate(435.2597,116.2932)"><path
         d="m 0,0 c -2.599,0 -4.714,-2.115 -4.714,-4.714 0,-2.6 2.115,-4.714 4.714,-4.714 2.599,0 4.714,2.114 4.714,4.714 C 4.714,-2.115 2.599,0 0,0 m 0,-11.488 c -3.735,0 -6.773,3.039 -6.773,6.774 0,3.735 3.038,6.774 6.773,6.774 3.735,0 6.774,-3.039 6.774,-6.774 0,-3.735 -3.039,-6.774 -6.774,-6.774"
         style="fill:#f47420;fill-opacity:1;fill-rule:nonzero;stroke:none"
         id="path4349"
         inkscape:connector-curvature="0" /></g><g
       id="g4351"
       transform="translate(435.26,115.2933)"><path
         d="m 0,0 c -2.048,0 -3.714,-1.666 -3.714,-3.714 0,-2.048 1.666,-3.714 3.714,-3.714 2.048,0 3.714,1.666 3.714,3.714 C 3.714,-1.666 2.048,0 0,0 m 0,-9.428 c -3.15,0 -5.714,2.563 -5.714,5.714 C -5.714,-0.563 -3.15,2 0,2 3.15,2 5.714,-0.563 5.714,-3.714 5.714,-6.865 3.15,-9.428 0,-9.428 M 0,2.06 c -3.184,0 -5.773,-2.591 -5.773,-5.774 0,-3.184 2.589,-5.774 5.773,-5.774 3.184,0 5.773,2.59 5.773,5.774 C 5.773,-0.531 3.184,2.06 0,2.06 m 0,-13.548 c -4.286,0 -7.773,3.488 -7.773,7.774 0,4.286 3.487,7.774 7.773,7.774 4.286,0 7.773,-3.488 7.773,-7.774 C 7.773,-8 4.286,-11.488 0,-11.488"
         style="fill:#f47420;fill-opacity:1;fill-rule:nonzero;stroke:none"
         id="path4353"
         inkscape:connector-curvature="0" /></g><path
       d="m 502.893,93.881 h -73.119 v 3.09 h 73.119 z"
       style="fill:#f47420;fill-opacity:1;fill-rule:nonzero;stroke:none"
       id="path4355"
       inkscape:connector-curvature="0" /><path
       d="m 430.774,94.881 h 71.119 v 1.09 h -71.119 z m 73.119,-2 h -75.119 v 5.09 h 75.119 z"
       style="fill:#f47420;fill-opacity:1;fill-rule:nonzero;stroke:none"
       id="path4357"
       inkscape:connector-curvature="0" /><g
       id="g4359"
       transform="translate(426.684,98.0002)"><path
         d="m 0,0 c -1.42,0 -2.575,-1.155 -2.575,-2.575 0,-1.419 1.155,-2.574 2.575,-2.574 1.42,0 2.575,1.155 2.575,2.574 C 2.575,-1.155 1.42,0 0,0 m 0,-7.209 c -2.555,0 -4.634,2.079 -4.634,4.634 0,2.556 2.079,4.635 4.634,4.635 2.555,0 4.634,-2.079 4.634,-4.635 C 4.634,-5.13 2.555,-7.209 0,-7.209"
         style="fill:#f47420;fill-opacity:1;fill-rule:nonzero;stroke:none"
         id="path4361"
         inkscape:connector-curvature="0" /></g><g
       id="g4363"
       transform="translate(426.6839,97.0004)"><path
         d="m 0,0 c -0.868,0 -1.574,-0.707 -1.574,-1.575 0,-0.868 0.706,-1.574 1.574,-1.574 0.868,0 1.575,0.706 1.575,1.574 C 1.575,-0.707 0.868,0 0,0 m 0,-5.149 c -1.971,0 -3.574,1.603 -3.574,3.574 C -3.574,0.396 -1.971,2 0,2 1.972,2 3.575,0.396 3.575,-1.575 3.575,-3.546 1.972,-5.149 0,-5.149 M 0,2.06 c -2.004,0 -3.634,-1.631 -3.634,-3.635 0,-2.004 1.63,-3.634 3.634,-3.634 2.004,0 3.635,1.63 3.635,3.634 C 3.635,0.429 2.004,2.06 0,2.06 m 0,-9.269 c -3.106,0 -5.634,2.527 -5.634,5.634 0,3.107 2.528,5.635 5.634,5.635 3.107,0 5.635,-2.528 5.635,-5.635 0,-3.107 -2.528,-5.634 -5.635,-5.634"
         style="fill:#f47420;fill-opacity:1;fill-rule:nonzero;stroke:none"
         id="path4365"
         inkscape:connector-curvature="0" /></g><g
       id="g4367"
       transform="translate(506.4975,98.0002)"><path
         d="m 0,0 c -1.42,0 -2.575,-1.155 -2.575,-2.575 0,-1.419 1.155,-2.574 2.575,-2.574 1.42,0 2.575,1.155 2.575,2.574 C 2.575,-1.155 1.42,0 0,0 m 0,-7.209 c -2.556,0 -4.634,2.079 -4.634,4.634 0,2.556 2.078,4.635 4.634,4.635 2.556,0 4.634,-2.079 4.634,-4.635 C 4.634,-5.13 2.556,-7.209 0,-7.209"
         style="fill:#f47420;fill-opacity:1;fill-rule:nonzero;stroke:none"
         id="path4369"
         inkscape:connector-curvature="0" /></g><g
       id="g4371"
       transform="translate(506.4973,97.0004)"><path
         d="m 0,0 c -0.868,0 -1.574,-0.707 -1.574,-1.575 0,-0.868 0.706,-1.574 1.574,-1.574 0.868,0 1.575,0.706 1.575,1.574 C 1.575,-0.707 0.868,0 0,0 m 0,-5.149 c -1.971,0 -3.574,1.603 -3.574,3.574 C -3.574,0.396 -1.971,2 0,2 1.972,2 3.575,0.396 3.575,-1.575 3.575,-3.546 1.972,-5.149 0,-5.149 M 0,2.06 c -2.004,0 -3.634,-1.631 -3.634,-3.635 0,-2.004 1.63,-3.634 3.634,-3.634 2.004,0 3.635,1.63 3.635,3.634 C 3.635,0.429 2.004,2.06 0,2.06 m 0,-9.269 c -3.106,0 -5.634,2.527 -5.634,5.634 0,3.107 2.528,5.635 5.634,5.635 3.107,0 5.635,-2.528 5.635,-5.635 0,-3.107 -2.528,-5.634 -5.635,-5.634"
         style="fill:#f47420;fill-opacity:1;fill-rule:nonzero;stroke:none"
         id="path4373"
         inkscape:connector-curvature="0" /></g><g
       id="g4375"
       transform="translate(128,179.4309)"
       style="fill:#999999"><path
         d="m 0,0 c -30.603,0 -55.5,-24.897 -55.5,-55.5 0,-30.603 24.897,-55.5 55.5,-55.5 h 350 c 30.603,0 55.5,24.897 55.5,55.5 C 405.5,-24.897 380.603,0 350,0 Z M 350,-117 H 0 c -33.911,0 -61.5,27.589 -61.5,61.5 C -61.5,-21.589 -33.911,6 0,6 h 350 c 33.911,0 61.5,-27.589 61.5,-61.5 0,-33.911 -27.589,-61.5 -61.5,-61.5"
         style="fill:#999999;fill-opacity:1;fill-rule:nonzero;stroke:none"
         id="path4377"
         inkscape:connector-curvature="0" /></g><g
       id="g4379"
       transform="translate(201.7657,182.0154)"
       style="fill:#999999"><path
         d="m 0,0 h -7.766 l 54.003,-58.095 -54.003,-58.074 h 7.765 l 53.857,58.073 z"
         style="fill:#999999;fill-opacity:1;fill-rule:nonzero;stroke:none"
         id="path4381"
         inkscape:connector-curvature="0" /></g><g
       id="g4383"
       transform="translate(360.1206,182.0154)"
       style="fill:#999999"><path
         d="m 0,0 h -8.121 l 54.358,-58.095 -54.358,-58.074 h 8.12 l 53.857,58.073 z"
         style="fill:#999999;fill-opacity:1;fill-rule:nonzero;stroke:none"
         id="path4385"
         inkscape:connector-curvature="0" /></g></g></svg>