<?xml version="1.0" encoding="UTF-8" standalone="no"?>
<!-- Created with Inkscape (http://www.inkscape.org/) -->

<svg
   xmlns:dc="http://purl.org/dc/elements/1.1/"
   xmlns:cc="http://creativecommons.org/ns#"
   xmlns:rdf="http://www.w3.org/1999/02/22-rdf-syntax-ns#"
   xmlns:svg="http://www.w3.org/2000/svg"
   xmlns="http://www.w3.org/2000/svg"
   xmlns:sodipodi="http://sodipodi.sourceforge.net/DTD/sodipodi-0.dtd"
   xmlns:inkscape="http://www.inkscape.org/namespaces/inkscape"
   version="1.1"
   id="svg3908"
   xml:space="preserve"
   width="257.15732"
   height="164"
   viewBox="0 0 257.15732 164"
   sodipodi:docname="gen_icon.svg"
   inkscape:version="0.92.1 r15371"><metadata
     id="metadata3914"><rdf:RDF><cc:Work
         rdf:about=""><dc:format>image/svg+xml</dc:format><dc:type
           rdf:resource="http://purl.org/dc/dcmitype/StillImage" /><dc:title></dc:title></cc:Work></rdf:RDF></metadata><defs
     id="defs3912"><clipPath
       clipPathUnits="userSpaceOnUse"
       id="clipPath3924"><path
         d="M 0,250 H 250 V 0 H 0 Z"
         id="path3922"
         inkscape:connector-curvature="0" /></clipPath></defs><sodipodi:namedview
     pagecolor="#ffffff"
     bordercolor="#666666"
     borderopacity="1"
     objecttolerance="10"
     gridtolerance="10"
     guidetolerance="10"
     inkscape:pageopacity="0"
     inkscape:pageshadow="2"
     inkscape:window-width="2999"
     inkscape:window-height="1998"
     id="namedview3910"
     showgrid="false"
     inkscape:zoom="0.70799998"
     inkscape:cx="132.60174"
     inkscape:cy="76.62186"
     inkscape:window-x="1"
     inkscape:window-y="1"
     inkscape:window-maximized="1"
     inkscape:current-layer="g3916" /><g
     id="g3916"
     inkscape:groupmode="layer"
     inkscape:label="Makerspace icons"
     transform="matrix(1.3333333,0,0,-1.3333333,-34.064932,254.04479)"><g
       id="g3918"><g
         id="g3920"
         clip-path="url(#clipPath3924)"><g
           id="g3926"
           transform="translate(73.627,123.9963)"><path
             d="m 0,0 c 1.25,-1.19 2.976,-1.928 4.88,-1.928 3.807,0 6.904,2.949 6.904,6.575 0,3.625 -3.097,6.574 -6.904,6.574 -3.807,0 -6.905,-2.949 -6.905,-6.574 C -2.025,2.834 -1.25,1.19 0,0 m 4.88,-3.951 c -4.923,0 -8.927,3.857 -8.927,8.598 0,4.74 4.004,8.597 8.927,8.597 4.922,0 8.927,-3.857 8.927,-8.597 0,-4.741 -4.005,-8.598 -8.927,-8.598"
             style="fill:#83b040;fill-opacity:1;fill-rule:nonzero;stroke:none"
             id="path3928"
             inkscape:connector-curvature="0" /></g><g
           id="g3930"
           transform="translate(78.507,134.2176)"><path
             d="m 0,0 c -3.256,0 -5.905,-2.501 -5.905,-5.574 0,-1.478 0.609,-2.871 1.715,-3.923 1.118,-1.065 2.607,-1.652 4.19,-1.652 3.256,0 5.904,2.501 5.904,5.575 C 5.904,-2.501 3.256,0 0,0 m 0,-13.149 c -2.099,0 -4.077,0.782 -5.569,2.203 -1.506,1.433 -2.336,3.342 -2.336,5.372 C -7.905,-1.397 -4.359,2 0,2 4.358,2 7.904,-1.397 7.904,-5.574 7.904,-9.751 4.358,-13.149 0,-13.149 M 0,2.022 c -4.371,0 -7.927,-3.408 -7.927,-7.596 0,-4.19 3.556,-7.598 7.927,-7.598 4.371,0 7.927,3.408 7.927,7.598 0,4.188 -3.556,7.596 -7.927,7.596 m 0,-17.194 c -5.474,0 -9.927,4.306 -9.927,9.598 0,5.292 4.453,9.596 9.927,9.596 5.474,0 9.927,-4.304 9.927,-9.596 0,-5.292 -4.453,-9.598 -9.927,-9.598"
             style="fill:#83b040;fill-opacity:1;fill-rule:nonzero;stroke:none"
             id="path3932"
             inkscape:connector-curvature="0" /></g><g
           id="g3934"
           transform="translate(138.1825,162.714)"><path
             d="m 0,0 c -3.807,0 -6.904,-2.949 -6.904,-6.574 0,-3.626 3.097,-6.575 6.904,-6.575 3.807,0 6.904,2.949 6.904,6.575 C 6.904,-2.949 3.807,0 0,0 m 0,-15.172 c -4.922,0 -8.927,3.857 -8.927,8.598 0,4.74 4.005,8.597 8.927,8.597 4.922,0 8.927,-3.857 8.927,-8.597 0,-4.741 -4.005,-8.598 -8.927,-8.598"
             style="fill:#83b040;fill-opacity:1;fill-rule:nonzero;stroke:none"
             id="path3936"
             inkscape:connector-curvature="0" /></g><g
           id="g3938"
           transform="translate(138.1823,161.7137)"><path
             d="m 0,0 c -3.256,0 -5.904,-2.501 -5.904,-5.574 0,-3.073 2.648,-5.574 5.904,-5.574 3.256,0 5.905,2.501 5.905,5.574 C 5.905,-2.501 3.256,0 0,0 m 0,-13.148 c -4.358,0 -7.904,3.397 -7.904,7.574 C -7.904,-1.397 -4.358,2 0,2 4.359,2 7.905,-1.397 7.905,-5.574 7.905,-9.751 4.359,-13.148 0,-13.148 M 0,2.023 c -4.371,0 -7.927,-3.408 -7.927,-7.597 0,-4.19 3.556,-7.598 7.927,-7.598 4.371,0 7.927,3.408 7.927,7.598 0,4.189 -3.556,7.597 -7.927,7.597 m 0,-17.195 c -5.474,0 -9.927,4.306 -9.927,9.598 0,5.292 4.453,9.597 9.927,9.597 5.474,0 9.927,-4.305 9.927,-9.597 0,-5.292 -4.453,-9.598 -9.927,-9.598"
             style="fill:#83b040;fill-opacity:1;fill-rule:nonzero;stroke:none"
             id="path3940"
             inkscape:connector-curvature="0" /></g><g
           id="g3942"
           transform="translate(138.1825,107.721)"><path
             d="m 0,0 c -3.807,0 -6.904,-2.949 -6.904,-6.574 0,-3.626 3.097,-6.575 6.904,-6.575 3.807,0 6.904,2.949 6.904,6.575 C 6.904,-2.949 3.807,0 0,0 m 0,-15.172 c -4.922,0 -8.927,3.857 -8.927,8.598 0,4.74 4.005,8.597 8.927,8.597 4.922,0 8.927,-3.857 8.927,-8.597 0,-4.741 -4.005,-8.598 -8.927,-8.598"
             style="fill:#83b040;fill-opacity:1;fill-rule:nonzero;stroke:none"
             id="path3944"
             inkscape:connector-curvature="0" /></g><g
           id="g3946"
           transform="translate(138.1823,106.7205)"><path
             d="m 0,0 c -3.256,0 -5.904,-2.501 -5.904,-5.574 0,-3.073 2.648,-5.574 5.904,-5.574 3.256,0 5.905,2.501 5.905,5.574 C 5.905,-2.501 3.256,0 0,0 m 0,-13.148 c -4.358,0 -7.904,3.397 -7.904,7.574 C -7.904,-1.397 -4.358,2 0,2 4.359,2 7.905,-1.397 7.905,-5.574 7.905,-9.751 4.359,-13.148 0,-13.148 M 0,2.023 c -4.371,0 -7.927,-3.408 -7.927,-7.597 0,-4.189 3.556,-7.597 7.927,-7.597 4.371,0 7.927,3.408 7.927,7.597 0,4.189 -3.556,7.597 -7.927,7.597 m 0,-17.194 c -5.474,0 -9.927,4.305 -9.927,9.597 0,5.292 4.453,9.597 9.927,9.597 5.474,0 9.927,-4.305 9.927,-9.597 0,-5.292 -4.453,-9.597 -9.927,-9.597"
             style="fill:#83b040;fill-opacity:1;fill-rule:nonzero;stroke:none"
             id="path3948"
             inkscape:connector-curvature="0" /></g><g
           id="g3950"
           transform="translate(129.4496,155.116)"><path
             d="m 0,0 -44.565,-20.422 1.053,-2.299 44.565,20.422 z"
             style="fill:#83b040;fill-opacity:1;fill-rule:nonzero;stroke:none"
             id="path3952"
             inkscape:connector-curvature="0" /></g><g
           id="g3954"
           transform="translate(86.2101,134.202)"><path
             d="m 0,0 0.22,-0.48 42.747,19.587 -0.22,0.482 z m -0.765,-3.133 -1.886,4.117 46.382,21.255 1.888,-4.116 z"
             style="fill:#83b040;fill-opacity:1;fill-rule:nonzero;stroke:none"
             id="path3956"
             inkscape:connector-curvature="0" /></g><g
           id="g3958"
           transform="translate(129.4496,102.6879)"><path
             d="m 0,0 -44.565,20.422 1.053,2.299 L 1.053,2.299 Z"
             style="fill:#83b040;fill-opacity:1;fill-rule:nonzero;stroke:none"
             id="path3960"
             inkscape:connector-curvature="0" /></g><g
           id="g3962"
           transform="translate(86.2101,123.6024)"><path
             d="m 0,0 42.747,-19.589 0.22,0.482 L 0.22,0.48 Z m 43.731,-22.239 -46.382,21.255 1.886,4.117 46.384,-21.256 z"
             style="fill:#83b040;fill-opacity:1;fill-rule:nonzero;stroke:none"
             id="path3964"
             inkscape:connector-curvature="0" /></g><g
           id="g3966"
           transform="translate(89.6328,128.643)"><path
             d="M 0,0 H 4.046"
             style="fill:#83b040;fill-opacity:1;fill-rule:nonzero;stroke:none"
             id="path3968"
             inkscape:connector-curvature="0" /></g><path
           d="m 93.678,127.643 h -4.045 v 2 h 4.045 z"
           style="fill:#83b040;fill-opacity:1;fill-rule:nonzero;stroke:none"
           id="path3970"
           inkscape:connector-curvature="0" /><path
           d="m 93.679,127.885 h -4.046 v 1.517 h 4.046 z"
           style="fill:#83b040;fill-opacity:1;fill-rule:nonzero;stroke:none"
           id="path3972"
           inkscape:connector-curvature="0" /><path
           d="m 94.678,126.885 h -6.045 v 3.518 h 6.045 z"
           style="fill:#83b040;fill-opacity:1;fill-rule:nonzero;stroke:none"
           id="path3974"
           inkscape:connector-curvature="0" /><g
           id="g3976"
           transform="translate(96.9658,128.643)"><path
             d="M 0,0 H 4.046"
             style="fill:#83b040;fill-opacity:1;fill-rule:nonzero;stroke:none"
             id="path3978"
             inkscape:connector-curvature="0" /></g><path
           d="m 101.011,127.643 h -4.045 v 2 h 4.045 z"
           style="fill:#83b040;fill-opacity:1;fill-rule:nonzero;stroke:none"
           id="path3980"
           inkscape:connector-curvature="0" /><path
           d="m 101.012,127.885 h -4.046 v 1.517 h 4.046 z"
           style="fill:#83b040;fill-opacity:1;fill-rule:nonzero;stroke:none"
           id="path3982"
           inkscape:connector-curvature="0" /><path
           d="m 102.011,126.885 h -6.045 v 3.518 h 6.045 z"
           style="fill:#83b040;fill-opacity:1;fill-rule:nonzero;stroke:none"
           id="path3984"
           inkscape:connector-curvature="0" /><g
           id="g3986"
           transform="translate(104.2989,128.643)"><path
             d="M 0,0 H 4.046"
             style="fill:#83b040;fill-opacity:1;fill-rule:nonzero;stroke:none"
             id="path3988"
             inkscape:connector-curvature="0" /></g><path
           d="m 108.345,127.643 h -4.046 v 2 h 4.046 z"
           style="fill:#83b040;fill-opacity:1;fill-rule:nonzero;stroke:none"
           id="path3990"
           inkscape:connector-curvature="0" /><path
           d="m 108.345,127.885 h -4.046 v 1.517 h 4.046 z"
           style="fill:#83b040;fill-opacity:1;fill-rule:nonzero;stroke:none"
           id="path3992"
           inkscape:connector-curvature="0" /><path
           d="m 109.345,126.885 h -6.046 v 3.518 h 6.046 z"
           style="fill:#83b040;fill-opacity:1;fill-rule:nonzero;stroke:none"
           id="path3994"
           inkscape:connector-curvature="0" /><g
           id="g3996"
           transform="translate(111.6319,128.643)"><path
             d="M 0,0 H 4.046"
             style="fill:#83b040;fill-opacity:1;fill-rule:nonzero;stroke:none"
             id="path3998"
             inkscape:connector-curvature="0" /></g><path
           d="m 115.678,127.643 h -4.046 v 2 h 4.046 z"
           style="fill:#83b040;fill-opacity:1;fill-rule:nonzero;stroke:none"
           id="path4000"
           inkscape:connector-curvature="0" /><path
           d="m 115.678,127.885 h -4.046 v 1.517 h 4.046 z"
           style="fill:#83b040;fill-opacity:1;fill-rule:nonzero;stroke:none"
           id="path4002"
           inkscape:connector-curvature="0" /><path
           d="m 116.678,126.885 h -6.046 v 3.518 h 6.046 z"
           style="fill:#83b040;fill-opacity:1;fill-rule:nonzero;stroke:none"
           id="path4004"
           inkscape:connector-curvature="0" /><g
           id="g4006"
           transform="translate(118.9649,128.643)"><path
             d="M 0,0 H 4.046"
             style="fill:#83b040;fill-opacity:1;fill-rule:nonzero;stroke:none"
             id="path4008"
             inkscape:connector-curvature="0" /></g><path
           d="m 123.011,127.643 h -4.046 v 2 h 4.046 z"
           style="fill:#83b040;fill-opacity:1;fill-rule:nonzero;stroke:none"
           id="path4010"
           inkscape:connector-curvature="0" /><path
           d="m 123.011,127.885 h -4.046 v 1.517 h 4.046 z"
           style="fill:#83b040;fill-opacity:1;fill-rule:nonzero;stroke:none"
           id="path4012"
           inkscape:connector-curvature="0" /><path
           d="m 124.011,126.885 h -6.046 v 3.518 h 6.046 z"
           style="fill:#83b040;fill-opacity:1;fill-rule:nonzero;stroke:none"
           id="path4014"
           inkscape:connector-curvature="0" /><g
           id="g4016"
           transform="translate(126.2979,128.643)"><path
             d="M 0,0 H 4.046"
             style="fill:#83b040;fill-opacity:1;fill-rule:nonzero;stroke:none"
             id="path4018"
             inkscape:connector-curvature="0" /></g><path
           d="m 130.344,127.643 h -4.046 v 2 h 4.046 z"
           style="fill:#83b040;fill-opacity:1;fill-rule:nonzero;stroke:none"
           id="path4020"
           inkscape:connector-curvature="0" /><path
           d="m 130.344,127.885 h -4.046 v 1.517 h 4.046 z"
           style="fill:#83b040;fill-opacity:1;fill-rule:nonzero;stroke:none"
           id="path4022"
           inkscape:connector-curvature="0" /><path
           d="m 131.344,126.885 h -6.046 v 3.518 h 6.046 z"
           style="fill:#83b040;fill-opacity:1;fill-rule:nonzero;stroke:none"
           id="path4024"
           inkscape:connector-curvature="0" /><g
           id="g4026"
           transform="translate(133.631,128.643)"><path
             d="M 0,0 H 4.046"
             style="fill:#83b040;fill-opacity:1;fill-rule:nonzero;stroke:none"
             id="path4028"
             inkscape:connector-curvature="0" /></g><path
           d="m 137.677,127.643 h -4.046 v 2 h 4.046 z"
           style="fill:#83b040;fill-opacity:1;fill-rule:nonzero;stroke:none"
           id="path4030"
           inkscape:connector-curvature="0" /><path
           d="m 137.677,127.885 h -4.046 v 1.517 h 4.046 z"
           style="fill:#83b040;fill-opacity:1;fill-rule:nonzero;stroke:none"
           id="path4032"
           inkscape:connector-curvature="0" /><path
           d="m 138.677,126.885 h -6.046 v 3.518 h 6.046 z"
           style="fill:#83b040;fill-opacity:1;fill-rule:nonzero;stroke:none"
           id="path4034"
           inkscape:connector-curvature="0" /><g
           id="g4036"
           transform="translate(140.964,128.643)"><path
             d="M 0,0 H 4.046"
             style="fill:#83b040;fill-opacity:1;fill-rule:nonzero;stroke:none"
             id="path4038"
             inkscape:connector-curvature="0" /></g><path
           d="m 145.01,127.643 h -4.046 v 2 h 4.046 z"
           style="fill:#83b040;fill-opacity:1;fill-rule:nonzero;stroke:none"
           id="path4040"
           inkscape:connector-curvature="0" /><path
           d="m 145.01,127.885 h -4.046 v 1.517 h 4.046 z"
           style="fill:#83b040;fill-opacity:1;fill-rule:nonzero;stroke:none"
           id="path4042"
           inkscape:connector-curvature="0" /><path
           d="m 146.01,126.885 h -6.046 v 3.518 h 6.046 z"
           style="fill:#83b040;fill-opacity:1;fill-rule:nonzero;stroke:none"
           id="path4044"
           inkscape:connector-curvature="0" /><g
           id="g4046"
           transform="translate(31.5487,129.0336)"><path
             d="m 0,0 c 0,30.603 24.897,55.5 55.5,55.5 h 73.971 L 178.638,2.748 125.659,-55.5 H 55.5 C 24.897,-55.5 0,-30.603 0,0 M 186.868,2.574 132.865,61.5 H 55.5 C 21.589,61.5 -6,33.911 -6,0 -6,-33.911 21.589,-61.5 55.5,-61.5 h 72.483 l 5.435,6 z"
             style="fill:#83b040;fill-opacity:1;fill-rule:nonzero;stroke:none"
             id="path4048"
             inkscape:connector-curvature="0" /></g></g></g></g></svg>