<?xml version="1.0" encoding="UTF-8" standalone="no"?>
<!-- Created with Inkscape (http://www.inkscape.org/) -->

<svg
   xmlns:dc="http://purl.org/dc/elements/1.1/"
   xmlns:cc="http://creativecommons.org/ns#"
   xmlns:rdf="http://www.w3.org/1999/02/22-rdf-syntax-ns#"
   xmlns:svg="http://www.w3.org/2000/svg"
   xmlns="http://www.w3.org/2000/svg"
   xmlns:sodipodi="http://sodipodi.sourceforge.net/DTD/sodipodi-0.dtd"
   xmlns:inkscape="http://www.inkscape.org/namespaces/inkscape"
   version="1.1"
   id="svg4069"
   xml:space="preserve"
   width="289.74533"
   height="164"
   viewBox="0 0 289.74533 164"
   sodipodi:docname="fit_icon.svg"
   inkscape:version="0.92.1 r15371"><metadata
     id="metadata4075"><rdf:RDF><cc:Work
         rdf:about=""><dc:format>image/svg+xml</dc:format><dc:type
           rdf:resource="http://purl.org/dc/dcmitype/StillImage" /><dc:title></dc:title></cc:Work></rdf:RDF></metadata><defs
     id="defs4073"><clipPath
       clipPathUnits="userSpaceOnUse"
       id="clipPath4093"><path
         d="M 0,250 H 250 V 0 H 0 Z"
         id="path4091"
         inkscape:connector-curvature="0" /></clipPath></defs><sodipodi:namedview
     pagecolor="#ffffff"
     bordercolor="#666666"
     borderopacity="1"
     objecttolerance="10"
     gridtolerance="10"
     guidetolerance="10"
     inkscape:pageopacity="0"
     inkscape:pageshadow="2"
     inkscape:window-width="2999"
     inkscape:window-height="1998"
     id="namedview4071"
     showgrid="false"
     inkscape:zoom="0.70799998"
     inkscape:cx="133.27707"
     inkscape:cy="81.999594"
     inkscape:window-x="1"
     inkscape:window-y="1"
     inkscape:window-maximized="1"
     inkscape:current-layer="g4077" /><g
     id="g4077"
     inkscape:groupmode="layer"
     inkscape:label="Makerspace icons"
     transform="matrix(1.3333333,0,0,-1.3333333,-33.389599,248.66706)"><path
       d="m 111.459,90.522 h 2.426 v 68.956 h -2.426 z"
       style="fill:#60a8dc;fill-opacity:1;fill-rule:nonzero;stroke:none"
       id="path4079"
       inkscape:connector-curvature="0" /><path
       d="m 112.459,91.522 h 0.426 v 66.956 h -0.426 z m 2.426,-2 h -4.426 v 70.956 h 4.426 z"
       style="fill:#60a8dc;fill-opacity:1;fill-rule:nonzero;stroke:none"
       id="path4081"
       inkscape:connector-curvature="0" /><path
       d="m 95.689,106.293 h 93.41 v 2.426 h -93.41 z"
       style="fill:#60a8dc;fill-opacity:1;fill-rule:nonzero;stroke:none"
       id="path4083"
       inkscape:connector-curvature="0" /><path
       d="m 96.688,107.292 h 91.41 v 0.427 h -91.41 z m 93.411,-2 h -95.41 v 4.427 h 95.41 z"
       style="fill:#60a8dc;fill-opacity:1;fill-rule:nonzero;stroke:none"
       id="path4085"
       inkscape:connector-curvature="0" /><g
       id="g4087"><g
         id="g4089"
         clip-path="url(#clipPath4093)"><g
           id="g4095"
           transform="translate(193.4235,115.0952)"><path
             d="m 0,0 c -14.249,-1.456 -21.303,0.966 -24.24,2.54 -0.771,0.413 -1.48,0.973 -2.109,1.664 l -10.469,11.518 c -2.652,2.917 -6.433,4.59 -10.376,4.59 H -56.5 c -2.857,0 -5.382,1.821 -6.284,4.531 l -2.51,7.534 c -1.708,5.128 -6.488,8.573 -11.893,8.573 h -9.225 v -2.426 h 9.225 c 4.359,0 8.213,-2.779 9.591,-6.914 l 2.509,-7.534 c 1.234,-3.703 4.684,-6.19 8.587,-6.19 h 9.306 c 3.26,0 6.388,-1.384 8.581,-3.796 L -28.144,2.573 c 0.815,-0.897 1.743,-1.627 2.758,-2.172 2.513,-1.346 7.755,-3.271 17.185,-3.271 2.51,0 5.317,0.136 8.447,0.456 z"
             style="fill:#60a8dc;fill-opacity:1;fill-rule:nonzero;stroke:none"
             id="path4097"
             inkscape:connector-curvature="0" /></g><g
           id="g4099"
           transform="translate(108.0112,154.6195)"><path
             d="m 0,0 h 8.226 c 4.79,0 9.025,-3.054 10.539,-7.599 l 2.509,-7.533 c 1.098,-3.294 4.167,-5.507 7.638,-5.507 h 9.306 c 3.543,0 6.94,-1.503 9.321,-4.123 l 10.469,-11.516 c 0.738,-0.813 1.576,-1.473 2.491,-1.964 2.198,-1.177 7.293,-3.153 16.712,-3.153 2.311,0 4.78,0.12 7.351,0.356 l -0.043,0.423 c -13.855,-1.267 -20.852,1.161 -23.819,2.75 -0.873,0.468 -1.673,1.098 -2.377,1.875 l -10.469,11.515 c -2.462,2.71 -5.974,4.264 -9.636,4.264 h -9.306 c -3.287,0 -6.194,2.096 -7.233,5.214 l -2.51,7.534 C 17.598,-2.745 13.2,0.426 8.226,0.426 H 0 Z m 77.211,-43.395 c -9.362,0 -14.769,1.844 -17.657,3.39 -1.116,0.6 -2.135,1.401 -3.026,2.381 l -10.469,11.517 c -2.003,2.204 -4.861,3.468 -7.841,3.468 h -9.306 c -4.333,0 -8.165,2.763 -9.535,6.874 l -2.51,7.535 C 15.626,-4.504 12.154,-2 8.226,-2 H -2 V 2.426 H 8.226 c 5.836,0 10.997,-3.72 12.841,-9.257 l 2.51,-7.534 c 0.766,-2.301 2.91,-3.847 5.335,-3.847 h 9.306 c 4.224,0 8.276,-1.793 11.116,-4.918 l 10.469,-11.516 c 0.551,-0.608 1.171,-1.097 1.842,-1.457 2.835,-1.52 9.678,-3.858 23.666,-2.426 l 0.995,0.101 0.449,-4.402 -0.995,-0.103 c -2.996,-0.306 -5.873,-0.462 -8.549,-0.462"
             style="fill:#60a8dc;fill-opacity:1;fill-rule:nonzero;stroke:none"
             id="path4101"
             inkscape:connector-curvature="0" /></g><g
           id="g4103"
           transform="translate(91.4812,127.5733)"><path
             d="M 0,0 -49.065,52.927 H 91.311 L 143.25,-2.584 91.312,-58.073 H -53.857 Z m 150.87,-2.584 -51.461,55.511 -5.159,6 H -61.622 l 4.805,-6 L -7.62,0 l -54.002,-58.073 -4.817,-6 h 3.815 157.079 l 5.143,6 h -0.189 z"
             style="fill:#60a8dc;fill-opacity:1;fill-rule:nonzero;stroke:none"
             id="path4105"
             inkscape:connector-curvature="0" /></g></g></g></g></svg>