<?xml version="1.0" encoding="UTF-8" standalone="no"?>
<!-- Created with Inkscape (http://www.inkscape.org/) -->

<svg
   xmlns:dc="http://purl.org/dc/elements/1.1/"
   xmlns:cc="http://creativecommons.org/ns#"
   xmlns:rdf="http://www.w3.org/1999/02/22-rdf-syntax-ns#"
   xmlns:svg="http://www.w3.org/2000/svg"
   xmlns="http://www.w3.org/2000/svg"
   xmlns:sodipodi="http://sodipodi.sourceforge.net/DTD/sodipodi-0.dtd"
   xmlns:inkscape="http://www.inkscape.org/namespaces/inkscape"
   version="1.1"
   id="svg3699"
   xml:space="preserve"
   width="251.82399"
   height="164"
   viewBox="0 0 251.82399 164"
   sodipodi:docname="res_icon.svg"
   inkscape:version="0.92.1 r15371"><metadata
     id="metadata3705"><rdf:RDF><cc:Work
         rdf:about=""><dc:format>image/svg+xml</dc:format><dc:type
           rdf:resource="http://purl.org/dc/dcmitype/StillImage" /><dc:title></dc:title></cc:Work></rdf:RDF></metadata><defs
     id="defs3703"><clipPath
       clipPathUnits="userSpaceOnUse"
       id="clipPath3723"><path
         d="M 0,250 H 250 V 0 H 0 Z"
         id="path3721"
         inkscape:connector-curvature="0" /></clipPath></defs><sodipodi:namedview
     pagecolor="#ffffff"
     bordercolor="#666666"
     borderopacity="1"
     objecttolerance="10"
     gridtolerance="10"
     guidetolerance="10"
     inkscape:pageopacity="0"
     inkscape:pageshadow="2"
     inkscape:window-width="2999"
     inkscape:window-height="1998"
     id="namedview3701"
     showgrid="false"
     inkscape:zoom="5.2109998"
     inkscape:cx="131.97094"
     inkscape:cy="81.999994"
     inkscape:window-x="1"
     inkscape:window-y="1"
     inkscape:window-maximized="1"
     inkscape:current-layer="g3707" /><g
     id="g3707"
     inkscape:groupmode="layer"
     inkscape:label="Makerspace icons"
     transform="matrix(1.3333333,0,0,-1.3333333,-34.695732,248.66666)"><g
       id="g3709"
       transform="translate(105.9977,133.0046)"><path
         d="m 0,0 -1.952,2.395 24.113,19.651 h 36.594 v -3.09 H 23.26 Z"
         style="fill:#f47d20;fill-opacity:1;fill-rule:nonzero;stroke:none"
         id="path3711"
         inkscape:connector-curvature="0" /></g><g
       id="g3713"
       transform="translate(105.4532,135.2559)"><path
         d="M 0,0 0.688,-0.844 23.449,17.705 H 58.3 v 1.089 H 23.061 Z M 0.401,-3.658 -2.814,0.287 22.35,20.794 H 60.3 V 15.705 H 24.16 Z"
         style="fill:#f47d20;fill-opacity:1;fill-rule:nonzero;stroke:none"
         id="path3715"
         inkscape:connector-curvature="0" /></g><g
       id="g3717"><g
         id="g3719"
         clip-path="url(#clipPath3723)"><g
           id="g3725"
           transform="translate(101.4172,134.1828)"><path
             d="m 0,0 c -1.42,0 -2.575,-1.155 -2.575,-2.575 0,-1.419 1.155,-2.574 2.575,-2.574 1.42,0 2.575,1.155 2.575,2.574 C 2.575,-1.155 1.42,0 0,0 m 0,-7.209 c -2.556,0 -4.634,2.079 -4.634,4.634 0,2.556 2.078,4.635 4.634,4.635 2.556,0 4.634,-2.079 4.634,-4.635 C 4.634,-5.13 2.556,-7.209 0,-7.209"
             style="fill:#f47d20;fill-opacity:1;fill-rule:nonzero;stroke:none"
             id="path3727"
             inkscape:connector-curvature="0" /></g><g
           id="g3729"
           transform="translate(101.417,133.1827)"><path
             d="m 0,0 c -0.868,0 -1.574,-0.706 -1.574,-1.574 0,-0.868 0.706,-1.575 1.574,-1.575 0.868,0 1.575,0.707 1.575,1.575 C 1.575,-0.706 0.868,0 0,0 m 0,-5.149 c -1.971,0 -3.574,1.603 -3.574,3.575 C -3.574,0.396 -1.971,2 0,2 1.972,2 3.575,0.396 3.575,-1.574 3.575,-3.546 1.972,-5.149 0,-5.149 M 0,2.06 c -2.004,0 -3.634,-1.63 -3.634,-3.634 0,-2.004 1.63,-3.635 3.634,-3.635 2.004,0 3.635,1.631 3.635,3.635 C 3.635,0.43 2.004,2.06 0,2.06 m 0,-9.269 c -3.106,0 -5.634,2.527 -5.634,5.635 0,3.106 2.528,5.634 5.634,5.634 3.107,0 5.635,-2.528 5.635,-5.634 0,-3.108 -2.528,-5.635 -5.635,-5.635"
             style="fill:#f47d20;fill-opacity:1;fill-rule:nonzero;stroke:none"
             id="path3731"
             inkscape:connector-curvature="0" /></g><g
           id="g3733"
           transform="translate(168.3575,156.08)"><path
             d="m 0,0 c -1.42,0 -2.575,-1.155 -2.575,-2.575 0,-1.419 1.155,-2.574 2.575,-2.574 1.42,0 2.575,1.155 2.575,2.574 C 2.575,-1.155 1.42,0 0,0 m 0,-7.209 c -2.556,0 -4.634,2.079 -4.634,4.634 0,2.556 2.078,4.635 4.634,4.635 2.556,0 4.634,-2.079 4.634,-4.635 C 4.634,-5.13 2.556,-7.209 0,-7.209"
             style="fill:#f47d20;fill-opacity:1;fill-rule:nonzero;stroke:none"
             id="path3735"
             inkscape:connector-curvature="0" /></g><g
           id="g3737"
           transform="translate(168.3575,155.0801)"><path
             d="m 0,0 c -0.868,0 -1.574,-0.707 -1.574,-1.575 0,-0.868 0.706,-1.574 1.574,-1.574 0.868,0 1.574,0.706 1.574,1.574 C 1.574,-0.707 0.868,0 0,0 m 0,-5.149 c -1.971,0 -3.574,1.603 -3.574,3.574 C -3.574,0.396 -1.971,2 0,2 1.971,2 3.574,0.396 3.574,-1.575 3.574,-3.546 1.971,-5.149 0,-5.149 M 0,2.06 c -2.004,0 -3.634,-1.631 -3.634,-3.635 0,-2.004 1.63,-3.634 3.634,-3.634 2.004,0 3.635,1.63 3.635,3.634 C 3.635,0.429 2.004,2.06 0,2.06 m 0,-9.269 c -3.106,0 -5.634,2.527 -5.634,5.634 0,3.107 2.528,5.635 5.634,5.635 3.107,0 5.635,-2.528 5.635,-5.635 0,-3.107 -2.528,-5.634 -5.635,-5.634"
             style="fill:#f47d20;fill-opacity:1;fill-rule:nonzero;stroke:none"
             id="path3739"
             inkscape:connector-curvature="0" /></g><g
           id="g3741"
           transform="translate(132.2252,115.6608)"><path
             d="M 0,0 -1.925,2.417 23.214,22.436 H 40.232 V 19.347 H 24.294 Z"
             style="fill:#f47d20;fill-opacity:1;fill-rule:nonzero;stroke:none"
             id="path3743"
             inkscape:connector-curvature="0" /></g><g
           id="g3745"
           transform="translate(131.7051,117.918)"><path
             d="M 0,0 0.68,-0.852 24.465,18.09 h 15.287 v 1.09 H 24.084 Z M 0.361,-3.662 -2.811,0.318 23.385,21.18 H 41.752 V 16.09 H 25.164 Z"
             style="fill:#f47d20;fill-opacity:1;fill-rule:nonzero;stroke:none"
             id="path3747"
             inkscape:connector-curvature="0" /></g><g
           id="g3749"
           transform="translate(176.0613,139.1272)"><path
             d="m 0,0 c -1.42,0 -2.575,-1.155 -2.575,-2.575 0,-1.419 1.155,-2.574 2.575,-2.574 1.42,0 2.575,1.155 2.575,2.574 C 2.575,-1.155 1.42,0 0,0 m 0,-7.209 c -2.556,0 -4.634,2.079 -4.634,4.634 0,2.556 2.078,4.635 4.634,4.635 2.556,0 4.634,-2.079 4.634,-4.635 C 4.634,-5.13 2.556,-7.209 0,-7.209"
             style="fill:#f47d20;fill-opacity:1;fill-rule:nonzero;stroke:none"
             id="path3751"
             inkscape:connector-curvature="0" /></g><g
           id="g3753"
           transform="translate(176.0616,138.127)"><path
             d="m 0,0 c -0.868,0 -1.575,-0.706 -1.575,-1.574 0,-0.868 0.707,-1.575 1.575,-1.575 0.868,0 1.574,0.707 1.574,1.575 C 1.574,-0.706 0.868,0 0,0 m 0,-5.149 c -1.972,0 -3.575,1.603 -3.575,3.575 C -3.575,0.396 -1.972,2 0,2 1.971,2 3.574,0.396 3.574,-1.574 3.574,-3.546 1.971,-5.149 0,-5.149 M 0,2.06 c -2.004,0 -3.635,-1.63 -3.635,-3.634 0,-2.004 1.631,-3.635 3.635,-3.635 2.004,0 3.634,1.631 3.634,3.635 C 3.634,0.43 2.004,2.06 0,2.06 m 0,-9.269 c -3.107,0 -5.635,2.527 -5.635,5.635 0,3.106 2.528,5.634 5.635,5.634 3.106,0 5.634,-2.528 5.634,-5.634 0,-3.108 -2.528,-5.635 -5.634,-5.635"
             style="fill:#f47d20;fill-opacity:1;fill-rule:nonzero;stroke:none"
             id="path3755"
             inkscape:connector-curvature="0" /></g><g
           id="g3757"
           transform="translate(128.6881,117.5797)"><path
             d="m 0,0 c -1.42,0 -2.575,-1.155 -2.575,-2.575 0,-1.419 1.155,-2.574 2.575,-2.574 1.42,0 2.575,1.155 2.575,2.574 C 2.575,-1.155 1.42,0 0,0 m 0,-7.209 c -2.556,0 -4.634,2.079 -4.634,4.634 0,2.556 2.078,4.635 4.634,4.635 2.556,0 4.634,-2.079 4.634,-4.635 C 4.634,-5.13 2.556,-7.209 0,-7.209"
             style="fill:#f47d20;fill-opacity:1;fill-rule:nonzero;stroke:none"
             id="path3759"
             inkscape:connector-curvature="0" /></g><g
           id="g3761"
           transform="translate(128.6885,116.5801)"><path
             d="m 0,0 c -0.868,0 -1.575,-0.707 -1.575,-1.575 0,-0.868 0.707,-1.574 1.575,-1.574 0.868,0 1.574,0.706 1.574,1.574 C 1.574,-0.707 0.868,0 0,0 m 0,-5.149 c -1.972,0 -3.575,1.603 -3.575,3.574 C -3.575,0.396 -1.972,2 0,2 1.971,2 3.574,0.396 3.574,-1.575 3.574,-3.546 1.971,-5.149 0,-5.149 M 0,2.06 c -2.004,0 -3.635,-1.631 -3.635,-3.635 0,-2.004 1.631,-3.634 3.635,-3.634 2.004,0 3.634,1.63 3.634,3.634 C 3.634,0.429 2.004,2.06 0,2.06 m 0,-9.269 c -3.107,0 -5.635,2.527 -5.635,5.634 0,3.107 2.528,5.635 5.635,5.635 3.106,0 5.634,-2.528 5.634,-5.635 0,-3.107 -2.528,-5.634 -5.634,-5.634"
             style="fill:#f47d20;fill-opacity:1;fill-rule:nonzero;stroke:none"
             id="path3763"
             inkscape:connector-curvature="0" /></g><g
           id="g3765"
           transform="translate(108.1369,117.3622)"><path
             d="m 0,0 c -2.599,0 -4.714,-2.115 -4.714,-4.714 0,-2.6 2.115,-4.714 4.714,-4.714 2.599,0 4.714,2.114 4.714,4.714 C 4.714,-2.115 2.599,0 0,0 m 0,-11.488 c -3.735,0 -6.773,3.039 -6.773,6.774 0,3.735 3.038,6.774 6.773,6.774 3.735,0 6.774,-3.039 6.774,-6.774 0,-3.735 -3.039,-6.774 -6.774,-6.774"
             style="fill:#f47d20;fill-opacity:1;fill-rule:nonzero;stroke:none"
             id="path3767"
             inkscape:connector-curvature="0" /></g><g
           id="g3769"
           transform="translate(108.1368,116.3624)"><path
             d="m 0,0 c -2.048,0 -3.714,-1.666 -3.714,-3.715 0,-2.047 1.666,-3.713 3.714,-3.713 2.049,0 3.715,1.666 3.715,3.713 C 3.715,-1.666 2.049,0 0,0 m 0,-9.428 c -3.15,0 -5.714,2.563 -5.714,5.713 C -5.714,-0.563 -3.15,2 0,2 3.151,2 5.715,-0.563 5.715,-3.715 5.715,-6.865 3.151,-9.428 0,-9.428 M 0,2.06 c -3.184,0 -5.773,-2.591 -5.773,-5.775 0,-3.183 2.589,-5.773 5.773,-5.773 3.184,0 5.774,2.59 5.774,5.773 0,3.184 -2.59,5.775 -5.774,5.775 m 0,-13.548 c -4.286,0 -7.773,3.487 -7.773,7.773 0,4.287 3.487,7.775 7.773,7.775 4.287,0 7.774,-3.488 7.774,-7.775 0,-4.286 -3.487,-7.773 -7.774,-7.773"
             style="fill:#f47d20;fill-opacity:1;fill-rule:nonzero;stroke:none"
             id="path3771"
             inkscape:connector-curvature="0" /></g><path
           d="m 175.77,94.95 h -73.119 v 3.09 h 73.119 z"
           style="fill:#f47d20;fill-opacity:1;fill-rule:nonzero;stroke:none"
           id="path3773"
           inkscape:connector-curvature="0" /><path
           d="m 103.65,95.95 h 71.12 v 1.089 h -71.12 z m 73.121,-2 h -75.12 v 5.089 h 75.12 z"
           style="fill:#f47d20;fill-opacity:1;fill-rule:nonzero;stroke:none"
           id="path3775"
           inkscape:connector-curvature="0" /><g
           id="g3777"
           transform="translate(99.5611,99.0693)"><path
             d="m 0,0 c -1.42,0 -2.575,-1.155 -2.575,-2.575 0,-1.419 1.155,-2.574 2.575,-2.574 1.42,0 2.575,1.155 2.575,2.574 C 2.575,-1.155 1.42,0 0,0 m 0,-7.209 c -2.555,0 -4.634,2.079 -4.634,4.634 0,2.556 2.079,4.635 4.634,4.635 2.555,0 4.634,-2.079 4.634,-4.635 C 4.634,-5.13 2.555,-7.209 0,-7.209"
             style="fill:#f47d20;fill-opacity:1;fill-rule:nonzero;stroke:none"
             id="path3779"
             inkscape:connector-curvature="0" /></g><g
           id="g3781"
           transform="translate(99.5616,98.0694)"><path
             d="m 0,0 c -0.868,0 -1.575,-0.707 -1.575,-1.575 0,-0.868 0.707,-1.574 1.575,-1.574 0.868,0 1.574,0.706 1.574,1.574 C 1.574,-0.707 0.868,0 0,0 m 0,-5.149 c -1.972,0 -3.575,1.603 -3.575,3.574 C -3.575,0.396 -1.972,2 0,2 1.971,2 3.574,0.396 3.574,-1.575 3.574,-3.546 1.971,-5.149 0,-5.149 M 0,2.06 c -2.004,0 -3.635,-1.631 -3.635,-3.635 0,-2.004 1.631,-3.634 3.635,-3.634 2.004,0 3.634,1.63 3.634,3.634 C 3.634,0.429 2.004,2.06 0,2.06 m 0,-9.269 c -3.107,0 -5.635,2.527 -5.635,5.634 0,3.107 2.528,5.635 5.635,5.635 3.106,0 5.634,-2.528 5.634,-5.635 0,-3.107 -2.528,-5.634 -5.634,-5.634"
             style="fill:#f47d20;fill-opacity:1;fill-rule:nonzero;stroke:none"
             id="path3783"
             inkscape:connector-curvature="0" /></g><g
           id="g3785"
           transform="translate(179.3746,99.0693)"><path
             d="m 0,0 c -1.42,0 -2.575,-1.155 -2.575,-2.575 0,-1.419 1.155,-2.574 2.575,-2.574 1.42,0 2.575,1.155 2.575,2.574 C 2.575,-1.155 1.42,0 0,0 m 0,-7.209 c -2.556,0 -4.634,2.079 -4.634,4.634 0,2.556 2.078,4.635 4.634,4.635 2.556,0 4.634,-2.079 4.634,-4.635 C 4.634,-5.13 2.556,-7.209 0,-7.209"
             style="fill:#f47d20;fill-opacity:1;fill-rule:nonzero;stroke:none"
             id="path3787"
             inkscape:connector-curvature="0" /></g><g
           id="g3789"
           transform="translate(179.375,98.0694)"><path
             d="m 0,0 c -0.868,0 -1.575,-0.707 -1.575,-1.575 0,-0.868 0.707,-1.574 1.575,-1.574 0.868,0 1.574,0.706 1.574,1.574 C 1.574,-0.707 0.868,0 0,0 m 0,-5.149 c -1.972,0 -3.575,1.603 -3.575,3.574 C -3.575,0.396 -1.972,2 0,2 1.971,2 3.574,0.396 3.574,-1.575 3.574,-3.546 1.971,-5.149 0,-5.149 M 0,2.06 c -2.004,0 -3.635,-1.631 -3.635,-3.635 0,-2.004 1.631,-3.634 3.635,-3.634 2.004,0 3.634,1.63 3.634,3.634 C 3.634,0.429 2.004,2.06 0,2.06 m 0,-9.269 c -3.107,0 -5.635,2.527 -5.635,5.634 0,3.107 2.528,5.635 5.635,5.635 3.106,0 5.634,-2.528 5.634,-5.635 0,-3.107 -2.528,-5.634 -5.634,-5.634"
             style="fill:#f47d20;fill-opacity:1;fill-rule:nonzero;stroke:none"
             id="path3791"
             inkscape:connector-curvature="0" /></g><g
           id="g3793"
           transform="translate(153.3898,69.5)"><path
             d="M 0,0 H -114.234 L -62.773,55.489 -114.234,111 H 0 C 30.603,111 55.5,86.103 55.5,55.5 55.5,24.897 30.603,0 0,0 m -117.535,-2.584 h 0.025 l -0.025,-0.03 z M 0,117 h -118.285 -1.286 -7.797 l 4.434,-5.357 L -70.393,55.489 -127.035,-6 h 6.597 2.903 H 0 C 33.911,-6 61.5,21.589 61.5,55.5 61.5,89.411 33.911,117 0,117"
             style="fill:#f47d20;fill-opacity:1;fill-rule:nonzero;stroke:none"
             id="path3795"
             inkscape:connector-curvature="0" /></g></g></g></g></svg>